<?xml version="1.0" encoding="UTF-8" standalone="no"?>
<svg
   xmlns:dc="http://purl.org/dc/elements/1.1/"
   xmlns:cc="http://creativecommons.org/ns#"
   xmlns:rdf="http://www.w3.org/1999/02/22-rdf-syntax-ns#"
   xmlns:svg="http://www.w3.org/2000/svg"
   xmlns="http://www.w3.org/2000/svg"
   xmlns:sodipodi="http://sodipodi.sourceforge.net/DTD/sodipodi-0.dtd"
   xmlns:inkscape="http://www.inkscape.org/namespaces/inkscape"
   viewBox="0 0 169.41701 85"
   id="svg-logo-bmbf"
   width="169.41701"
   height="85"
   version="1.1"
   sodipodi:docname="BMBF-logo.svg"
   inkscape:export-filename="C:\Users\Olya\OneDrive - techfak.uni-bielefeld.de\Desktop\high-resolution\BMBF-logo.png"
   inkscape:export-xdpi="1995.3379"
   inkscape:export-ydpi="1995.3379"
   inkscape:version="0.92.1 r15371">
  <metadata
     id="metadata23">
    <rdf:RDF>
      <cc:Work
         rdf:about="">
        <dc:format>image/svg+xml</dc:format>
        <dc:type
           rdf:resource="http://purl.org/dc/dcmitype/StillImage" />
        <dc:title></dc:title>
      </cc:Work>
    </rdf:RDF>
  </metadata>
  <defs
     id="defs21" />
  <sodipodi:namedview
     pagecolor="#ffffff"
     bordercolor="#666666"
     borderopacity="1"
     objecttolerance="10"
     gridtolerance="10"
     guidetolerance="10"
     inkscape:pageopacity="1"
     inkscape:pageshadow="2"
     inkscape:window-width="1920"
     inkscape:window-height="1001"
     id="namedview19"
     showgrid="false"
     fit-margin-top="1"
     fit-margin-left="1"
     fit-margin-right="1"
     fit-margin-bottom="0"
     inkscape:zoom="4.8095238"
     inkscape:cx="89.178799"
     inkscape:cy="33.326735"
     inkscape:window-x="-9"
     inkscape:window-y="-9"
     inkscape:window-maximized="1"
     inkscape:current-layer="g846" />
  <g
     id="g29"
     transform="translate(0.29265844,-1.9306949)">
    <g
       id="g846"
       transform="translate(0.83168317,3.5346534)">
      <g
         transform="translate(-0.12534161,-1.6039585)"
         id="g851">
        <path
           inkscape:connector-curvature="0"
           id="path12"
           d="m 61.564,4.913 c 0,0.393 -0.05,0.738 -0.148,1.033 -0.098,0.295 -0.232,0.55 -0.401,0.762 -0.17,0.214 -0.367,0.386 -0.59,0.517 -0.225,0.131 -0.457,0.23 -0.698,0.295 v 0.033 c 0.295,0.055 0.571,0.158 0.828,0.312 a 2.605,2.605 0 0 1 1.132,1.385 c 0.115,0.312 0.172,0.654 0.172,1.025 a 3.2,3.2 0 0 1 -0.23,1.23 c -0.153,0.372 -0.39,0.694 -0.713,0.968 -0.322,0.273 -0.73,0.486 -1.222,0.64 -0.491,0.152 -1.076,0.229 -1.754,0.229 H 55.628 V 2.027 h 2.18 c 0.667,0 1.239,0.068 1.714,0.205 0.476,0.136 0.867,0.33 1.173,0.582 0.306,0.251 0.527,0.555 0.664,0.91 0.137,0.355 0.205,0.752 0.205,1.189 z m -1.443,0.049 c 0,-0.525 -0.186,-0.957 -0.558,-1.295 -0.371,-0.34 -0.956,-0.509 -1.754,-0.509 h -0.755 v 3.903 h 0.738 c 0.765,0 1.345,-0.186 1.739,-0.558 0.393,-0.371 0.59,-0.885 0.59,-1.541 z m 0.213,5.215 c 0,-0.612 -0.2,-1.096 -0.598,-1.452 -0.4,-0.355 -0.97,-0.532 -1.714,-0.532 h -0.968 v 3.968 h 0.886 c 0.842,0 1.451,-0.167 1.828,-0.5 0.378,-0.334 0.566,-0.828 0.566,-1.484 z m 8.79,3.165 H 67.91 v -0.886 h -0.033 a 2.139,2.139 0 0 1 -0.631,0.648 c -0.17,0.115 -0.374,0.216 -0.615,0.303 -0.24,0.088 -0.508,0.132 -0.803,0.132 -0.35,0 -0.664,-0.052 -0.943,-0.156 a 1.715,1.715 0 0 1 -0.714,-0.5 c -0.196,-0.23 -0.347,-0.528 -0.45,-0.894 -0.104,-0.366 -0.156,-0.817 -0.156,-1.353 V 5.47 h 1.328 v 5.068 c 0,0.656 0.107,1.123 0.32,1.402 0.213,0.278 0.544,0.418 0.992,0.418 0.382,0 0.705,-0.096 0.967,-0.287 0.263,-0.191 0.47,-0.38 0.623,-0.566 V 5.47 h 1.329 z m 6.33,0 V 8.275 c 0,-0.667 -0.112,-1.146 -0.336,-1.435 -0.225,-0.29 -0.566,-0.435 -1.025,-0.435 -0.394,0 -0.722,0.098 -0.984,0.295 -0.263,0.197 -0.47,0.388 -0.624,0.574 v 6.068 H 71.157 V 5.47 h 1.214 v 0.886 h 0.032 a 2.054,2.054 0 0 1 0.64,-0.648 3.01,3.01 0 0 1 0.623,-0.303 c 0.24,-0.088 0.514,-0.131 0.82,-0.131 0.35,0 0.667,0.052 0.951,0.155 0.285,0.104 0.525,0.271 0.722,0.5 0.197,0.23 0.35,0.528 0.459,0.894 0.11,0.366 0.164,0.818 0.164,1.353 v 5.166 z m 2.951,-3.821 c 0,-0.798 0.104,-1.465 0.312,-2 0.208,-0.536 0.476,-0.968 0.804,-1.296 0.328,-0.328 0.7,-0.56 1.115,-0.697 a 3.97,3.97 0 0 1 1.246,-0.205 c 0.251,0 0.47,0.019 0.656,0.057 0.186,0.038 0.339,0.085 0.46,0.14 V 1.748 L 84.324,1.6 v 11.742 h -1.213 v -0.837 h -0.033 a 1.885,1.885 0 0 1 -0.541,0.615 2.173,2.173 0 0 1 -0.574,0.296 c -0.23,0.082 -0.498,0.123 -0.804,0.123 -0.371,0 -0.724,-0.074 -1.057,-0.222 a 2.282,2.282 0 0 1 -0.878,-0.705 c -0.251,-0.323 -0.45,-0.738 -0.598,-1.246 -0.148,-0.509 -0.222,-1.124 -0.222,-1.845 z m 3.116,2.837 a 1.72,1.72 0 0 0 1.287,-0.541 c 0.083,-0.088 0.145,-0.164 0.19,-0.23 V 6.733 A 1.983,1.983 0 0 0 82.579,6.536 1.86,1.86 0 0 0 81.98,6.454 c -0.306,0 -0.593,0.052 -0.86,0.156 -0.268,0.104 -0.5,0.276 -0.698,0.517 -0.196,0.24 -0.352,0.552 -0.467,0.934 -0.115,0.383 -0.172,0.853 -0.172,1.41 0,0.547 0.046,1.004 0.14,1.37 0.092,0.366 0.22,0.661 0.385,0.885 0.164,0.225 0.35,0.386 0.557,0.484 0.208,0.099 0.427,0.148 0.656,0.148 z M 91.41,8.127 c 0,0.339 -0.011,0.631 -0.033,0.877 a 23.24,23.24 0 0 1 -0.066,0.648 h -4.017 c 0.043,0.93 0.243,1.613 0.598,2.05 0.355,0.437 0.867,0.656 1.533,0.656 0.23,0 0.438,-0.027 0.624,-0.082 a 2.35,2.35 0 0 0 1.033,-0.607 l 0.492,0.935 c -0.055,0.055 -0.137,0.134 -0.246,0.238 -0.11,0.103 -0.257,0.207 -0.443,0.311 a 3.177,3.177 0 0 1 -0.689,0.27 3.614,3.614 0 0 1 -0.967,0.116 c -0.492,0 -0.938,-0.082 -1.337,-0.246 A 2.528,2.528 0 0 1 86.875,12.53 c -0.278,-0.344 -0.494,-0.782 -0.647,-1.312 -0.153,-0.53 -0.23,-1.167 -0.23,-1.91 0,-0.7 0.08,-1.304 0.238,-1.812 0.158,-0.509 0.374,-0.927 0.648,-1.255 0.273,-0.328 0.59,-0.571 0.95,-0.73 0.361,-0.158 0.75,-0.237 1.165,-0.237 0.754,0 1.345,0.237 1.771,0.713 0.426,0.475 0.64,1.189 0.64,2.14 z M 88.917,6.356 c -0.47,0 -0.847,0.197 -1.132,0.59 -0.284,0.394 -0.448,0.962 -0.491,1.706 h 2.87 c 0.01,-0.055 0.018,-0.134 0.024,-0.238 a 6.52,6.52 0 0 0 0.008,-0.336 c 0,-0.547 -0.11,-0.97 -0.328,-1.271 -0.219,-0.3 -0.536,-0.451 -0.951,-0.451 z m 7.658,0.705 A 3.344,3.344 0 0 0 96.1,6.659 c -0.23,-0.17 -0.53,-0.254 -0.902,-0.254 -0.35,0 -0.618,0.082 -0.804,0.246 a 0.76,0.76 0 0 0 -0.279,0.59 c 0,0.296 0.085,0.539 0.255,0.73 0.169,0.192 0.429,0.396 0.779,0.615 l 0.491,0.295 c 0.536,0.317 0.957,0.659 1.263,1.025 0.306,0.366 0.46,0.84 0.46,1.419 0,0.623 -0.217,1.148 -0.648,1.574 -0.432,0.426 -1.053,0.64 -1.862,0.64 -0.317,0 -0.596,-0.033 -0.836,-0.099 a 3.65,3.65 0 0 1 -0.631,-0.23 2.074,2.074 0 0 1 -0.451,-0.286 c -0.12,-0.104 -0.219,-0.2 -0.295,-0.287 l 0.64,-1.05 c 0.065,0.066 0.144,0.142 0.237,0.23 a 2.152,2.152 0 0 0 0.779,0.459 c 0.164,0.055 0.355,0.082 0.574,0.082 0.393,0 0.694,-0.088 0.902,-0.263 a 0.807,0.807 0 0 0 0.311,-0.64 1.43,1.43 0 0 0 -0.073,-0.483 1.108,1.108 0 0 0 -0.222,-0.369 2.062,2.062 0 0 0 -0.36,-0.311 19.104,19.104 0 0 0 -0.493,-0.328 L 94.443,9.652 c -0.492,-0.317 -0.877,-0.65 -1.156,-1 -0.278,-0.35 -0.418,-0.798 -0.418,-1.345 0,-0.295 0.058,-0.566 0.172,-0.812 a 1.91,1.91 0 0 1 0.484,-0.64 c 0.208,-0.18 0.451,-0.322 0.73,-0.426 a 2.54,2.54 0 0 1 0.894,-0.155 3,3 0 0 1 0.787,0.09 2.355,2.355 0 0 1 0.959,0.508 c 0.104,0.093 0.189,0.172 0.254,0.238 z m 6.478,6.28 V 8.276 c 0,-0.646 -0.093,-1.11 -0.28,-1.394 -0.185,-0.285 -0.486,-0.427 -0.901,-0.427 a 1.893,1.893 0 0 0 -1.033,0.287 1.933,1.933 0 0 0 -0.345,0.27 c -0.098,0.1 -0.18,0.187 -0.245,0.263 v 6.068 H 98.92 V 5.47 h 1.214 v 0.886 h 0.033 c 0.054,-0.088 0.136,-0.194 0.245,-0.32 a 2.345,2.345 0 0 1 0.984,-0.648 c 0.22,-0.076 0.465,-0.114 0.738,-0.114 0.897,0 1.531,0.35 1.903,1.05 a 2.523,2.523 0 0 1 0.77,-0.697 2.504,2.504 0 0 1 1.312,-0.353 c 1.596,0 2.394,0.929 2.394,2.787 v 5.28 h -1.328 V 8.276 c 0,-0.646 -0.115,-1.11 -0.344,-1.394 -0.23,-0.285 -0.569,-0.427 -1.017,-0.427 -0.372,0 -0.68,0.09 -0.926,0.27 -0.246,0.181 -0.44,0.353 -0.583,0.517 0.022,0.12 0.039,0.25 0.05,0.386 0.01,0.136 0.016,0.281 0.016,0.434 v 5.28 h -1.328 z m 8.773,0 h -1.328 v -7.87 h 1.328 z M 111.17,3.568 c -0.273,0 -0.492,-0.087 -0.656,-0.262 -0.164,-0.175 -0.246,-0.405 -0.246,-0.689 0,-0.273 0.082,-0.497 0.246,-0.672 0.164,-0.175 0.383,-0.263 0.656,-0.263 0.262,0 0.476,0.088 0.64,0.263 0.164,0.175 0.246,0.399 0.246,0.672 0,0.284 -0.082,0.514 -0.246,0.689 a 0.837,0.837 0 0 1 -0.64,0.262 z m 6.986,9.774 V 8.275 c 0,-0.667 -0.112,-1.146 -0.336,-1.435 -0.224,-0.29 -0.566,-0.435 -1.025,-0.435 -0.394,0 -0.722,0.098 -0.984,0.295 -0.262,0.197 -0.47,0.388 -0.623,0.574 v 6.068 h -1.329 V 5.47 h 1.214 v 0.886 h 0.033 a 2.054,2.054 0 0 1 0.64,-0.648 3.01,3.01 0 0 1 0.622,-0.303 c 0.24,-0.088 0.514,-0.131 0.82,-0.131 0.35,0 0.667,0.052 0.952,0.155 0.284,0.104 0.524,0.271 0.721,0.5 0.197,0.23 0.35,0.528 0.46,0.894 0.108,0.366 0.163,0.818 0.163,1.353 v 5.166 z m 4.64,0 h -1.328 V 5.47 h 1.329 v 7.872 z m -0.655,-9.774 c -0.273,0 -0.492,-0.087 -0.656,-0.262 -0.164,-0.175 -0.246,-0.405 -0.246,-0.689 0,-0.273 0.082,-0.497 0.246,-0.672 0.164,-0.175 0.383,-0.263 0.656,-0.263 0.262,0 0.475,0.088 0.64,0.263 0.163,0.175 0.245,0.399 0.245,0.672 0,0.284 -0.082,0.514 -0.246,0.689 a 0.837,0.837 0 0 1 -0.64,0.262 z m 6.084,3.493 a 3.344,3.344 0 0 0 -0.476,-0.402 c -0.23,-0.17 -0.53,-0.254 -0.902,-0.254 -0.35,0 -0.617,0.082 -0.803,0.246 a 0.76,0.76 0 0 0 -0.28,0.59 c 0,0.296 0.086,0.539 0.255,0.73 0.17,0.192 0.43,0.396 0.779,0.615 l 0.492,0.295 c 0.536,0.317 0.957,0.659 1.263,1.025 0.306,0.366 0.459,0.84 0.459,1.419 0,0.623 -0.216,1.148 -0.648,1.574 -0.432,0.426 -1.052,0.64 -1.861,0.64 -0.317,0 -0.596,-0.033 -0.836,-0.099 a 3.65,3.65 0 0 1 -0.632,-0.23 2.074,2.074 0 0 1 -0.45,-0.286 c -0.121,-0.104 -0.22,-0.2 -0.296,-0.287 l 0.64,-1.05 c 0.065,0.066 0.144,0.142 0.237,0.23 a 2.152,2.152 0 0 0 0.78,0.459 c 0.163,0.055 0.355,0.082 0.573,0.082 0.394,0 0.695,-0.088 0.902,-0.263 a 0.807,0.807 0 0 0 0.312,-0.64 1.43,1.43 0 0 0 -0.074,-0.483 1.108,1.108 0 0 0 -0.221,-0.369 2.062,2.062 0 0 0 -0.361,-0.311 19.104,19.104 0 0 0 -0.492,-0.328 l -0.492,-0.312 c -0.492,-0.317 -0.878,-0.65 -1.156,-1 -0.279,-0.35 -0.418,-0.798 -0.418,-1.345 0,-0.295 0.057,-0.566 0.172,-0.812 a 1.91,1.91 0 0 1 0.484,-0.64 c 0.207,-0.18 0.45,-0.322 0.73,-0.426 a 2.54,2.54 0 0 1 0.893,-0.155 3,3 0 0 1 0.787,0.09 2.355,2.355 0 0 1 0.96,0.508 c 0.103,0.093 0.188,0.172 0.254,0.238 z m 5.706,-0.508 h -1.721 v 4.362 c 0,0.557 0.07,0.937 0.213,1.14 0.142,0.202 0.382,0.303 0.721,0.303 0.197,0 0.367,-0.027 0.509,-0.082 a 1.7,1.7 0 0 0 0.311,-0.148 l 0.18,1.066 a 2.27,2.27 0 0 1 -0.393,0.205 c -0.208,0.093 -0.486,0.14 -0.836,0.14 -0.678,0 -1.186,-0.189 -1.525,-0.566 -0.34,-0.377 -0.509,-1.003 -0.509,-1.878 V 6.553 h -0.95 V 5.667 l 0.95,-0.197 0.148,-2.197 h 1.18 V 5.47 h 1.886 z m 6.445,1.574 c 0,0.339 -0.01,0.631 -0.033,0.877 a 23.24,23.24 0 0 1 -0.065,0.648 h -4.018 c 0.044,0.93 0.243,1.613 0.599,2.05 0.355,0.437 0.866,0.656 1.533,0.656 0.23,0 0.437,-0.027 0.623,-0.082 a 2.35,2.35 0 0 0 1.033,-0.607 l 0.492,0.935 c -0.055,0.055 -0.137,0.134 -0.246,0.238 -0.11,0.103 -0.257,0.207 -0.443,0.311 a 3.177,3.177 0 0 1 -0.688,0.27 3.614,3.614 0 0 1 -0.968,0.116 c -0.492,0 -0.937,-0.082 -1.336,-0.246 a 2.528,2.528 0 0 1 -1.017,-0.763 c -0.279,-0.344 -0.495,-0.782 -0.648,-1.312 -0.153,-0.53 -0.23,-1.167 -0.23,-1.91 0,-0.7 0.08,-1.304 0.238,-1.812 0.159,-0.509 0.375,-0.927 0.648,-1.255 0.273,-0.328 0.59,-0.571 0.951,-0.73 0.361,-0.158 0.75,-0.237 1.165,-0.237 0.754,0 1.344,0.237 1.77,0.713 0.427,0.475 0.64,1.189 0.64,2.14 z m -2.492,-1.771 c -0.47,0 -0.848,0.197 -1.132,0.59 -0.284,0.394 -0.448,0.962 -0.492,1.706 h 2.87 c 0.01,-0.055 0.019,-0.134 0.025,-0.238 a 6.36,6.36 0 0 0 0.008,-0.336 c 0,-0.547 -0.11,-0.97 -0.328,-1.271 -0.219,-0.3 -0.536,-0.451 -0.951,-0.451 z m 7.723,0.279 a 0.948,0.948 0 0 0 -0.213,-0.082 1.595,1.595 0 0 0 -0.443,-0.05 c -0.415,0 -0.74,0.113 -0.975,0.337 a 1.965,1.965 0 0 0 -0.5,0.73 v 5.772 h -1.329 V 5.47 h 1.214 v 1.066 h 0.033 c 0.054,-0.153 0.125,-0.303 0.213,-0.45 0.087,-0.148 0.196,-0.28 0.328,-0.394 0.13,-0.115 0.287,-0.205 0.467,-0.27 a 1.9,1.9 0 0 1 0.648,-0.1 c 0.186,0 0.336,0.017 0.45,0.05 0.116,0.033 0.206,0.06 0.271,0.082 l -0.164,1.18 z m 2.64,6.707 h -1.328 V 5.47 h 1.329 v 7.872 z m -0.655,-9.774 c -0.274,0 -0.492,-0.087 -0.656,-0.262 -0.164,-0.175 -0.246,-0.405 -0.246,-0.689 0,-0.273 0.082,-0.497 0.246,-0.672 0.164,-0.175 0.382,-0.263 0.656,-0.263 0.262,0 0.475,0.088 0.64,0.263 0.163,0.175 0.245,0.399 0.245,0.672 0,0.284 -0.082,0.514 -0.246,0.689 a 0.837,0.837 0 0 1 -0.64,0.262 z m 8.199,9.774 h -1.214 v -0.886 h -0.032 a 2.139,2.139 0 0 1 -0.631,0.648 c -0.17,0.115 -0.375,0.216 -0.616,0.303 -0.24,0.088 -0.508,0.132 -0.803,0.132 -0.35,0 -0.664,-0.052 -0.943,-0.156 a 1.715,1.715 0 0 1 -0.713,-0.5 c -0.197,-0.23 -0.348,-0.528 -0.451,-0.894 -0.104,-0.366 -0.156,-0.817 -0.156,-1.353 V 5.47 h 1.328 v 5.068 c 0,0.656 0.107,1.123 0.32,1.402 0.213,0.278 0.544,0.418 0.992,0.418 0.383,0 0.705,-0.096 0.968,-0.287 0.262,-0.191 0.47,-0.38 0.623,-0.566 V 5.47 h 1.328 z m 6.166,0 V 8.275 c 0,-0.646 -0.093,-1.11 -0.279,-1.394 -0.186,-0.285 -0.486,-0.427 -0.902,-0.427 a 1.893,1.893 0 0 0 -1.033,0.287 1.933,1.933 0 0 0 -0.344,0.27 c -0.099,0.1 -0.18,0.187 -0.246,0.263 v 6.068 h -1.329 V 5.47 h 1.214 v 0.886 h 0.033 c 0.054,-0.088 0.136,-0.194 0.246,-0.32 a 2.345,2.345 0 0 1 0.984,-0.648 c 0.218,-0.076 0.464,-0.114 0.738,-0.114 0.896,0 1.53,0.35 1.902,1.05 a 2.523,2.523 0 0 1 0.77,-0.697 2.504,2.504 0 0 1 1.312,-0.353 c 1.597,0 2.395,0.929 2.395,2.787 v 5.28 h -1.329 V 8.276 c 0,-0.646 -0.114,-1.11 -0.344,-1.394 -0.23,-0.285 -0.568,-0.427 -1.017,-0.427 -0.371,0 -0.68,0.09 -0.926,0.27 -0.246,0.181 -0.44,0.353 -0.582,0.517 0.021,0.12 0.038,0.25 0.049,0.386 0.01,0.136 0.016,0.281 0.016,0.434 v 5.28 z M 58.66,23.089 h -1.607 v 6.79 h -1.328 v -6.79 h -0.951 v -0.885 l 0.951,-0.18 v -1.575 c 0,-0.426 0.06,-0.793 0.18,-1.099 0.12,-0.306 0.28,-0.557 0.476,-0.754 A 1.74,1.74 0 0 1 57.07,18.17 c 0.262,-0.088 0.54,-0.132 0.836,-0.132 0.284,0 0.525,0.039 0.722,0.115 0.196,0.077 0.328,0.137 0.393,0.18 l -0.279,1.1 a 1.635,1.635 0 0 0 -0.278,-0.14 1.172,1.172 0 0 0 -0.443,-0.074 c -0.317,0 -0.558,0.099 -0.722,0.295 -0.164,0.197 -0.246,0.558 -0.246,1.083 v 1.41 h 1.771 z m 6.822,6.79 H 64.27 v -0.886 h -0.033 a 2.139,2.139 0 0 1 -0.631,0.648 c -0.17,0.114 -0.375,0.215 -0.615,0.303 -0.24,0.087 -0.509,0.131 -0.804,0.131 -0.35,0 -0.664,-0.052 -0.943,-0.156 a 1.715,1.715 0 0 1 -0.713,-0.5 c -0.197,-0.23 -0.347,-0.527 -0.451,-0.894 -0.104,-0.366 -0.156,-0.817 -0.156,-1.353 v -5.165 h 1.328 v 5.067 c 0,0.656 0.107,1.123 0.32,1.402 0.213,0.279 0.544,0.418 0.992,0.418 0.383,0 0.705,-0.095 0.968,-0.287 0.262,-0.191 0.47,-0.38 0.623,-0.565 v -6.035 h 1.328 v 7.871 z M 62.22,19.743 c 0,0.251 -0.077,0.454 -0.23,0.607 a 0.759,0.759 0 0 1 -0.557,0.23 0.759,0.759 0 0 1 -0.558,-0.23 c -0.153,-0.153 -0.23,-0.356 -0.23,-0.607 0,-0.252 0.077,-0.454 0.23,-0.607 a 0.759,0.759 0 0 1 0.558,-0.23 c 0.218,0 0.404,0.077 0.557,0.23 0.153,0.153 0.23,0.355 0.23,0.607 z m 2.525,0 c 0,0.251 -0.076,0.454 -0.23,0.607 a 0.759,0.759 0 0 1 -0.557,0.23 0.759,0.759 0 0 1 -0.557,-0.23 c -0.154,-0.153 -0.23,-0.356 -0.23,-0.607 0,-0.252 0.076,-0.454 0.23,-0.607 a 0.759,0.759 0 0 1 0.557,-0.23 c 0.219,0 0.405,0.077 0.558,0.23 0.153,0.153 0.23,0.355 0.23,0.607 z m 6.232,3.427 a 0.948,0.948 0 0 0 -0.213,-0.082 1.595,1.595 0 0 0 -0.443,-0.049 c -0.416,0 -0.74,0.112 -0.976,0.336 a 1.965,1.965 0 0 0 -0.5,0.73 v 5.772 h -1.328 v -7.871 h 1.213 v 1.066 h 0.033 c 0.055,-0.153 0.126,-0.304 0.213,-0.451 0.088,-0.148 0.197,-0.279 0.328,-0.394 0.131,-0.115 0.287,-0.205 0.467,-0.27 a 1.9,1.9 0 0 1 0.648,-0.099 c 0.186,0 0.336,0.017 0.451,0.05 0.115,0.032 0.205,0.06 0.27,0.081 z m 10.626,-1.722 c 0,0.394 -0.049,0.738 -0.147,1.033 -0.099,0.296 -0.233,0.55 -0.402,0.763 -0.17,0.213 -0.366,0.385 -0.59,0.517 -0.225,0.13 -0.457,0.23 -0.697,0.295 v 0.033 c 0.295,0.054 0.57,0.158 0.828,0.311 a 2.605,2.605 0 0 1 1.131,1.386 c 0.115,0.311 0.172,0.653 0.172,1.025 a 3.2,3.2 0 0 1 -0.23,1.23 c -0.152,0.371 -0.39,0.694 -0.713,0.967 -0.322,0.273 -0.73,0.487 -1.221,0.64 -0.492,0.153 -1.077,0.23 -1.755,0.23 H 75.667 V 18.562 h 2.18 c 0.668,0 1.239,0.069 1.715,0.205 0.475,0.137 0.866,0.33 1.172,0.582 0.306,0.252 0.528,0.555 0.664,0.91 0.137,0.356 0.205,0.752 0.205,1.19 z m -1.443,0.05 c 0,-0.525 -0.186,-0.957 -0.557,-1.296 -0.372,-0.339 -0.957,-0.508 -1.755,-0.508 h -0.754 v 3.903 h 0.737 c 0.766,0 1.345,-0.186 1.739,-0.558 0.393,-0.372 0.59,-0.886 0.59,-1.541 z m 0.213,5.214 c 0,-0.612 -0.2,-1.096 -0.598,-1.451 -0.4,-0.355 -0.97,-0.533 -1.714,-0.533 h -0.967 v 3.969 h 0.885 c 0.842,0 1.451,-0.167 1.829,-0.5 0.377,-0.334 0.565,-0.829 0.565,-1.485 z m 4.608,3.165 h -1.328 v -7.871 h 1.328 z m -0.656,-9.773 c -0.273,0 -0.492,-0.088 -0.656,-0.263 -0.164,-0.175 -0.246,-0.404 -0.246,-0.688 0,-0.274 0.082,-0.498 0.246,-0.673 0.164,-0.175 0.383,-0.262 0.656,-0.262 0.263,0 0.476,0.087 0.64,0.262 0.164,0.175 0.246,0.4 0.246,0.673 0,0.284 -0.082,0.513 -0.246,0.688 a 0.837,0.837 0 0 1 -0.64,0.263 z m 4.002,7.937 c 0,0.328 0.046,0.557 0.14,0.688 0.092,0.132 0.253,0.197 0.483,0.197 0.12,0 0.221,-0.01 0.303,-0.033 0.082,-0.022 0.145,-0.043 0.189,-0.065 l 0.115,0.984 a 2.8,2.8 0 0 1 -0.361,0.13 2.44,2.44 0 0 1 -0.705,0.083 c -0.449,0 -0.81,-0.137 -1.083,-0.41 -0.273,-0.273 -0.41,-0.76 -0.41,-1.46 v -9.872 l 1.329,-0.147 z m 2.066,-1.985 c 0,-0.798 0.104,-1.465 0.311,-2 0.208,-0.536 0.476,-0.968 0.804,-1.296 0.328,-0.328 0.7,-0.56 1.115,-0.697 a 3.97,3.97 0 0 1 1.246,-0.205 c 0.252,0 0.47,0.02 0.656,0.058 0.186,0.038 0.34,0.084 0.46,0.14 v -3.773 l 1.328,-0.147 v 11.741 h -1.214 v -0.836 h -0.032 a 1.885,1.885 0 0 1 -0.542,0.615 2.173,2.173 0 0 1 -0.574,0.295 c -0.23,0.082 -0.497,0.123 -0.803,0.123 -0.372,0 -0.724,-0.074 -1.058,-0.221 A 2.282,2.282 0 0 1 91.213,29.147 C 90.961,28.825 90.762,28.41 90.614,27.901 90.467,27.393 90.393,26.778 90.393,26.056 Z m 3.116,2.837 a 1.72,1.72 0 0 0 1.287,-0.541 c 0.082,-0.087 0.145,-0.164 0.189,-0.23 V 23.27 a 1.983,1.983 0 0 0 -0.419,-0.197 1.86,1.86 0 0 0 -0.598,-0.082 c -0.306,0 -0.593,0.052 -0.861,0.156 -0.268,0.103 -0.5,0.276 -0.697,0.516 -0.197,0.24 -0.353,0.552 -0.467,0.935 -0.115,0.383 -0.173,0.853 -0.173,1.41 0,0.547 0.047,1.003 0.14,1.37 0.093,0.366 0.221,0.66 0.385,0.885 0.164,0.224 0.35,0.385 0.558,0.484 0.207,0.098 0.426,0.147 0.656,0.147 z m 10.347,0.984 h -1.213 v -0.885 h -0.033 a 2.139,2.139 0 0 1 -0.631,0.648 c -0.17,0.114 -0.375,0.215 -0.615,0.303 -0.24,0.087 -0.509,0.131 -0.804,0.131 -0.35,0 -0.664,-0.052 -0.943,-0.156 a 1.715,1.715 0 0 1 -0.713,-0.5 c -0.197,-0.23 -0.347,-0.527 -0.451,-0.894 -0.104,-0.366 -0.156,-0.817 -0.156,-1.353 v -5.165 h 1.328 v 5.067 c 0,0.656 0.107,1.123 0.32,1.402 0.213,0.279 0.544,0.418 0.992,0.418 0.383,0 0.705,-0.095 0.968,-0.287 0.262,-0.191 0.47,-0.38 0.623,-0.565 v -6.035 h 1.328 z m 6.33,0 V 24.81 c 0,-0.667 -0.112,-1.145 -0.336,-1.435 -0.224,-0.29 -0.566,-0.434 -1.025,-0.434 -0.394,0 -0.722,0.098 -0.984,0.295 -0.262,0.197 -0.47,0.388 -0.623,0.574 v 6.067 h -1.328 v -7.871 h 1.213 v 0.885 h 0.033 a 2.054,2.054 0 0 1 0.64,-0.648 3.01,3.01 0 0 1 0.623,-0.303 c 0.24,-0.087 0.514,-0.13 0.82,-0.13 0.35,0 0.666,0.051 0.95,0.155 0.285,0.104 0.525,0.27 0.722,0.5 0.197,0.23 0.35,0.528 0.46,0.894 0.109,0.366 0.163,0.817 0.163,1.353 v 5.165 z m 8.954,-6.838 h -0.984 c 0.251,0.415 0.377,0.886 0.377,1.41 0,0.416 -0.068,0.79 -0.205,1.124 a 2.363,2.363 0 0 1 -0.574,0.844 c -0.246,0.23 -0.536,0.405 -0.869,0.525 -0.333,0.12 -0.691,0.18 -1.074,0.18 h -0.213 a 1.52,1.52 0 0 1 -0.213,-0.016 1.601,1.601 0 0 0 -0.41,0.262 0.593,0.593 0 0 0 -0.214,0.476 c 0,0.164 0.063,0.298 0.189,0.402 0.126,0.103 0.33,0.155 0.615,0.155 h 1 a 4.4,4.4 0 0 1 1.033,0.115 c 0.317,0.077 0.593,0.2 0.829,0.37 0.235,0.169 0.418,0.385 0.549,0.647 0.131,0.262 0.197,0.58 0.197,0.951 0,0.426 -0.09,0.814 -0.27,1.164 -0.181,0.35 -0.436,0.65 -0.763,0.902 a 3.712,3.712 0 0 1 -1.198,0.59 5.43,5.43 0 0 1 -1.574,0.214 c -0.842,0 -1.481,-0.183 -1.919,-0.55 -0.437,-0.366 -0.655,-0.893 -0.655,-1.582 0,-0.295 0.051,-0.55 0.155,-0.763 0.104,-0.213 0.227,-0.399 0.37,-0.557 0.141,-0.159 0.286,-0.284 0.434,-0.377 l 0.352,-0.222 v -0.032 c -0.338,-0.252 -0.508,-0.618 -0.508,-1.1 0,-0.207 0.041,-0.387 0.123,-0.54 0.082,-0.153 0.175,-0.28 0.279,-0.378 0.104,-0.098 0.208,-0.177 0.311,-0.237 a 2.04,2.04 0 0 1 0.238,-0.123 V 26.86 a 2.22,2.22 0 0 1 -0.975,-0.877 c -0.246,-0.4 -0.37,-0.91 -0.37,-1.534 0,-0.437 0.072,-0.822 0.214,-1.156 a 2.34,2.34 0 0 1 0.574,-0.828 c 0.24,-0.219 0.522,-0.383 0.844,-0.492 0.323,-0.11 0.67,-0.164 1.041,-0.164 a 2.8,2.8 0 0 1 1.05,0.197 h 2.394 z m -3.657,6.592 c -0.23,0 -0.432,-0.016 -0.607,-0.049 -0.098,0.055 -0.194,0.12 -0.287,0.197 -0.093,0.076 -0.178,0.17 -0.254,0.279 -0.076,0.109 -0.14,0.237 -0.189,0.385 -0.049,0.148 -0.073,0.32 -0.073,0.517 0,0.841 0.464,1.262 1.394,1.262 0.798,0 1.388,-0.155 1.77,-0.467 0.383,-0.312 0.575,-0.67 0.575,-1.074 0,-0.383 -0.12,-0.653 -0.361,-0.812 -0.24,-0.158 -0.563,-0.238 -0.968,-0.238 z m 1.755,-5.182 c 0,-0.568 -0.134,-0.973 -0.402,-1.213 a 1.367,1.367 0 0 0 -0.943,-0.361 c -0.383,0 -0.71,0.12 -0.984,0.36 -0.273,0.241 -0.41,0.646 -0.41,1.214 0,0.569 0.137,0.973 0.41,1.214 0.273,0.24 0.59,0.36 0.951,0.36 0.383,0 0.708,-0.12 0.976,-0.36 0.268,-0.24 0.402,-0.645 0.402,-1.214 z m -56.38,21.965 h -1.213 v -0.886 h -0.033 a 2.139,2.139 0 0 1 -0.631,0.648 c -0.17,0.115 -0.374,0.216 -0.615,0.303 -0.24,0.088 -0.508,0.132 -0.803,0.132 -0.35,0 -0.664,-0.052 -0.943,-0.156 a 1.715,1.715 0 0 1 -0.714,-0.5 C 55.71,45.725 55.559,45.427 55.456,45.061 55.352,44.695 55.3,44.244 55.3,43.708 v -5.166 h 1.328 v 5.068 c 0,0.656 0.107,1.123 0.32,1.402 0.213,0.278 0.544,0.418 0.992,0.418 0.383,0 0.705,-0.096 0.967,-0.287 0.263,-0.191 0.47,-0.38 0.624,-0.566 v -6.035 h 1.328 v 7.872 z m 6.33,0 v -5.067 c 0,-0.667 -0.111,-1.146 -0.335,-1.435 -0.225,-0.29 -0.566,-0.435 -1.025,-0.435 -0.394,0 -0.722,0.099 -0.984,0.295 -0.263,0.197 -0.47,0.388 -0.623,0.574 v 6.068 h -1.329 v -7.872 h 1.214 v 0.886 h 0.033 a 2.054,2.054 0 0 1 0.64,-0.648 3.01,3.01 0 0 1 0.622,-0.303 c 0.24,-0.088 0.514,-0.131 0.82,-0.131 0.35,0 0.667,0.052 0.951,0.155 0.285,0.104 0.525,0.271 0.722,0.5 0.197,0.23 0.35,0.528 0.459,0.894 0.11,0.367 0.164,0.818 0.164,1.353 v 5.166 h -1.328 z m 2.952,-3.821 c 0,-0.798 0.104,-1.465 0.312,-2 0.208,-0.536 0.476,-0.968 0.804,-1.296 0.328,-0.328 0.7,-0.56 1.115,-0.697 a 3.97,3.97 0 0 1 1.246,-0.205 c 0.251,0 0.47,0.019 0.656,0.057 0.186,0.038 0.339,0.085 0.46,0.14 V 34.82 l 1.327,-0.148 v 11.742 h -1.213 v -0.837 h -0.033 a 1.885,1.885 0 0 1 -0.541,0.615 2.173,2.173 0 0 1 -0.574,0.296 c -0.23,0.082 -0.497,0.123 -0.804,0.123 -0.371,0 -0.724,-0.074 -1.057,-0.222 A 2.282,2.282 0 0 1 70.96,45.684 C 70.709,45.362 70.51,44.946 70.362,44.438 70.214,43.929 70.14,43.314 70.14,42.593 Z m 3.116,2.837 a 1.72,1.72 0 0 0 1.287,-0.541 c 0.083,-0.088 0.145,-0.164 0.19,-0.23 v -4.854 a 1.983,1.983 0 0 0 -0.419,-0.197 1.86,1.86 0 0 0 -0.599,-0.082 c -0.306,0 -0.593,0.052 -0.86,0.156 -0.268,0.104 -0.5,0.276 -0.697,0.517 -0.197,0.24 -0.353,0.552 -0.468,0.934 -0.115,0.383 -0.172,0.853 -0.172,1.41 0,0.547 0.046,1.004 0.14,1.37 0.092,0.366 0.22,0.661 0.385,0.885 0.164,0.225 0.35,0.386 0.557,0.484 0.208,0.099 0.427,0.148 0.656,0.148 z m 8.593,0.984 V 35.1 h 5.56 l -0.1,1.131 h -4.033 v 4.182 h 3.722 v 1.131 h -3.722 v 4.87 z m 6.56,-3.936 c 0,-0.721 0.084,-1.345 0.254,-1.87 0.17,-0.524 0.399,-0.953 0.689,-1.287 0.29,-0.333 0.623,-0.579 1,-0.738 a 3.08,3.08 0 0 1 1.205,-0.237 c 0.437,0 0.842,0.079 1.214,0.237 0.371,0.159 0.694,0.405 0.967,0.738 0.273,0.334 0.49,0.763 0.648,1.288 0.159,0.524 0.238,1.148 0.238,1.87 0,0.732 -0.082,1.36 -0.246,1.885 -0.164,0.525 -0.391,0.954 -0.68,1.287 -0.29,0.334 -0.627,0.577 -1.01,0.73 -0.382,0.153 -0.786,0.23 -1.213,0.23 -0.437,0 -0.842,-0.077 -1.213,-0.23 a 2.446,2.446 0 0 1 -0.968,-0.73 c -0.273,-0.333 -0.489,-0.76 -0.648,-1.279 -0.158,-0.52 -0.237,-1.15 -0.237,-1.894 z m 4.837,0 c 0,-1.05 -0.153,-1.812 -0.459,-2.287 -0.306,-0.476 -0.732,-0.714 -1.279,-0.714 -0.547,0 -0.97,0.238 -1.27,0.714 -0.302,0.475 -0.452,1.238 -0.452,2.287 0,1.05 0.153,1.804 0.46,2.263 0.305,0.46 0.732,0.689 1.278,0.689 0.547,0 0.97,-0.23 1.271,-0.689 0.3,-0.459 0.451,-1.213 0.451,-2.263 z m 6.51,-2.771 a 0.948,0.948 0 0 0 -0.213,-0.082 1.595,1.595 0 0 0 -0.442,-0.05 c -0.416,0 -0.741,0.113 -0.976,0.337 a 1.965,1.965 0 0 0 -0.5,0.73 v 5.772 h -1.329 v -7.872 h 1.214 v 1.066 h 0.033 c 0.054,-0.153 0.125,-0.303 0.213,-0.45 0.087,-0.148 0.197,-0.28 0.328,-0.394 0.131,-0.115 0.287,-0.205 0.467,-0.27 a 1.9,1.9 0 0 1 0.648,-0.1 c 0.186,0 0.336,0.017 0.451,0.05 0.115,0.033 0.205,0.06 0.27,0.082 l -0.163,1.18 z m 4.641,0.426 a 3.344,3.344 0 0 0 -0.475,-0.402 c -0.23,-0.17 -0.53,-0.254 -0.902,-0.254 -0.35,0 -0.618,0.082 -0.804,0.246 a 0.76,0.76 0 0 0 -0.278,0.59 c 0,0.296 0.084,0.539 0.254,0.73 0.17,0.192 0.429,0.396 0.779,0.615 l 0.492,0.295 c 0.535,0.317 0.956,0.659 1.262,1.025 0.306,0.366 0.46,0.84 0.46,1.419 0,0.623 -0.216,1.148 -0.648,1.574 -0.432,0.426 -1.052,0.64 -1.861,0.64 -0.318,0 -0.596,-0.033 -0.837,-0.099 a 3.65,3.65 0 0 1 -0.631,-0.23 2.074,2.074 0 0 1 -0.451,-0.286 c -0.12,-0.104 -0.219,-0.2 -0.295,-0.287 l 0.64,-1.05 c 0.065,0.066 0.144,0.142 0.237,0.23 a 2.152,2.152 0 0 0 0.779,0.459 c 0.164,0.055 0.355,0.082 0.574,0.082 0.393,0 0.694,-0.088 0.902,-0.263 a 0.807,0.807 0 0 0 0.311,-0.64 1.43,1.43 0 0 0 -0.073,-0.483 1.108,1.108 0 0 0 -0.222,-0.369 2.062,2.062 0 0 0 -0.36,-0.311 19.104,19.104 0 0 0 -0.492,-0.328 l -0.492,-0.312 c -0.492,-0.317 -0.878,-0.65 -1.156,-1 -0.28,-0.35 -0.419,-0.798 -0.419,-1.345 0,-0.295 0.058,-0.566 0.173,-0.812 a 1.91,1.91 0 0 1 0.483,-0.64 c 0.208,-0.18 0.451,-0.322 0.73,-0.426 a 2.54,2.54 0 0 1 0.894,-0.155 3,3 0 0 1 0.787,0.09 2.355,2.355 0 0 1 0.96,0.508 c 0.103,0.093 0.188,0.172 0.253,0.238 z m 6.724,-0.066 a 6.06,6.06 0 0 0 -0.156,-0.147 1.659,1.659 0 0 0 -0.27,-0.197 1.887,1.887 0 0 0 -0.394,-0.172 1.714,1.714 0 0 0 -0.525,-0.074 c -0.284,0 -0.55,0.052 -0.795,0.156 -0.246,0.104 -0.46,0.27 -0.64,0.5 -0.18,0.23 -0.322,0.528 -0.426,0.894 -0.104,0.366 -0.156,0.812 -0.156,1.336 0,0.58 0.047,1.066 0.14,1.46 0.092,0.393 0.22,0.708 0.385,0.943 0.164,0.235 0.363,0.404 0.599,0.508 0.234,0.104 0.494,0.156 0.778,0.156 0.405,0 0.714,-0.071 0.927,-0.213 0.213,-0.142 0.363,-0.257 0.45,-0.345 l 0.542,0.919 a 2.414,2.414 0 0 1 -0.238,0.237 2.048,2.048 0 0 1 -0.402,0.271 2.7,2.7 0 0 1 -0.598,0.221 c -0.235,0.06 -0.506,0.09 -0.812,0.09 -0.437,0 -0.847,-0.07 -1.23,-0.213 a 2.432,2.432 0 0 1 -1,-0.705 c -0.284,-0.328 -0.508,-0.754 -0.672,-1.279 -0.164,-0.525 -0.246,-1.175 -0.246,-1.951 0,-0.755 0.098,-1.394 0.295,-1.919 0.197,-0.525 0.453,-0.948 0.77,-1.27 0.318,-0.323 0.67,-0.558 1.058,-0.706 a 3.276,3.276 0 0 1 1.173,-0.221 c 0.295,0 0.555,0.027 0.779,0.082 0.224,0.054 0.415,0.123 0.574,0.205 0.158,0.082 0.29,0.169 0.393,0.262 0.104,0.093 0.189,0.172 0.254,0.238 z m 6.248,6.347 v -5.067 c 0,-0.667 -0.112,-1.146 -0.336,-1.435 -0.225,-0.29 -0.566,-0.435 -1.025,-0.435 -0.394,0 -0.722,0.099 -0.984,0.295 -0.263,0.197 -0.47,0.388 -0.623,0.574 v 6.068 h -1.329 V 34.82 l 1.329,-0.148 v 4.674 h 0.032 c 0.044,-0.066 0.112,-0.153 0.205,-0.262 0.093,-0.11 0.222,-0.22 0.386,-0.328 a 2.515,2.515 0 0 1 1.427,-0.41 c 0.688,0 1.235,0.224 1.64,0.672 0.404,0.448 0.606,1.192 0.606,2.23 v 5.166 z m 8.822,0 h -1.213 v -0.886 h -0.033 a 2.139,2.139 0 0 1 -0.631,0.648 c -0.17,0.115 -0.375,0.216 -0.615,0.303 -0.24,0.088 -0.509,0.132 -0.804,0.132 -0.35,0 -0.664,-0.052 -0.943,-0.156 a 1.715,1.715 0 0 1 -0.713,-0.5 c -0.197,-0.23 -0.347,-0.528 -0.451,-0.894 -0.104,-0.366 -0.156,-0.817 -0.156,-1.353 v -5.166 h 1.328 v 5.068 c 0,0.656 0.107,1.123 0.32,1.402 0.213,0.278 0.544,0.418 0.992,0.418 0.383,0 0.705,-0.096 0.968,-0.287 0.262,-0.191 0.47,-0.38 0.623,-0.566 v -6.035 h 1.328 z m 6.33,0 v -5.067 c 0,-0.667 -0.112,-1.146 -0.336,-1.435 -0.224,-0.29 -0.566,-0.435 -1.025,-0.435 -0.393,0 -0.721,0.099 -0.984,0.295 -0.262,0.197 -0.47,0.388 -0.623,0.574 v 6.068 h -1.328 v -7.872 h 1.213 v 0.886 h 0.033 a 2.054,2.054 0 0 1 0.64,-0.648 3.01,3.01 0 0 1 0.623,-0.303 c 0.24,-0.088 0.514,-0.131 0.82,-0.131 0.35,0 0.666,0.052 0.95,0.155 0.285,0.104 0.526,0.271 0.722,0.5 0.197,0.23 0.35,0.528 0.46,0.894 0.109,0.367 0.163,0.818 0.163,1.353 v 5.166 z m 8.954,-6.838 h -0.984 c 0.251,0.415 0.377,0.885 0.377,1.41 0,0.415 -0.068,0.79 -0.205,1.123 a 2.363,2.363 0 0 1 -0.574,0.845 c -0.246,0.23 -0.536,0.404 -0.869,0.524 -0.333,0.12 -0.691,0.18 -1.074,0.18 h -0.213 a 1.52,1.52 0 0 1 -0.213,-0.016 1.601,1.601 0 0 0 -0.41,0.263 0.593,0.593 0 0 0 -0.214,0.475 c 0,0.164 0.063,0.298 0.19,0.402 0.125,0.104 0.33,0.156 0.614,0.156 h 1 a 4.4,4.4 0 0 1 1.033,0.115 c 0.317,0.076 0.594,0.2 0.829,0.369 0.235,0.17 0.418,0.385 0.549,0.647 0.131,0.263 0.197,0.58 0.197,0.952 0,0.426 -0.09,0.814 -0.27,1.164 -0.181,0.35 -0.435,0.65 -0.763,0.902 a 3.712,3.712 0 0 1 -1.198,0.59 5.43,5.43 0 0 1 -1.574,0.213 c -0.842,0 -1.481,-0.183 -1.918,-0.549 -0.438,-0.366 -0.656,-0.894 -0.656,-1.583 0,-0.295 0.052,-0.549 0.155,-0.762 0.104,-0.213 0.227,-0.4 0.37,-0.558 0.141,-0.158 0.286,-0.284 0.434,-0.377 l 0.352,-0.221 v -0.033 c -0.338,-0.251 -0.508,-0.618 -0.508,-1.099 0,-0.207 0.041,-0.388 0.123,-0.54 0.082,-0.154 0.175,-0.28 0.279,-0.378 0.104,-0.098 0.208,-0.178 0.312,-0.238 a 2.04,2.04 0 0 1 0.237,-0.123 v -0.033 a 2.22,2.22 0 0 1 -0.975,-0.877 c -0.246,-0.399 -0.37,-0.91 -0.37,-1.533 0,-0.437 0.072,-0.823 0.214,-1.156 a 2.34,2.34 0 0 1 0.574,-0.828 c 0.24,-0.22 0.522,-0.383 0.844,-0.492 0.323,-0.11 0.67,-0.164 1.042,-0.164 a 2.8,2.8 0 0 1 1.05,0.196 h 2.393 z m -3.657,6.592 c -0.23,0 -0.432,-0.017 -0.607,-0.05 -0.098,0.055 -0.194,0.12 -0.287,0.197 -0.093,0.077 -0.177,0.17 -0.254,0.28 -0.076,0.108 -0.14,0.237 -0.188,0.385 -0.05,0.147 -0.074,0.32 -0.074,0.516 0,0.842 0.464,1.263 1.394,1.263 0.798,0 1.388,-0.156 1.77,-0.467 0.383,-0.312 0.575,-0.67 0.575,-1.075 0,-0.382 -0.12,-0.653 -0.361,-0.811 -0.24,-0.159 -0.563,-0.238 -0.968,-0.238 z m 1.755,-5.182 c 0,-0.569 -0.134,-0.973 -0.402,-1.214 a 1.367,1.367 0 0 0 -0.943,-0.36 c -0.383,0 -0.71,0.12 -0.984,0.36 -0.273,0.24 -0.41,0.645 -0.41,1.214 0,0.568 0.137,0.973 0.41,1.213 0.273,0.24 0.59,0.361 0.951,0.361 0.383,0 0.708,-0.12 0.976,-0.36 0.268,-0.241 0.402,-0.646 0.402,-1.214 z M 19.43,12.43 c 0.038,-0.308 0.06,-0.626 0.06,-0.951 0,-0.178 0.001,-0.385 -0.021,-0.62 2.746,-0.038 5.155,-2.017 5.155,-4.292 0,-1.157 -0.755,-2.03 -1.18,-2.553 0.094,-0.02 0.19,-0.043 0.289,-0.066 0.402,0.35 1.543,1.593 1.543,3.162 0,2.73 -2.728,5.264 -5.846,5.32 M 16.663,2.924 A 1.873,1.873 0 0 0 16.32,2.107 c 0.01,-0.279 0.124,-0.545 0.572,-0.326 -0.242,0.248 -0.055,0.688 -0.055,0.688 0,0 0.496,-0.23 0.393,-0.558 0.736,0.176 0.206,1.164 -0.567,1.013 M 16.025,4.325 A 2.877,2.877 0 0 0 15.452,3.183 C 15.209,2.896 14.808,2.556 14.268,2.556 c -0.246,0 -0.66,0.116 -0.923,0.227 -0.098,-0.179 -0.29,-0.61 -0.29,-0.805 0,-0.2 0.338,-0.402 0.985,-0.402 1.422,0 2.27,0.642 2.27,1.72 0,0.379 -0.15,0.723 -0.285,1.03 m 3.652,18.327 a 0.84,0.84 0 0 1 0.342,0.062 c 0.41,1.114 1.987,3.215 2.053,3.305 l 0.014,0.019 0.023,-0.005 c 0.388,-0.062 1.376,-0.211 2.202,-0.211 h 0.02 c 0.09,0 0.191,0 0.256,0.063 0.054,0.054 0.08,0.148 0.08,0.281 0,0.206 -0.087,0.557 -0.192,0.707 -0.289,-0.315 -0.759,-0.457 -1.511,-0.457 -0.226,0 -0.494,0.067 -0.638,0.106 l -0.06,0.012 -0.067,0.018 0.434,0.434 c 0.67,0.67 1.248,1.247 1.248,1.632 0,0.231 -0.226,0.533 -0.432,0.667 -0.046,-0.704 -0.757,-1.647 -1.45,-2.175 l -0.06,-0.044 -0.01,0.248 c -0.01,0.168 -0.025,0.42 -0.025,0.69 0,1.341 -0.136,1.545 -0.6,1.545 a 0.848,0.848 0 0 1 -0.249,-0.045 c 0.262,-0.324 0.365,-0.751 0.365,-1.5 L 21.416,27.658 21.412,27.38 c 0,-0.307 0.032,-0.535 0.057,-0.718 l 0.013,-0.103 -0.073,-0.01 a 7.522,7.522 0 0 0 -0.93,-0.086 c -0.663,0 -1.112,0.061 -1.437,0.367 -0.215,-0.174 -0.436,-0.473 -0.436,-0.661 0,-0.28 0.174,-0.302 0.403,-0.302 0.115,0 0.223,0.016 0.372,0.034 0.285,0.043 0.714,0.106 1.597,0.106 h 0.055 l -0.018,-0.053 c -0.223,-0.641 -0.838,-1.573 -1.823,-2.77 0.088,-0.321 0.175,-0.53 0.485,-0.53 m -8.508,3.3 -0.018,0.053 h 0.055 c 0.882,0 1.312,-0.063 1.597,-0.106 0.15,-0.018 0.257,-0.034 0.372,-0.034 0.228,0 0.403,0.022 0.403,0.302 0,0.188 -0.22,0.487 -0.434,0.661 -0.327,-0.306 -0.776,-0.367 -1.438,-0.367 -0.31,0 -0.715,0.056 -0.931,0.086 l -0.035,0.004 -0.038,0.006 0.012,0.103 c 0.026,0.183 0.058,0.41 0.058,0.718 l -0.004,0.278 -0.004,0.346 c 0,0.75 0.103,1.177 0.366,1.5 a 0.865,0.865 0 0 1 -0.249,0.046 c -0.466,0 -0.6,-0.204 -0.6,-1.544 0,-0.27 -0.015,-0.523 -0.024,-0.69 l -0.014,-0.25 -0.058,0.045 C 9.493,27.639 8.78,28.581 8.737,29.286 8.529,29.152 8.303,28.85 8.303,28.619 c 0,-0.385 0.578,-0.962 1.248,-1.632 l 0.385,-0.384 0.05,-0.05 -0.127,-0.03 a 2.703,2.703 0 0 0 -0.64,-0.106 c -0.75,0 -1.22,0.142 -1.51,0.457 -0.105,-0.15 -0.192,-0.501 -0.192,-0.707 0,-0.133 0.026,-0.227 0.08,-0.28 0.065,-0.064 0.167,-0.064 0.256,-0.064 h 0.02 c 0.827,0 1.816,0.149 2.202,0.21 l 0.023,0.006 0.014,-0.02 c 0.068,-0.089 1.644,-2.19 2.055,-3.304 a 0.823,0.823 0 0 1 0.34,-0.062 c 0.31,0 0.397,0.21 0.487,0.53 -0.987,1.198 -1.602,2.13 -1.825,2.77 M 6.909,7.11 C 6.909,5.54 8.051,4.298 8.453,3.948 8.549,3.971 8.646,3.993 8.743,4.014 8.315,4.536 7.56,5.41 7.56,6.567 c 0,2.299 2.456,4.294 5.237,4.294 a 6.832,6.832 0 0 0 -0.028,0.618 c 0,0.339 0.02,0.654 0.052,0.952 C 9.677,12.411 6.908,9.859 6.908,7.111 M 28,11.95 c 1.412,2.231 2.515,2.194 4.183,2.194 -1.38,-1.057 -2.292,-2.411 -2.727,-3.103 L 26.879,6.918 a 6.099,6.099 0 0 0 -1.896,-3.35 c 0.332,-0.126 0.607,-0.258 0.773,-0.383 -1.683,0 -3.35,-0.855 -4.268,-0.855 -0.59,0 -0.969,0.353 -0.969,0.819 0.037,0.52 0.572,1.047 1.56,1.047 0.223,0 0.51,-0.029 0.824,-0.081 0.535,0.745 0.966,1.42 0.966,2.381 0,1.805 -2.158,3.212 -4.337,3.212 -0.124,0 -0.24,-0.005 -0.363,-0.014 -0.197,-0.447 -0.855,-1.198 -0.855,-2.053 0,-1.434 0.936,-2.606 0.936,-4.026 0,-0.884 -0.43,-1.43 -0.595,-1.658 0.267,-0.248 0.56,-0.553 0.628,-0.762 C 19.127,1.262 18.943,1.27 18.673,1.27 17.63,1.271 16.779,1 15.949,1 c -0.474,0 -0.6,0.146 -0.6,0.285 0,0.051 0.006,0.104 0.02,0.128 A 2.794,2.794 0 0 0 14.83,1.263 4.208,4.208 0 0 0 14.04,1.193 c -1.008,0 -1.367,0.423 -1.367,0.785 0,0.306 0.242,0.866 0.516,1.293 0.393,-0.198 0.865,-0.332 1.08,-0.332 0.536,0 1.012,0.51 1.264,1.113 -0.36,0.044 -0.429,0.06 -0.792,0.06 -0.983,0 -1.651,-0.352 -1.79,-0.352 -0.012,0 -0.038,0.007 -0.038,0.03 0,0.137 0.279,0.5 0.827,0.7 0.724,0.265 1.807,0.375 1.987,0.406 0,0.031 -0.183,0.373 -0.388,0.44 A 0.223,0.223 0 0 1 15.21,5.339 C 14.455,5.191 14.244,5.127 13.287,4.763 13.257,4.753 13.24,4.77 13.24,4.801 c 0,0.379 0.981,1.215 1.86,1.536 -0.734,0.937 -1.65,1.896 -2.083,3.358 a 5.349,5.349 0 0 1 -0.364,0.014 c -2.179,0 -4.337,-1.407 -4.337,-3.212 0,-0.962 0.431,-1.636 0.966,-2.381 0.314,0.052 0.6,0.081 0.824,0.081 0.988,0 1.523,-0.528 1.562,-1.047 0,-0.466 -0.38,-0.819 -0.97,-0.819 -0.918,0 -2.584,0.855 -4.27,0.855 0.167,0.125 0.443,0.257 0.773,0.383 A 6.105,6.105 0 0 0 5.306,6.919 L 2.73,11.042 c -0.435,0.692 -1.35,2.046 -2.729,3.103 1.667,0 2.773,0.037 4.184,-2.194 L 5.506,9.837 c 0.098,0.275 0.218,0.542 0.36,0.804 l -2.628,4.204 c -0.437,0.697 -1.344,2.04 -2.729,3.104 1.668,0 2.773,0.038 4.184,-2.192 l 2.262,-3.621 c 0.17,0.18 0.347,0.357 0.534,0.525 l -3.191,5.11 c -0.438,0.698 -1.34,2.038 -2.727,3.1 1.667,0 2.772,0.04 4.182,-2.19 l 3.112,-4.982 c 0.205,0.13 0.414,0.255 0.632,0.373 l -3.8,6.079 c -0.437,0.698 -1.339,2.034 -2.726,3.1 1.667,0 2.772,0.039 4.183,-2.19 L 11.065,14.8 c 0.232,0.088 0.466,0.173 0.704,0.25 L 7.35,22.122 c -0.431,0.689 -1.353,2.049 -2.726,3.1 1.666,0 2.773,0.039 4.183,-2.19 l 4.71,-7.539 c 0.048,0.009 0.095,0.015 0.142,0.025 0.128,0.408 0.218,0.788 0.218,1.167 0,2.37 -1.555,4.461 -3.42,6.076 0.12,0.052 0.327,0.07 0.519,0.07 0.386,0 0.634,-0.02 0.809,-0.05 -0.433,0.982 -1.362,2.251 -1.83,2.907 -0.61,-0.11 -1.5,-0.196 -2.081,-0.196 -0.61,0 -0.678,0.356 -0.678,0.674 0,0.553 0.259,0.992 0.56,1.238 0.112,-0.283 0.34,-0.66 1.464,-0.66 0.022,0 0.06,0.002 0.113,0.006 -0.328,0.366 -1.357,1.198 -1.357,1.868 0,0.443 0.486,1.11 1.127,1.11 C 9.066,29.584 9.07,29.453 9.07,29.354 c 0,-0.543 0.48,-1.179 0.887,-1.622 -0.012,0.132 -0.005,0.118 -0.005,0.273 0,1.282 0.116,1.872 0.93,1.872 0.4,0 0.675,-0.219 0.77,-0.285 -0.529,-0.486 -0.556,-0.87 -0.556,-1.589 l 0.005,-0.623 a 3.495,3.495 0 0 0 -0.027,-0.54 c 0.29,-0.04 0.409,-0.04 0.633,-0.04 0,0 1.157,-0.092 1.436,0.51 0.315,-0.288 0.77,-0.695 0.77,-1.142 0,-0.297 -0.14,-0.632 -0.737,-0.632 -0.226,0 -0.935,0.138 -1.53,0.138 0.16,-0.354 0.87,-1.393 1.486,-2.147 0.094,0.292 0.239,0.608 0.561,0.867 0.046,-0.485 0.33,-2.019 1.088,-2.916 0.088,0.606 0.206,1.228 0.206,2.538 0,3.19 -0.766,5.544 -2.393,5.994 0.212,0.368 0.66,0.7 1.124,0.7 0.595,0 0.92,-0.674 1.25,-1.31 0.172,0.469 0.648,1.618 1.124,1.618 0.477,0 0.954,-1.149 1.126,-1.618 0.33,0.636 0.655,1.31 1.25,1.31 0.465,0 0.912,-0.332 1.125,-0.7 -1.628,-0.45 -2.395,-2.805 -2.395,-5.994 0,-1.31 0.118,-1.932 0.206,-2.538 0.76,0.897 1.045,2.431 1.088,2.916 0.323,-0.259 0.47,-0.575 0.562,-0.867 0.614,0.754 1.326,1.793 1.485,2.147 -0.594,0 -1.305,-0.138 -1.53,-0.138 -0.595,0 -0.735,0.335 -0.735,0.632 0,0.447 0.456,0.854 0.77,1.142 0.277,-0.602 1.436,-0.51 1.436,-0.51 0.223,0 0.342,0 0.634,0.04 a 3.331,3.331 0 0 0 -0.028,0.54 l 0.005,0.623 c 0,0.72 -0.028,1.103 -0.557,1.589 0.095,0.066 0.37,0.285 0.77,0.285 0.815,0 0.932,-0.59 0.932,-1.872 0,-0.155 0.004,-0.141 -0.007,-0.273 0.406,0.443 0.887,1.079 0.887,1.622 0,0.099 0.006,0.23 -0.034,0.373 0.642,0 1.13,-0.666 1.13,-1.11 0,-0.669 -1.03,-1.501 -1.36,-1.867 0.053,-0.004 0.092,-0.006 0.113,-0.006 1.126,0 1.353,0.377 1.466,0.66 a 1.6,1.6 0 0 0 0.56,-1.238 c 0,-0.318 -0.07,-0.674 -0.679,-0.674 -0.581,0 -1.469,0.086 -2.08,0.196 -0.47,-0.656 -1.396,-1.925 -1.83,-2.908 0.175,0.03 0.424,0.051 0.808,0.051 0.193,0 0.4,-0.018 0.52,-0.07 -1.866,-1.615 -3.42,-3.707 -3.42,-6.076 0,-0.379 0.09,-0.759 0.217,-1.167 0.046,-0.01 0.095,-0.016 0.142,-0.025 l 4.71,7.538 c 1.41,2.23 2.517,2.191 4.183,2.191 -1.373,-1.051 -2.295,-2.411 -2.726,-3.1 l -4.42,-7.074 c 0.24,-0.076 0.475,-0.161 0.706,-0.25 l 3.91,6.261 c 1.41,2.23 2.516,2.191 4.184,2.191 -1.388,-1.066 -2.29,-2.402 -2.728,-3.1 L 22.69,14.071 c 0.215,-0.118 0.426,-0.244 0.63,-0.373 l 3.113,4.981 c 1.411,2.231 2.515,2.191 4.183,2.191 -1.388,-1.062 -2.288,-2.402 -2.728,-3.1 l -3.191,-5.11 c 0.187,-0.168 0.366,-0.345 0.533,-0.525 l 2.264,3.621 c 1.41,2.23 2.515,2.192 4.183,2.192 -1.387,-1.064 -2.29,-2.407 -2.729,-3.104 L 26.322,10.64 c 0.14,-0.262 0.26,-0.53 0.36,-0.804 z M 45.375,29.878 H 40.552 V 2.318 h 4.823 z" />
        <path
           style="fill:#ff0000"
           inkscape:connector-curvature="0"
           id="path14"
           d="M 45.375,57.44 H 40.552 V 29.877 h 4.823 z" />
        <path
           style="fill:#ffcc00"
           inkscape:connector-curvature="0"
           id="path16"
           d="M 45.375,85 H 40.552 V 57.44 h 4.823 z" />
      </g>
    </g>
  </g>
  <rect
     style="opacity:1;vector-effect:none;fill:none;fill-opacity:1;stroke:none;stroke-width:0.40000001;stroke-linecap:butt;stroke-linejoin:miter;stroke-miterlimit:4;stroke-dasharray:none;stroke-dashoffset:0;stroke-opacity:1"
     id="rect36"
     width="170.07921"
     height="94.396042"
     x="-0.53902477"
     y="-3.1584177" />
</svg>
