<?xml version="1.0" encoding="UTF-8" standalone="no"?>
<svg
   width="1106.0632"
   height="432.43033"
   overflow="hidden"
   version="1.1"
   id="svg200"
   style="overflow:hidden"
   xmlns="http://www.w3.org/2000/svg"
   xmlns:svg="http://www.w3.org/2000/svg"
   xmlns:rdf="http://www.w3.org/1999/02/22-rdf-syntax-ns#"
   xmlns:cc="http://creativecommons.org/ns#"
   xmlns:dc="http://purl.org/dc/elements/1.1/">
  <metadata
     id="metadata204">
    <rdf:RDF>
      <cc:Work
         rdf:about="">
        <dc:format>image/svg+xml</dc:format>
        <dc:type
           rdf:resource="http://purl.org/dc/dcmitype/StillImage" />
        <dc:title />
      </cc:Work>
    </rdf:RDF>
  </metadata>
  <defs
     id="defs40">
    <clipPath
       id="clip1">
      <rect
         x="771"
         y="78"
         width="334"
         height="202"
         id="rect13" />
    </clipPath>
    <clipPath
       id="clip2">
      <rect
         x="526"
         y="392"
         width="246"
         height="202"
         id="rect16" />
    </clipPath>
    <clipPath
       id="clip3">
      <path
         d="m 565.403,260.208 -7.824,8.628 v 0 c -4.576,-1.151 -9.386,-1.065 -13.936,0.25 l -8.098,-8.371 -7.144,4.262 3.521,11.103 c -3.317,3.379 -5.677,7.571 -6.838,12.145 l -11.309,2.788 0.089,8.234 11.367,2.543 c 1.259,4.53 3.709,8.636 7.098,11.895 l -3.161,11.211 7.205,3.989 7.824,-8.629 c 4.576,1.151 9.386,1.065 13.936,-0.249 l 8.098,8.371 7.144,-4.263 -3.521,-11.102 c 3.317,-3.38 5.677,-7.572 6.838,-12.145 l 11.309,-2.788 -0.089,-8.235 -11.367,-2.542 c -1.259,-4.531 -3.709,-8.637 -7.098,-11.896 l 3.161,-11.21 z M 1.90735e-5,1.07288e-5 H 1280 V 720 H 1.90735e-5 Z"
         id="path19"
         style="clip-rule:evenodd;fill-rule:evenodd" />
    </clipPath>
    <clipPath
       id="clip6">
      <path
         d="m 584.536,322.713 -5.808,0.419 -1.289,8.051 c -3.137,1.07 -5.931,2.95 -8.095,5.446 l -7.949,-1.813 -2.534,5.179 6.31,5.164 c -0.638,3.229 -0.396,6.567 0.698,9.671 l -5.501,6.017 3.252,4.76 7.606,-2.936 c 2.5,2.159 5.535,3.617 8.794,4.225 l 2.433,7.782 5.807,-0.419 1.289,-8.051 c 3.138,-1.071 5.932,-2.95 8.095,-5.446 l 7.95,1.812 2.533,-5.178 -6.309,-5.164 c 0.637,-3.229 0.396,-6.567 -0.699,-9.671 l 5.501,-6.018 -3.251,-4.76 -7.606,2.937 c -2.5,-2.159 -5.536,-3.617 -8.794,-4.226 z M 1.90735e-5,1.07288e-5 H 1280 V 720 H 1.90735e-5 Z"
         id="path26"
         style="clip-rule:evenodd;fill-rule:evenodd" />
    </clipPath>
    <clipPath
       id="clip9">
      <path
         d="m 522.089,325.271 -6.36,1.961 0.634,9.296 c -3.218,1.999 -5.846,4.81 -7.614,8.145 l -9.318,0.025 -1.491,6.418 8.354,4.129 c 0.12,3.759 1.247,7.414 3.264,10.589 l -4.579,8.116 4.844,4.464 7.715,-5.225 c 3.339,1.762 7.094,2.606 10.879,2.445 l 4.71,8.041 6.359,-1.961 -0.634,-9.296 c 3.218,-1.998 5.847,-4.81 7.615,-8.145 l 9.318,-0.025 1.49,-6.418 -8.353,-4.128 c -0.121,-3.76 -1.248,-7.415 -3.265,-10.59 l 4.58,-8.116 -4.844,-4.464 -7.716,5.225 v 0 c -3.339,-1.762 -7.094,-2.605 -10.879,-2.445 z M 1.90735e-5,1.07288e-5 H 1280 V 720 H 1.90735e-5 Z"
         id="path33"
         style="clip-rule:evenodd;fill-rule:evenodd" />
    </clipPath>
    <clipPath
       id="clip11">
      <path
         d="m 522.089,325.271 -6.36,1.961 0.634,9.296 c -3.218,1.999 -5.846,4.81 -7.614,8.145 l -9.318,0.025 -1.491,6.418 8.354,4.129 c 0.12,3.759 1.247,7.414 3.264,10.589 l -4.579,8.116 4.844,4.464 7.715,-5.225 c 3.339,1.762 7.094,2.606 10.879,2.445 l 4.71,8.041 6.359,-1.961 -0.634,-9.296 c 3.218,-1.998 5.847,-4.81 7.615,-8.145 l 9.318,-0.025 1.49,-6.418 -8.353,-4.128 c -0.121,-3.76 -1.248,-7.415 -3.265,-10.59 l 4.58,-8.116 -4.844,-4.464 -7.716,5.225 v 0 c -3.339,-1.762 -7.094,-2.605 -10.879,-2.445 z M 1.90735e-5,1.07288e-5 H 1280 V 720 H 1.90735e-5 Z"
         id="path37"
         style="clip-rule:evenodd;fill-rule:evenodd" />
    </clipPath>
  </defs>
  <g
     id="g729"
     transform="translate(12.67653,-120.06833)">
    <g
       id="g642">
      <path
         style="fill:#7f7f7f;fill-rule:evenodd"
         id="path46"
         d="M -12.009869,120.735 H 163.362 v 39.03 H -12.009869 Z" />
      <path
         style="fill:#7f7f7f;fill-rule:evenodd"
         id="path48"
         d="m 163.362,120.735 h 175.372 v 39.03 H 163.362 Z" />
      <path
         style="fill:#7f7f7f;fill-rule:evenodd"
         id="path50"
         d="m 338.734,120.735 h 175.372 v 39.03 H 338.734 Z" />
      <path
         style="fill:#7f7f7f;fill-rule:evenodd"
         id="path52"
         d="m 514.106,120.735 h 245.289 v 39.03 H 514.106 Z" />
      <path
         style="fill:#7f7f7f;fill-rule:evenodd"
         id="path54"
         d="m 759.395,120.735 h 333.325 v 39.03 H 759.395 Z" />
      <path
         style="fill:#ffffff;fill-rule:evenodd"
         id="path56"
         d="M -12.009869,159.765 H 163.362 v 39.571 H -12.009869 Z" />
      <path
         style="fill:#ffffff;fill-rule:evenodd"
         id="path58"
         d="m 163.362,159.765 h 175.372 v 39.571 H 163.362 Z" />
      <path
         style="fill:#ffffff;fill-rule:evenodd"
         id="path60"
         d="m 338.734,159.765 h 175.372 v 39.571 H 338.734 Z" />
      <path
         style="fill:#ffffff;fill-rule:evenodd"
         id="path62"
         d="m 514.106,159.765 h 245.289 v 39.571 H 514.106 Z" />
      <path
         style="fill:#ffffff;fill-rule:evenodd"
         id="path64"
         d="m 759.395,159.765 h 333.325 v 39.571 H 759.395 Z" />
      <path
         style="fill:none;fill-rule:evenodd;stroke:#000000;stroke-width:1.33333;stroke-linejoin:round;stroke-miterlimit:10"
         id="path66"
         stroke-miterlimit="10"
         d="m 163.362,120.069 v 79.934" />
      <path
         style="fill:none;fill-rule:evenodd;stroke:#000000;stroke-width:1.33333;stroke-linejoin:round;stroke-miterlimit:10"
         id="path68"
         stroke-miterlimit="10"
         d="m 338.734,120.069 v 79.934" />
      <path
         style="fill:none;fill-rule:evenodd;stroke:#000000;stroke-width:1.33333;stroke-linejoin:round;stroke-miterlimit:10"
         id="path70"
         stroke-miterlimit="10"
         d="m 514.106,120.069 v 79.934" />
      <path
         style="fill:none;fill-rule:evenodd;stroke:#000000;stroke-width:1.33333;stroke-linejoin:round;stroke-miterlimit:10"
         id="path72"
         stroke-miterlimit="10"
         d="m 759.395,120.069 v 79.934" />
      <path
         style="fill:none;fill-rule:evenodd;stroke:#000000;stroke-width:1.33333;stroke-linejoin:round;stroke-miterlimit:10"
         id="path74"
         stroke-miterlimit="10"
         d="M -12.676535,159.765 H 1093.38" />
      <path
         style="fill:none;fill-rule:evenodd;stroke:#000000;stroke-width:1.33333;stroke-linejoin:round;stroke-miterlimit:10"
         id="path76"
         stroke-miterlimit="10"
         d="m -12.009869,120.069 v 79.934" />
      <path
         style="fill:none;fill-rule:evenodd;stroke:#000000;stroke-width:1.33333;stroke-linejoin:round;stroke-miterlimit:10"
         id="path78"
         stroke-miterlimit="10"
         d="m 1092.72,120.069 v 79.934" />
      <path
         style="fill:none;fill-rule:evenodd;stroke:#000000;stroke-width:1.33333;stroke-linejoin:round;stroke-miterlimit:10"
         id="path80"
         stroke-miterlimit="10"
         d="M -12.676535,120.735 H 1093.38" />
      <path
         style="fill:none;fill-rule:evenodd;stroke:#000000;stroke-width:1.33333;stroke-linejoin:round;stroke-miterlimit:10"
         id="path82"
         stroke-miterlimit="10"
         d="M -12.676535,199.336 H 1093.38" />
      <text
         y="148"
         x="40.925999"
         style="font-weight:700;font-size:24px;font-family:Calibri, Calibri_MSFontService, sans-serif;fill:#ffffff"
         id="text84"
         font-size="24"
         font-weight="700">Sender</text>
      <text
         y="148"
         x="197.351"
         style="font-weight:700;font-size:24px;font-family:Calibri, Calibri_MSFontService, sans-serif;fill:#ffffff"
         id="text86"
         font-size="24"
         font-weight="700">Empfänger</text>
      <text
         y="148"
         x="378.66"
         style="font-weight:700;font-size:24px;font-family:Calibri, Calibri_MSFontService, sans-serif;fill:#ffffff"
         id="text88"
         font-size="24"
         font-weight="700">Zeitpunkt</text>
      <text
         y="148"
         x="532.591"
         style="font-weight:700;font-size:24px;font-family:Calibri, Calibri_MSFontService, sans-serif;fill:#ffffff"
         id="text90"
         font-size="24"
         font-weight="700">Art der Unterhaltung</text>
      <text
         y="148"
         x="878.16602"
         style="font-weight:700;font-size:24px;font-family:Calibri, Calibri_MSFontService, sans-serif;fill:#ffffff"
         id="text92"
         font-size="24"
         font-weight="700">Nachricht</text>
      <text
         y="187"
         x="26.259399"
         style="font-style:italic;font-weight:400;font-size:24px;font-family:Calibri, Calibri_MSFontService, sans-serif"
         id="text94"
         font-size="24"
         font-weight="400"
         font-style="italic">Tim Meier</text>
      <text
         y="187"
         x="205.631"
         style="font-style:italic;font-weight:400;font-size:24px;font-family:Calibri, Calibri_MSFontService, sans-serif"
         id="text96"
         font-size="24"
         font-weight="400"
         font-style="italic">Maria M.</text>
      <text
         y="187"
         x="371.67001"
         style="font-style:italic;font-weight:400;font-size:24px;font-family:Calibri, Calibri_MSFontService, sans-serif"
         id="text98"
         font-size="24"
         font-weight="400"
         font-style="italic">121348134</text>
      <text
         y="187"
         x="599.37701"
         style="font-style:italic;font-weight:400;font-size:24px;font-family:Calibri, Calibri_MSFontService, sans-serif"
         id="text100"
         font-size="24"
         font-weight="400"
         font-style="italic">Regulär</text>
      <g
         transform="translate(-12)"
         id="g104"
         clip-path="url(#clip1)">
        <text
           style="font-style:italic;font-weight:400;font-size:24px;font-family:Calibri, Calibri_MSFontService, sans-serif"
           id="text102"
           transform="translate(782.723,187)"
           font-size="24"
           font-weight="400"
           font-style="italic">„Hallo, Maria! Wie geht es dir?“</text>
      </g>
      <g
         id="g1936">
        <path
           d="M -11.329764,473.965 H 163.991 v 38.933 H -11.329764 Z"
           id="path106"
           style="fill:#548235;fill-rule:evenodd" />
        <path
           d="m 163.991,473.965 h 175.321 v 38.933 H 163.991 Z"
           id="path108"
           style="fill:#548235;fill-rule:evenodd" />
        <path
           d="m 339.312,473.965 h 175.32 v 38.933 h -175.32 z"
           id="path110"
           style="fill:#548235;fill-rule:evenodd" />
        <path
           d="m 514.632,473.965 h 245.219 v 38.933 H 514.632 Z"
           id="path112"
           style="fill:#548235;fill-rule:evenodd" />
        <path
           d="m 759.851,473.965 h 332.189 v 38.933 H 759.851 Z"
           id="path114"
           style="fill:#548235;fill-rule:evenodd" />
        <path
           d="M -11.329764,512.898 H 163.991 v 38.934 H -11.329764 Z"
           id="path116"
           style="fill:#ffffff;fill-rule:evenodd" />
        <path
           d="m 163.991,512.898 h 175.321 v 38.934 H 163.991 Z"
           id="path118"
           style="fill:#ffffff;fill-rule:evenodd" />
        <path
           d="m 339.312,512.898 h 175.32 v 38.934 h -175.32 z"
           id="path120"
           style="fill:#ffffff;fill-rule:evenodd" />
        <path
           d="m 514.632,512.898 h 245.219 v 38.934 H 514.632 Z"
           id="path122"
           style="fill:#ffffff;fill-rule:evenodd" />
        <path
           d="m 759.851,512.898 h 332.189 v 38.934 H 759.851 Z"
           id="path124"
           style="fill:#ffffff;fill-rule:evenodd" />
        <path
           d="m 163.991,473.298 v 79.2"
           stroke-miterlimit="10"
           id="path126"
           style="fill:none;fill-rule:evenodd;stroke:#000000;stroke-width:1.33333;stroke-linejoin:round;stroke-miterlimit:10" />
        <path
           d="m 339.312,473.298 v 79.2"
           stroke-miterlimit="10"
           id="path128"
           style="fill:none;fill-rule:evenodd;stroke:#000000;stroke-width:1.33333;stroke-linejoin:round;stroke-miterlimit:10" />
        <path
           d="m 514.632,473.298 v 79.2"
           stroke-miterlimit="10"
           id="path130"
           style="fill:none;fill-rule:evenodd;stroke:#000000;stroke-width:1.33333;stroke-linejoin:round;stroke-miterlimit:10" />
        <path
           d="m 759.851,473.298 v 79.2"
           stroke-miterlimit="10"
           id="path132"
           style="fill:none;fill-rule:evenodd;stroke:#000000;stroke-width:1.33333;stroke-linejoin:round;stroke-miterlimit:10" />
        <path
           d="M -11.99643,512.898 H 1092.7"
           stroke-miterlimit="10"
           id="path134"
           style="fill:none;fill-rule:evenodd;stroke:#000000;stroke-width:1.33333;stroke-linejoin:round;stroke-miterlimit:10" />
        <path
           d="m -11.329764,473.298 v 79.2"
           stroke-miterlimit="10"
           id="path136"
           style="fill:none;fill-rule:evenodd;stroke:#000000;stroke-width:1.33333;stroke-linejoin:round;stroke-miterlimit:10" />
        <path
           d="m 1092.04,473.298 v 79.2"
           stroke-miterlimit="10"
           id="path138"
           style="fill:none;fill-rule:evenodd;stroke:#000000;stroke-width:1.33333;stroke-linejoin:round;stroke-miterlimit:10" />
        <path
           d="M -11.99643,473.965 H 1092.7"
           stroke-miterlimit="10"
           id="path140"
           style="fill:none;fill-rule:evenodd;stroke:#000000;stroke-width:1.33333;stroke-linejoin:round;stroke-miterlimit:10" />
        <path
           d="M -11.99643,551.832 H 1092.7"
           stroke-miterlimit="10"
           id="path142"
           style="fill:none;fill-rule:evenodd;stroke:#000000;stroke-width:1.33333;stroke-linejoin:round;stroke-miterlimit:10" />
        <text
           font-weight="700"
           font-size="24"
           id="text144"
           style="font-weight:700;font-size:24px;font-family:Calibri, Calibri_MSFontService, sans-serif;fill:#ffffff"
           x="41.580601"
           y="501">Sender</text>
        <text
           font-weight="700"
           font-size="24"
           id="text146"
           style="font-weight:700;font-size:24px;font-family:Calibri, Calibri_MSFontService, sans-serif;fill:#ffffff"
           x="197.955"
           y="501">Empfänger</text>
        <text
           font-weight="700"
           font-size="24"
           id="text148"
           style="font-weight:700;font-size:24px;font-family:Calibri, Calibri_MSFontService, sans-serif;fill:#ffffff"
           x="379.21201"
           y="501">Zeitpunkt</text>
        <g
           clip-path="url(#clip2)"
           id="g152"
           transform="translate(-12)">
          <text
             font-weight="700"
             font-size="24"
             transform="translate(540.748,501)"
             id="text150"
             style="font-weight:700;font-size:24px;font-family:Calibri, Calibri_MSFontService, sans-serif;fill:#ffffff">Gruppenunterhaltung</text>
        </g>
        <text
           font-weight="700"
           font-size="24"
           id="text154"
           style="font-weight:700;font-size:24px;font-family:Calibri, Calibri_MSFontService, sans-serif;fill:#ffffff"
           x="832.797"
           y="501">Anzahl an Wörtern</text>
        <text
           font-style="italic"
           font-weight="400"
           font-size="24"
           id="text156"
           style="font-style:italic;font-weight:400;font-size:24px;font-family:Calibri, Calibri_MSFontService, sans-serif"
           x="13.9639"
           y="540">anonym1</text>
        <text
           font-style="italic"
           font-weight="400"
           font-size="24"
           id="text158"
           style="font-style:italic;font-weight:400;font-size:24px;font-family:Calibri, Calibri_MSFontService, sans-serif"
           x="189.285"
           y="540">anonym2</text>
        <text
           font-style="italic"
           font-weight="400"
           font-size="24"
           id="text160"
           style="font-style:italic;font-weight:400;font-size:24px;font-family:Calibri, Calibri_MSFontService, sans-serif"
           x="372.22198"
           y="540">121348134</text>
        <text
           font-style="italic"
           font-weight="400"
           font-size="24"
           id="text162"
           style="font-style:italic;font-weight:400;font-size:24px;font-family:Calibri, Calibri_MSFontService, sans-serif"
           x="614.82501"
           y="540">Nein</text>
        <text
           font-style="italic"
           font-weight="400"
           font-size="24"
           id="text164"
           style="font-style:italic;font-weight:400;font-size:24px;font-family:Calibri, Calibri_MSFontService, sans-serif"
           x="919.86102"
           y="540">6</text>
      </g>
      <g
         transform="translate(-12)"
         style="fill:none"
         id="g170"
         clip-path="url(#clip3)" />
      <g
         transform="translate(-12)"
         style="fill:none"
         id="g178"
         clip-path="url(#clip6)" />
      <g
         transform="translate(-12)"
         id="g184"
         clip-path="url(#clip11)" />
      <g
         transform="translate(-12)"
         style="fill:none"
         id="g186"
         clip-path="url(#clip9)" />
      <g
         id="g459">
        <path
           d="m 503.5,422.92 h 23.461 V 232.5 h 15.078 V 422.92 H 565.5 l -31,24.58 z"
           stroke-miterlimit="8"
           id="path44"
           style="fill:#bfbfbf;fill-rule:evenodd;stroke:#7f7f7f;stroke-width:1.33333;stroke-miterlimit:8" />
        <path
           d="m 540.33102,270.09619 7.824,-8.628 7.205,3.989 -3.161,11.21 c 3.389,3.259 5.839,7.365 7.098,11.896 l 11.366,2.542 0.09,8.235 -11.309,2.788 c -1.161,4.573 -3.521,8.765 -6.838,12.145 l 3.521,11.102 -7.144,4.263 -8.099,-8.371 c -4.549,1.314 -9.359,1.4 -13.935,0.249 l -7.824,8.629 -7.205,-3.989 3.161,-11.211 c -3.389,-3.259 -5.839,-7.365 -7.098,-11.895 l -11.367,-2.543 -0.089,-8.234 11.309,-2.788 c 1.161,-4.574 3.521,-8.766 6.838,-12.145 l -3.521,-11.103 7.144,-4.262 8.098,8.371 c 4.55,-1.315 9.36,-1.401 13.936,-0.25 z"
           stroke-miterlimit="8"
           id="path172"
           style="fill-rule:evenodd;stroke:#000000;stroke-width:1.33333;stroke-miterlimit:8" />
        <path
           d="m 578.51502,335.98019 7.606,-2.937 3.251,4.76 -5.501,6.018 c 1.095,3.104 1.336,6.442 0.699,9.671 l 6.309,5.164 -2.533,5.178 -7.95,-1.812 c -2.163,2.496 -4.957,4.375 -8.095,5.446 l -1.288,8.051 -5.808,0.419 -2.433,-7.782 c -3.259,-0.608 -6.294,-2.066 -8.794,-4.225 l -7.606,2.936 -3.252,-4.76 5.502,-6.017 c -1.095,-3.104 -1.336,-6.442 -0.699,-9.671 l -6.31,-5.164 2.534,-5.179 7.949,1.813 c 2.164,-2.496 4.958,-4.376 8.095,-5.446 l 1.289,-8.051 5.808,-0.42 2.433,7.782 c 3.258,0.609 6.294,2.067 8.794,4.226 z"
           stroke-miterlimit="8"
           id="path180"
           style="fill-rule:evenodd;stroke:#000000;stroke-width:1.33333;stroke-miterlimit:8" />
        <path
           d="m 520.42902,337.01719 7.716,-5.225 4.844,4.464 -4.58,8.116 c 2.017,3.175 3.144,6.83 3.265,10.59 l 8.353,4.128 -1.49,6.418 -9.318,0.025 c -1.768,3.335 -4.397,6.147 -7.615,8.145 l 0.634,9.296 -6.359,1.961 -4.71,-8.041 c -3.785,0.161 -7.54,-0.683 -10.879,-2.445 l -7.715,5.225 -4.845,-4.464 4.58,-8.116 c -2.017,-3.175 -3.144,-6.83 -3.264,-10.589 l -8.354,-4.129 1.491,-6.418 9.318,-0.025 c 1.768,-3.335 4.396,-6.146 7.614,-8.145 l -0.634,-9.296 6.36,-1.961 4.709,8.041 c 3.785,-0.16 7.54,0.683 10.879,2.445 z"
           stroke-miterlimit="8"
           id="path188"
           style="fill-rule:evenodd;stroke:#000000;stroke-width:1.33333;stroke-miterlimit:8" />
        <path
           d="m 499.25202,355.26019 c 0,-5.247 4.477,-9.5 10,-9.5 5.523,0 10,4.253 10,9.5 0,5.247 -4.477,9.5 -10,9.5 -5.523,0 -10,-4.253 -10,-9.5 z"
           stroke-miterlimit="8"
           id="path190"
           style="fill:#ffffff;fill-rule:evenodd;stroke:#ffffff;stroke-width:1.33333;stroke-miterlimit:8" />
        <path
           d="m 561.25202,349.76019 c 0,-3.866 3.134,-7 7,-7 3.866,0 7,3.134 7,7 0,3.866 -3.134,7 -7,7 -3.866,0 -7,-3.134 -7,-7 z"
           stroke-miterlimit="8"
           id="path192"
           style="fill:#ffffff;fill-rule:evenodd;stroke:#ffffff;stroke-width:1.33333;stroke-miterlimit:8" />
        <path
           d="m 520.25202,294.26019 c 0,-7.456 6.044,-13.5 13.5,-13.5 7.456,0 13.5,6.044 13.5,13.5 0,7.456 -6.044,13.5 -13.5,13.5 -7.456,0 -13.5,-6.044 -13.5,-13.5 z"
           stroke-miterlimit="8"
           id="path194"
           style="fill:#ffffff;fill-rule:evenodd;stroke:#ffffff;stroke-width:1.33333;stroke-miterlimit:8" />
      </g>
    </g>
  </g>
</svg>
