<?xml version="1.0" encoding="UTF-8"?>
<svg width="77px" height="88px" viewBox="0 0 77 88" version="1.1" xmlns="http://www.w3.org/2000/svg" xmlns:xlink="http://www.w3.org/1999/xlink">
    <!-- Generator: Sketch 52.4 (67378) - http://www.bohemiancoding.com/sketch -->
    <title>Export/Icon/Data1</title>
    <desc>Created with Sketch.</desc>
    <g id="Symbols" stroke="none" stroke-width="1" fill="none" fill-rule="evenodd">
        <g id="Pattern/Icon/Data1" fill="#ACC0E0" fill-rule="nonzero">
            <path d="M11.0346624,74.6010785 C6.89666399,76.4363511 2.3923148,75.3359033 0.0937946302,74.6010785 L0.0937946302,75.1530918 C0.0937946302,82.2181572 5.88772803,88 12.9675674,88 L57.2892084,88 C61.8869844,88 66.0249828,85.5231161 68.2300762,81.8525709 L17.8375317,66.4353634 C16.3647721,70.4714949 14.0658841,73.2244038 11.0342946,74.6008582 L11.0346624,74.6010785 Z M52.1378602,54.1405418 C52.1378602,44.2291521 60.1372548,36.153035 70.0691866,35.9704254 L70.0691866,12.8469082 C70.0691866,5.78184281 64.2752532,0 57.1954138,0 L12.8737728,0 C5.79393339,0 0,5.78184281 0,12.8469082 L0,71.4820327 C1.1961574,72.034046 5.88368198,73.7761234 9.83832107,71.9408508 C12.5035599,70.7471895 14.3426703,68.1770738 15.3556523,64.2341741 C15.4490423,63.8685511 15.7220398,63.4993493 16.0920137,63.3165378 C16.4584012,63.1337263 16.8283751,63.0405312 17.1947443,63.2233427 L69.4263991,79.1883791 C69.8861767,77.9051564 70.0693705,76.528702 70.0693705,75.0590157 L70.0693705,72.3061068 C60.1372548,72.1232953 52.1380441,64.0473801 52.1380441,54.1396609 L52.1378602,54.1405418 Z M38.7794629,25.125 L60.2506173,25.125 C60.6372166,25.125 60.9506173,25.4384007 60.9506173,25.825 L60.9506173,25.825 C60.9506173,26.2115993 60.6372166,26.525 60.2506173,26.525 L38.7794629,26.525 C38.3928636,26.525 38.0794629,26.2115993 38.0794629,25.825 L38.0794629,25.825 C38.0794629,25.4384007 38.3928636,25.125 38.7794629,25.125 Z M46.7961919,30.5 L60.2506173,30.5 C60.6372166,30.5 60.9506173,30.8134007 60.9506173,31.2 L60.9506173,31.2 C60.9506173,31.5865993 60.6372166,31.9 60.2506173,31.9 L46.7961919,31.9 C46.4095926,31.9 46.0961919,31.5865993 46.0961919,31.2 L46.0961919,31.2 C46.0961919,30.8134007 46.4095926,30.5 46.7961919,30.5 Z M46.7961919,19.75 L60.2506173,19.75 C60.6372166,19.75 60.9506173,20.0634007 60.9506173,20.45 L60.9506173,20.45 C60.9506173,20.8365993 60.6372166,21.15 60.2506173,21.15 L46.7961919,21.15 C46.4095926,21.15 46.0961919,20.8365993 46.0961919,20.45 L46.0961919,20.45 C46.0961919,20.0634007 46.4095926,19.75 46.7961919,19.75 Z M8.71672903,46.625 L36.910217,46.625 C37.2968163,46.625 37.610217,46.9384007 37.610217,47.325 L37.610217,47.325 C37.610217,47.7115993 37.2968163,48.025 36.910217,48.025 L8.71672903,48.025 C8.33012971,48.025 8.01672903,47.7115993 8.01672903,47.325 L8.01672903,47.325 C8.01672903,46.9384007 8.33012971,46.625 8.71672903,46.625 Z M8.71672903,9 L36.910217,9 C37.2968163,9 37.610217,9.31340068 37.610217,9.7 L37.610217,9.7 C37.610217,10.0865993 37.2968163,10.4 36.910217,10.4 L8.71672903,10.4 C8.33012971,10.4 8.01672903,10.0865993 8.01672903,9.7 L8.01672903,9.7 C8.01672903,9.31340068 8.33012971,9 8.71672903,9 Z M25.3045132,53.4 L8.71672903,53.4 C8.33012971,53.4 8.01672903,53.0865993 8.01672903,52.7 L8.01672903,52.7 C8.01672903,52.3134007 8.33012971,52 8.71672903,52 L25.3045132,52 C25.6911125,52 26.0045132,52.3134007 26.0045132,52.7 L26.0045132,52.7 C26.0045132,53.0865993 25.6911125,53.4 25.3045132,53.4 Z M16.2856932,58.4 L8.71672903,58.4 C8.33012971,58.4 8.01672903,58.0865993 8.01672903,57.7 L8.01672903,57.7 C8.01672903,57.3134007 8.33012971,57 8.71672903,57 L16.2856932,57 C16.6722925,57 16.9856932,57.3134007 16.9856932,57.7 L16.9856932,57.7 C16.9856932,58.0865993 16.6722925,58.4 16.2856932,58.4 Z M25.3045132,42.65 L8.71672903,42.65 C8.33012971,42.65 8.01672903,42.3365993 8.01672903,41.95 L8.01672903,41.95 C8.01672903,41.5634007 8.33012971,41.25 8.71672903,41.25 L25.3045132,41.25 C25.6911125,41.25 26.0045132,41.5634007 26.0045132,41.95 L26.0045132,41.95 C26.0045132,42.3365993 25.6911125,42.65 25.3045132,42.65 Z M25.3045132,37.275 L8.71672903,37.275 C8.33012971,37.275 8.01672903,36.9615993 8.01672903,36.575 L8.01672903,36.575 C8.01672903,36.1884007 8.33012971,35.875 8.71672903,35.875 L25.3045132,35.875 C25.6911125,35.875 26.0045132,36.1884007 26.0045132,36.575 L26.0045132,36.575 C26.0045132,36.9615993 25.6911125,37.275 25.3045132,37.275 Z M29.3128777,15.775 L8.71672903,15.775 C8.33012971,15.775 8.01672903,15.4615993 8.01672903,15.075 L8.01672903,15.075 C8.01672903,14.6884007 8.33012971,14.375 8.71672903,14.375 L29.3128777,14.375 C29.6994771,14.375 30.0128777,14.6884007 30.0128777,15.075 L30.0128777,15.075 C30.0128777,15.4615993 29.6994771,15.775 29.3128777,15.775 Z M76.5961894,54.3231515 C76.0430217,53.7711382 75.2168566,53.7711382 74.6636522,54.3231515 L70.0658762,58.911333 L70.0658762,45.6056066 C70.0658762,44.8707818 69.4229048,44.2291521 68.6865434,44.2291521 C67.950182,44.2291521 67.3072106,44.8707818 67.3072106,45.6056066 L67.3072106,58.911333 L62.7094346,54.3231515 C62.156267,53.7711382 61.3301018,53.7711382 60.7768974,54.3231515 C60.2237298,54.8751648 60.2237298,55.6996059 60.7768974,56.2516559 L67.6735614,63.1339282 C67.7669514,63.2271233 67.9501452,63.4099348 68.133339,63.4099348 C68.3165328,63.50313 68.4997265,63.50313 68.6865066,63.50313 C68.8697004,63.50313 69.0528942,63.50313 69.1462842,63.4099348 C69.329478,63.3167397 69.422868,63.2271233 69.6060618,63.1339282 L76.5027258,56.2516559 C77.1492834,55.6996426 77.1492834,54.8716227 76.5961158,54.3231515 L76.5961894,54.3231515 Z" id="Export/Icon/Data1"></path>
        </g>
    </g>
</svg>