<?xml version="1.0" encoding="UTF-8"?>
<svg width="77px" height="88px" viewBox="0 0 77 88" version="1.1" xmlns="http://www.w3.org/2000/svg" xmlns:xlink="http://www.w3.org/1999/xlink">
    <!-- Generator: Sketch 52.4 (67378) - http://www.bohemiancoding.com/sketch -->
    <title>Export/Icon/Data3</title>
    <desc>Created with Sketch.</desc>
    <g id="Symbols" stroke="none" stroke-width="1" fill="none" fill-rule="evenodd" fill-opacity="0.55">
        <g id="Pattern/Icon/Data3" fill="#000000" fill-rule="nonzero">
            <path d="M11.0346624,74.6010785 C6.89666399,76.4363511 2.3923148,75.3359033 0.0937946302,74.6010785 L0.0937946302,75.1530918 C0.0937946302,82.2181572 5.88772803,88 12.9675674,88 L57.2892084,88 C61.8869844,88 66.0249828,85.5231161 68.2300762,81.8525709 L17.8375317,66.4353634 C16.3647721,70.4714949 14.0658841,73.2244038 11.0342946,74.6008582 L11.0346624,74.6010785 Z M52.1378602,54.1405418 C52.1378602,44.2291521 60.1372548,36.153035 70.0691866,35.9704254 L70.0691866,12.8469082 C70.0691866,5.78184281 64.2752532,0 57.1954138,0 L12.8737728,0 C5.79393339,0 0,5.78184281 0,12.8469082 L0,71.4820327 C1.1961574,72.034046 5.88368198,73.7761234 9.83832107,71.9408508 C12.5035599,70.7471895 14.3426703,68.1770738 15.3556523,64.2341741 C15.4490423,63.8685511 15.7220398,63.4993493 16.0920137,63.3165378 C16.4584012,63.1337263 16.8283751,63.0405312 17.1947443,63.2233427 L69.4263991,79.1883791 C69.8861767,77.9051564 70.0693705,76.528702 70.0693705,75.0590157 L70.0693705,72.3061068 C60.1372548,72.1232953 52.1380441,64.0473801 52.1380441,54.1396609 L52.1378602,54.1405418 Z M14.0077076,14.6933787 L8.4168305,9.12535903 C8.22905222,8.93834844 8.22905222,8.61176301 8.4168305,8.42475243 C8.60460949,8.19212838 8.90963418,8.21493476 9.12031317,8.42475243 L14.7100151,13.9916018 L20.3065781,8.39926655 C20.4941062,8.21188011 20.8215954,8.21188011 21.0091235,8.39926655 C21.1966516,8.58665298 21.1966516,8.91389478 21.0091235,9.10128122 L15.4137341,14.6924437 L21.0089359,20.2647704 C21.1967141,20.451781 21.1967141,20.7783664 21.0089359,20.965377 C20.8211576,21.1523876 20.4932315,21.1523876 20.3054532,20.965377 L14.7114266,15.3942207 L9.13634063,20.9650951 C8.94881253,21.1524816 8.62132334,21.1524816 8.43379524,20.9650951 C8.22339765,20.8005609 8.22339695,20.4733198 8.43379524,20.2630805 L14.0077076,14.6933787 Z M14.0077076,30.2931959 L8.4168305,24.7251762 C8.22905222,24.5381656 8.22905222,24.2115802 8.4168305,24.0245696 C8.60460949,23.7919455 8.90963418,23.8147519 9.12031317,24.0245696 L14.7100151,29.5914189 L20.3065781,23.9990837 C20.4941062,23.8116973 20.8215954,23.8116973 21.0091235,23.9990837 C21.1966516,24.1864701 21.1966516,24.5137119 21.0091235,24.7010984 L15.4137341,30.2922609 L21.0089359,35.8645876 C21.1967141,36.0515981 21.1967141,36.3781836 21.0089359,36.5651942 C20.8211576,36.7522047 20.4932315,36.7522047 20.3054532,36.5651942 L14.7114266,30.9940378 L9.13634063,36.5649123 C8.94881253,36.7522987 8.62132334,36.7522987 8.43379524,36.5649123 C8.22339765,36.400378 8.22339695,36.073137 8.43379524,35.8628976 L14.0077076,30.2931959 Z M14.0077076,45.893013 L8.4168305,40.3249933 C8.22905222,40.1379827 8.22905222,39.8113973 8.4168305,39.6243867 C8.60460949,39.3917627 8.90963418,39.414569 9.12031317,39.6243867 L14.7100151,45.1912361 L20.3065781,39.5989008 C20.4941062,39.4115144 20.8215954,39.4115144 21.0091235,39.5989008 C21.1966516,39.7862873 21.1966516,40.1135291 21.0091235,40.3009155 L15.4137341,45.892078 L21.0089359,51.4644047 C21.1967141,51.6514153 21.1967141,51.9780007 21.0089359,52.1650113 C20.8211576,52.3520219 20.4932315,52.3520219 20.3054532,52.1650113 L14.7114266,46.593855 L9.13634063,52.1647294 C8.94881253,52.3521158 8.62132334,52.3521158 8.43379524,52.1647294 C8.22339765,52.0001952 8.22339695,51.6729541 8.43379524,51.4627147 L14.0077076,45.893013 Z M30.5597012,14.6933787 L24.9688241,9.12535903 C24.7810458,8.93834844 24.7810458,8.61176301 24.9688241,8.42475243 C25.1566031,8.19212838 25.4616278,8.21493476 25.6723067,8.42475243 L31.2620087,13.9916018 L36.8585717,8.39926655 C37.0460998,8.21188011 37.373589,8.21188011 37.5611171,8.39926655 C37.7486452,8.58665298 37.7486452,8.91389478 37.5611171,9.10128122 L31.9657277,14.6924437 L37.5609294,20.2647704 C37.7487077,20.451781 37.7487077,20.7783664 37.5609294,20.965377 C37.3731511,21.1523876 37.045225,21.1523876 36.8574468,20.965377 L31.2634202,15.3942207 L25.6883342,20.9650951 C25.5008061,21.1524816 25.1733169,21.1524816 24.9857888,20.9650951 C24.7753912,20.8005609 24.7753905,20.4733198 24.9857888,20.2630805 L30.5597012,14.6933787 Z M30.5597012,30.2931959 L24.9688241,24.7251762 C24.7810458,24.5381656 24.7810458,24.2115802 24.9688241,24.0245696 C25.1566031,23.7919455 25.4616278,23.8147519 25.6723067,24.0245696 L31.2620087,29.5914189 L36.8585717,23.9990837 C37.0460998,23.8116973 37.373589,23.8116973 37.5611171,23.9990837 C37.7486452,24.1864701 37.7486452,24.5137119 37.5611171,24.7010984 L31.9657277,30.2922609 L37.5609294,35.8645876 C37.7487077,36.0515981 37.7487077,36.3781836 37.5609294,36.5651942 C37.3731511,36.7522047 37.045225,36.7522047 36.8574468,36.5651942 L31.2634202,30.9940378 L25.6883342,36.5649123 C25.5008061,36.7522987 25.1733169,36.7522987 24.9857888,36.5649123 C24.7753912,36.400378 24.7753905,36.073137 24.9857888,35.8628976 L30.5597012,30.2931959 Z M47.1116948,14.6933787 L41.5208176,9.12535903 C41.3330394,8.93834844 41.3330394,8.61176301 41.5208176,8.42475243 C41.7085966,8.19212838 42.0136213,8.21493476 42.2243003,8.42475243 L47.8140023,13.9916018 L53.4105653,8.39926655 C53.5980933,8.21188011 53.9255825,8.21188011 54.1131106,8.39926655 C54.3006387,8.58665298 54.3006387,8.91389478 54.1131106,9.10128122 L48.5177212,14.6924437 L54.112923,20.2647704 C54.3007013,20.451781 54.3007013,20.7783664 54.112923,20.965377 C53.9251447,21.1523876 53.5972186,21.1523876 53.4094403,20.965377 L47.8154137,15.3942207 L42.2403278,20.9650951 C42.0527997,21.1524816 41.7253105,21.1524816 41.5377824,20.9650951 C41.3273848,20.8005609 41.3273841,20.4733198 41.5377824,20.2630805 L47.1116948,14.6933787 Z M76.5961894,53.4091306 C76.0430217,53.9611439 75.2168566,53.9611439 74.6636522,53.4091306 L70.0658762,48.8209491 L70.0658762,62.1266755 C70.0658762,62.8615003 69.4229048,63.50313 68.6865434,63.50313 C67.950182,63.50313 67.3072106,62.8615003 67.3072106,62.1266755 L67.3072106,48.8209491 L62.7094346,53.4091306 C62.156267,53.9611439 61.3301018,53.9611439 60.7768974,53.4091306 C60.2237298,52.8571174 60.2237298,52.0326762 60.7768974,51.4806262 L67.6735614,44.5983539 C67.7669514,44.5051588 67.9501452,44.3223473 68.133339,44.3223473 C68.3165328,44.2291521 68.4997265,44.2291521 68.6865066,44.2291521 C68.8697004,44.2291521 69.0528942,44.2291521 69.1462842,44.3223473 C69.329478,44.4155424 69.422868,44.5051588 69.6060618,44.5983539 L76.5027258,51.4806262 C77.1492834,52.0326395 77.1492834,52.8606594 76.5961158,53.4091306 L76.5961894,53.4091306 Z" id="Export/Icon/Data3"></path>
        </g>
    </g>
</svg>