<svg xmlns="http://www.w3.org/2000/svg" viewBox="0 0 50 40"><path d="M49.062 35.769c0-1.407-.687-2.158-1.862-2.158-1.228 0-1.968.874-1.994 2.28h3.856v-.122zm.938.901h-4.794c.013 1.544.832 2.486 2.113 2.486.924 0 1.585-.533 1.862-1.461l.78.327C49.55 39.292 48.586 40 47.252 40c-1.876 0-2.972-1.24-2.972-3.535 0-2.24 1.11-3.619 2.932-3.619 1.77 0 2.787 1.093 2.787 3.169v.655zm-6.466-2.868h-1.717v6.04h-.911v-6.04H39.69v-.792h1.215v-.988c0-1.23.7-2.022 1.849-2.022.29 0 .555.028.78.096v.82a3.742 3.742 0 0 0-.661-.069c-.74 0-1.057.41-1.057 1.298v.865h1.717v.792zm-6.363 6.04h.911V33.01h-.91v6.832zm1.236-9.036c0 .446-.35.807-.78.807a.794.794 0 0 1-.78-.807c0-.445.349-.806.78-.806.43 0 .78.361.78.806zm-4.665 9.036h.911v-9.684h-.911v9.684zm-3.709-8.58h-.026c-.158.397-.355.737-.632 1.16l-2.087 3.101c-.29.464-.489.751-.74 1.038h3.46v-3.947c0-.642 0-.914.025-1.351zm.885 6.091v2.489h-.91v-2.489h-4.44v-.696l4.375-6.5h.975v6.404h1.215v.792h-1.215zm-7.609-.492v-.437l-1.875.274c-1.123.163-1.612.56-1.612 1.31 0 .738.555 1.202 1.44 1.202 1.228 0 2.047-.955 2.047-2.349zm-4.45 1.175c0-.656.277-1.188.805-1.53.475-.287 1.123-.478 2.166-.614l1.466-.178v-.11c0-1.406-.475-1.966-1.598-1.966-.99 0-1.598.533-1.651 1.503h-.99c.079-1.407 1.109-2.295 2.628-2.295 1.77 0 2.536.847 2.536 2.827v1.776c0 1.065.066 1.833.21 2.393h-.963a9.725 9.725 0 0 1-.12-1.369c-.315.957-1.16 1.527-2.296 1.527-1.321 0-2.193-.79-2.193-1.964zm-4.787-5.025h1.215v-2.312h.924v2.312h1.704v.792h-1.704V37.9c0 .806.344 1.16 1.03 1.16.265 0 .45-.026.674-.081v.86a3.02 3.02 0 0 1-.911.123c-1.281 0-1.717-.806-1.717-2.021v-4.138h-1.215v-.792zm-1.983 3.85v-.437l-1.875.274c-1.123.163-1.612.56-1.612 1.31 0 .738.555 1.202 1.44 1.202 1.228 0 2.047-.955 2.047-2.349zm-4.451 1.175c0-.656.277-1.188.806-1.53.475-.287 1.122-.478 2.166-.614l1.466-.178v-.11c0-1.406-.476-1.966-1.598-1.966-.99 0-1.598.533-1.651 1.503h-.99c.078-1.407 1.109-2.295 2.628-2.295 1.77 0 2.536.847 2.536 2.827v1.776c0 1.065.065 1.833.21 2.393h-.963a9.726 9.726 0 0 1-.12-1.369C11.813 39.43 10.968 40 9.83 40c-1.32 0-2.192-.79-2.192-1.964zm-2.725-1.461v-.287c0-1.557-.726-2.595-1.954-2.595-1.242 0-1.981 1.024-1.981 2.731 0 1.694.74 2.732 1.967 2.732 1.216 0 1.968-1.065 1.968-2.581zM0 36.425c0-2.104 1.15-3.579 2.827-3.579.95 0 1.677.45 2.073 1.407v-4.095h.925v9.684h-.872v-1.45C4.57 39.401 3.778 40 2.721 40 1.083 40 0 38.555 0 36.424zm22.848-23.758 8.278-12h-8.278l-8.278 12h8.278zm4.47 2c-2.103 0-3.808 1.716-3.808 3.833s1.705 3.833 3.808 3.833c2.103 0 3.808-1.716 3.808-3.833s-1.705-3.833-3.808-3.833zm15.602 1.116V.667h-6.827v21.666H50v-6.55h-7.08zM0 0c5.852 0 10.596 5 10.596 11.167S5.852 22.333 0 22.333V0z" fill="navy" fill-rule="evenodd"></path></svg>