<?xml version="1.0" encoding="UTF-8"?>
<svg width="304px" height="424px" viewBox="0 0 304 424" version="1.1" xmlns="http://www.w3.org/2000/svg" xmlns:xlink="http://www.w3.org/1999/xlink">
    <!-- Generator: Sketch 52.4 (67378) - http://www.bohemiancoding.com/sketch -->
    <title>Export/DataDeIdentify</title>
    <desc>Created with Sketch.</desc>
    <defs>
        <path d="M16,0 L167,0 L167,399 L16,399 C7.163444,399 1.082166e-15,391.836556 0,383 L0,16 C-1.082166e-15,7.163444 7.163444,1.623249e-15 16,0 Z" id="path-1"></path>
        <filter x="-9.6%" y="-3.5%" width="119.2%" height="108.0%" filterUnits="objectBoundingBox" id="filter-2">
            <feOffset dx="0" dy="2" in="SourceAlpha" result="shadowOffsetOuter1"></feOffset>
            <feGaussianBlur stdDeviation="5" in="shadowOffsetOuter1" result="shadowBlurOuter1"></feGaussianBlur>
            <feColorMatrix values="0 0 0 0 0   0 0 0 0 0   0 0 0 0 0  0 0 0 0.2 0" type="matrix" in="shadowBlurOuter1"></feColorMatrix>
        </filter>
    </defs>
    <g id="Export/DataDeIdentify" stroke="none" stroke-width="1" fill="none" fill-rule="evenodd">
        <g id="Group-2" transform="translate(0.000000, 13.000000)">
            <rect id="Rectangle" fill="#ACC0E0" fill-rule="nonzero" x="0" y="0" width="152" height="391"></rect>
            <path d="M71.9545544,365.564092 C68.946024,366.856544 65.6711384,366.081577 64,365.564092 L64,365.952836 C64,370.928259 68.2124774,375 73.3598724,375 L105.583907,375 C108.926719,375 111.935249,373.255707 113.538462,370.670803 L76.9005783,359.813559 C75.829809,362.65592 74.1584032,364.594598 71.9542869,365.563937 L71.9545544,365.564092 Z M101.66236,350.306555 C101.66236,343.11079 107.440811,337.247451 114.615252,337.114875 L114.615252,320.326979 C114.615252,315.197674 110.42994,311 105.31574,311 L73.2995121,311 C68.1853119,311 64,315.197674 64,320.326979 L64,362.896644 C64.8640575,363.297411 68.2501427,364.562176 71.10682,363.22975 C73.0320847,362.363141 74.3605865,360.497212 75.0923252,357.634629 C75.1597865,357.369183 75.3569893,357.101139 75.624244,356.968416 C75.8889081,356.835693 76.1561628,356.768032 76.4208137,356.900755 L114.150927,368.491525 C114.483053,367.559893 114.615385,366.560574 114.615385,365.493568 L114.615385,363.49493 C107.440811,363.362207 101.662493,357.499014 101.662493,350.305915 L101.66236,350.306555 Z M92.5423729,329.440678 L107.611473,329.440678 C107.911018,329.440678 108.153846,329.683507 108.153846,329.983051 L108.153846,329.983051 C108.153846,330.282595 107.911018,330.525424 107.611473,330.525424 L92.5423729,330.525424 C92.2428286,330.525424 92,330.282595 92,329.983051 L92,329.983051 C92,329.683507 92.2428286,329.440678 92.5423729,329.440678 Z M97.9269883,332.694915 L107.611473,332.694915 C107.911018,332.694915 108.153846,332.937744 108.153846,333.237288 L108.153846,333.237288 C108.153846,333.536832 107.911018,333.779661 107.611473,333.779661 L97.9269883,333.779661 C97.627444,333.779661 97.3846154,333.536832 97.3846154,333.237288 L97.3846154,333.237288 C97.3846154,332.937744 97.627444,332.694915 97.9269883,332.694915 Z M97.9269883,325.101695 L107.611473,325.101695 C107.911018,325.101695 108.153846,325.344524 108.153846,325.644068 L108.153846,325.644068 C108.153846,325.943612 107.911018,326.186441 107.611473,326.186441 L97.9269883,326.186441 C97.627444,326.186441 97.3846154,325.943612 97.3846154,325.644068 L97.3846154,325.644068 C97.3846154,325.344524 97.627444,325.101695 97.9269883,325.101695 Z M69.9269883,344.627119 L90.380704,344.627119 C90.6802483,344.627119 90.9230769,344.869947 90.9230769,345.169492 L90.9230769,345.169492 C90.9230769,345.469036 90.6802483,345.711864 90.380704,345.711864 L69.9269883,345.711864 C69.627444,345.711864 69.3846154,345.469036 69.3846154,345.169492 L69.3846154,345.169492 C69.3846154,344.869947 69.627444,344.627119 69.9269883,344.627119 Z M69.9269883,317.508475 L90.380704,317.508475 C90.6802483,317.508475 90.9230769,317.751303 90.9230769,318.050847 L90.9230769,318.050847 C90.9230769,318.350392 90.6802483,318.59322 90.380704,318.59322 L69.9269883,318.59322 C69.627444,318.59322 69.3846154,318.350392 69.3846154,318.050847 L69.3846154,318.050847 C69.3846154,317.751303 69.627444,317.508475 69.9269883,317.508475 Z M81.7653194,350.050847 L69.9269883,350.050847 C69.627444,350.050847 69.3846154,349.808019 69.3846154,349.508475 L69.3846154,349.508475 C69.3846154,349.20893 69.627444,348.966102 69.9269883,348.966102 L81.7653194,348.966102 C82.0648637,348.966102 82.3076923,349.20893 82.3076923,349.508475 L82.3076923,349.508475 C82.3076923,349.808019 82.0648637,350.050847 81.7653194,350.050847 Z M75.303781,353.305085 L69.9269883,353.305085 C69.627444,353.305085 69.3846154,353.062256 69.3846154,352.762712 L69.3846154,352.762712 C69.3846154,352.463168 69.627444,352.220339 69.9269883,352.220339 L75.303781,352.220339 C75.6033252,352.220339 75.8461538,352.463168 75.8461538,352.762712 L75.8461538,352.762712 C75.8461538,353.062256 75.6033252,353.305085 75.303781,353.305085 Z M81.7653194,342.457627 L69.9269883,342.457627 C69.627444,342.457627 69.3846154,342.214799 69.3846154,341.915254 L69.3846154,341.915254 C69.3846154,341.61571 69.627444,341.372881 69.9269883,341.372881 L81.7653194,341.372881 C82.0648637,341.372881 82.3076923,341.61571 82.3076923,341.915254 L82.3076923,341.915254 C82.3076923,342.214799 82.0648637,342.457627 81.7653194,342.457627 Z M81.7653194,338.118644 L69.9269883,338.118644 C69.627444,338.118644 69.3846154,337.875815 69.3846154,337.576271 L69.3846154,337.576271 C69.3846154,337.276727 69.627444,337.033898 69.9269883,337.033898 L81.7653194,337.033898 C82.0648637,337.033898 82.3076923,337.276727 82.3076923,337.576271 L82.3076923,337.576271 C82.3076923,337.875815 82.0648637,338.118644 81.7653194,338.118644 Z M84.9960887,322.932203 L69.9269883,322.932203 C69.627444,322.932203 69.3846154,322.689375 69.3846154,322.389831 L69.3846154,322.389831 C69.3846154,322.090286 69.627444,321.847458 69.9269883,321.847458 L84.9960887,321.847458 C85.2956329,321.847458 85.5384615,322.090286 85.5384615,322.389831 L85.5384615,322.389831 C85.5384615,322.689375 85.2956329,322.932203 84.9960887,322.932203 Z M119.712489,350.927589 C119.318636,350.523712 118.730411,350.523712 118.336533,350.927589 L115.06294,354.284506 L115.06294,344.549448 C115.06294,344.011818 114.605148,343.542373 114.080862,343.542373 C113.556577,343.542373 113.098784,344.011818 113.098784,344.549448 L113.098784,354.284506 L109.825192,350.927589 C109.431339,350.523712 108.843114,350.523712 108.449236,350.927589 C108.055383,351.331467 108.055383,351.934664 108.449236,352.338569 L113.359624,357.373943 C113.426118,357.442129 113.556551,357.575882 113.686984,357.575882 C113.817417,357.644068 113.94785,357.644068 114.080836,357.644068 C114.211269,357.644068 114.341702,357.644068 114.408195,357.575882 C114.538628,357.507696 114.605122,357.442129 114.735555,357.373943 L119.645943,352.338569 C120.106289,351.934691 120.106289,351.328875 119.712437,350.927589 L119.712489,350.927589 Z" id="Icon/Data1" fill="#FFFFFF" fill-rule="nonzero"></path>
            <g id="original" transform="translate(16.000000, 18.000000)" fill="#FFFFFF" line-spacing="18">
                <text id="First-Participant-Se" font-family="Roboto-Light, Roboto" font-size="14" font-weight="300">
                    <tspan x="6.14797127" y="23">Message Sender</tspan>
                    <tspan x="6.14797127" y="71">Receiver(s)</tspan>
                    <tspan x="6.14797127" y="119">Time of Message</tspan>
                    <tspan x="6.14797127" y="167">Conversation Type</tspan>
                    <tspan x="6.14797127" y="215">Message</tspan>
                </text>
                <text id="Tim-Meier-Maria-M.-T" font-family="Roboto-Black, Roboto" font-size="12" font-weight="700">
                    <tspan x="6.14797127" y="38">Tim Meier</tspan>
                    <tspan x="6.14797127" y="86">Maria M.</tspan>
                    <tspan x="6.14797127" y="134">1522764052197</tspan>
                    <tspan x="6.14797127" y="182">Regular</tspan>
                    <tspan x="6.14797127" y="230">How are you?</tspan>
                </text>
            </g>
        </g>
        <g id="Group" transform="translate(137.000000, 7.000000)">
            <g id="Rectangle" fill-rule="nonzero">
                <use fill="black" fill-opacity="1" filter="url(#filter-2)" xlink:href="#path-1"></use>
                <use fill="#FFFFFF" xlink:href="#path-1"></use>
            </g>
            <path d="M24.0286651,373.058597 C20.9921049,374.420287 17.686708,373.603804 16,373.058597 L16,373.468166 C16,378.71013 20.2517241,383 25.4470761,383 L57.9713349,383 C61.3452906,383 64.3818508,381.162262 66,378.438881 L29.0207701,367 C27.9400246,369.99463 26.2530467,372.037166 24.0283952,373.058434 L24.0286651,373.058597 Z M53.948548,358.654195 C53.948548,351.394789 59.7709084,345.479593 66.9998661,345.345844 L66.9998661,328.40947 C66.9998661,323.234799 62.782751,319 57.629689,319 L25.3701771,319 C20.2171151,319 16,323.234799 16,328.40947 L16,371.355635 C16.8706233,371.759947 20.2824387,373.035898 23.1608232,371.691688 C25.1007176,370.817414 26.4393143,368.934982 27.1766134,366.047081 C27.2445873,365.779288 27.4432886,365.508873 27.7125741,365.374976 C27.9792494,365.241079 28.2485349,365.17282 28.5151967,365.306717 L66.5320132,377 C66.8666624,376.060128 67,375.051971 67,373.975527 L67,371.959212 C59.7709084,371.825316 53.9486819,365.910267 53.9486819,358.65355 L53.948548,358.654195 Z M26.0070147,329.507845 L22.0984563,325.607126 C21.9671812,325.476114 21.9671812,325.247322 22.0984563,325.116311 C22.2297317,324.953344 22.4429732,324.969321 22.590258,325.116311 L26.4979949,329.01621 L30.4105284,325.098456 C30.5416285,324.967181 30.7705748,324.967181 30.9016749,325.098456 C31.032775,325.229731 31.032775,325.458983 30.9016749,325.590258 L26.9899619,329.50719 L30.9015437,333.410926 C31.0328188,333.541938 31.0328188,333.77073 30.9015437,333.901741 C30.7702687,334.032753 30.541017,334.032753 30.409742,333.901741 L26.4989817,329.998825 L22.6014627,333.901544 C22.4703626,334.032819 22.2414163,334.032819 22.1103162,333.901544 C21.9632282,333.786278 21.9632277,333.557027 22.1103162,333.409742 L26.0070147,329.507845 Z M26.0070147,341.507845 L22.0984563,337.607126 C21.9671812,337.476114 21.9671812,337.247322 22.0984563,337.116311 C22.2297317,336.953344 22.4429732,336.969321 22.590258,337.116311 L26.4979949,341.01621 L30.4105284,337.098456 C30.5416285,336.967181 30.7705748,336.967181 30.9016749,337.098456 C31.032775,337.229731 31.032775,337.458983 30.9016749,337.590258 L26.9899619,341.50719 L30.9015437,345.410926 C31.0328188,345.541938 31.0328188,345.77073 30.9015437,345.901741 C30.7702687,346.032753 30.541017,346.032753 30.409742,345.901741 L26.4989817,341.998825 L22.6014627,345.901544 C22.4703626,346.032819 22.2414163,346.032819 22.1103162,345.901544 C21.9632282,345.786278 21.9632277,345.557027 22.1103162,345.409742 L26.0070147,341.507845 Z M26.0070147,352.507845 L22.0984563,348.607126 C21.9671812,348.476114 21.9671812,348.247322 22.0984563,348.116311 C22.2297317,347.953344 22.4429732,347.969321 22.590258,348.116311 L26.4979949,352.01621 L30.4105284,348.098456 C30.5416285,347.967181 30.7705748,347.967181 30.9016749,348.098456 C31.032775,348.229731 31.032775,348.458983 30.9016749,348.590258 L26.9899619,352.50719 L30.9015437,356.410926 C31.0328188,356.541938 31.0328188,356.77073 30.9015437,356.901741 C30.7702687,357.032753 30.541017,357.032753 30.409742,356.901741 L26.4989817,352.998825 L22.6014627,356.901544 C22.4703626,357.032819 22.2414163,357.032819 22.1103162,356.901544 C21.9632282,356.786278 21.9632277,356.557027 22.1103162,356.409742 L26.0070147,352.507845 Z M38.0070147,329.507845 L34.0984563,325.607126 C33.9671812,325.476114 33.9671812,325.247322 34.0984563,325.116311 C34.2297317,324.953344 34.4429732,324.969321 34.590258,325.116311 L38.4979949,329.01621 L42.4105284,325.098456 C42.5416285,324.967181 42.7705748,324.967181 42.9016749,325.098456 C43.032775,325.229731 43.032775,325.458983 42.9016749,325.590258 L38.9899619,329.50719 L42.9015437,333.410926 C43.0328188,333.541938 43.0328188,333.77073 42.9015437,333.901741 C42.7702687,334.032753 42.541017,334.032753 42.409742,333.901741 L38.4989817,329.998825 L34.6014627,333.901544 C34.4703626,334.032819 34.2414163,334.032819 34.1103162,333.901544 C33.9632282,333.786278 33.9632277,333.557027 34.1103162,333.409742 L38.0070147,329.507845 Z M38.0070147,341.507845 L34.0984563,337.607126 C33.9671812,337.476114 33.9671812,337.247322 34.0984563,337.116311 C34.2297317,336.953344 34.4429732,336.969321 34.590258,337.116311 L38.4979949,341.01621 L42.4105284,337.098456 C42.5416285,336.967181 42.7705748,336.967181 42.9016749,337.098456 C43.032775,337.229731 43.032775,337.458983 42.9016749,337.590258 L38.9899619,341.50719 L42.9015437,345.410926 C43.0328188,345.541938 43.0328188,345.77073 42.9015437,345.901741 C42.7702687,346.032753 42.541017,346.032753 42.409742,345.901741 L38.4989817,341.998825 L34.6014627,345.901544 C34.4703626,346.032819 34.2414163,346.032819 34.1103162,345.901544 C33.9632282,345.786278 33.9632277,345.557027 34.1103162,345.409742 L38.0070147,341.507845 Z M50.0070147,329.507845 L46.0984563,325.607126 C45.9671812,325.476114 45.9671812,325.247322 46.0984563,325.116311 C46.2297317,324.953344 46.4429732,324.969321 46.590258,325.116311 L50.4979949,329.01621 L54.4105284,325.098456 C54.5416285,324.967181 54.7705748,324.967181 54.9016749,325.098456 C55.032775,325.229731 55.032775,325.458983 54.9016749,325.590258 L50.9899619,329.50719 L54.9015437,333.410926 C55.0328188,333.541938 55.0328188,333.77073 54.9015437,333.901741 C54.7702687,334.032753 54.541017,334.032753 54.409742,333.901741 L50.4989817,329.998825 L46.6014627,333.901544 C46.4703626,334.032819 46.2414163,334.032819 46.1103162,333.901544 C45.9632282,333.786278 45.9632277,333.557027 46.1103162,333.409742 L50.0070147,329.507845 Z M71.708755,357.668042 C71.3097876,358.069007 70.713923,358.069007 70.314929,357.668042 L66.9988223,354.335334 L66.9988223,364.000188 C66.9988223,364.533941 66.5350847,365 66.0039903,365 C65.4728959,365 65.0091583,364.533941 65.0091583,364.000188 L65.0091583,354.335334 L61.6930516,357.668042 C61.2940841,358.069007 60.6982195,358.069007 60.2992256,357.668042 C59.9002581,357.267078 59.9002581,356.66823 60.2992256,356.267238 L65.2733857,351.268176 C65.3407424,351.200482 65.4728694,351.067694 65.6049963,351.067694 C65.7371233,351 65.8692503,351 66.0039638,351 C66.1360907,351 66.2682177,351 66.3355744,351.067694 C66.4677014,351.135388 66.5350582,351.200482 66.6671851,351.268176 L71.6413452,356.267238 C72.1076694,356.668203 72.1076694,357.26965 71.708702,357.668042 L71.708755,357.668042 Z" id="Icon/Data3" fill-opacity="0.55" fill="#000000" fill-rule="nonzero"></path>
            <g id="reduced" transform="translate(16.000000, 16.000000)" fill="#000000" fill-opacity="0.55" line-spacing="18">
                <text id="First-Participant-Se" font-family="Roboto-Light, Roboto" font-size="14" font-weight="300">
                    <tspan x="0" y="23">Message Sender</tspan>
                    <tspan x="0" y="73">Receiver(s)</tspan>
                    <tspan x="0" y="123">Time of Message</tspan>
                    <tspan x="0" y="173">Group Conversation</tspan>
                    <tspan x="0" y="223">Word Count</tspan>
                </text>
                <text id="4e572200-060d-40d0-j" font-family="Roboto-Medium, Roboto" font-size="12" font-weight="400">
                    <tspan x="0" y="36"> anonymous1 </tspan>
                    <tspan x="0" y="86">anonymous2</tspan>
                    <tspan x="0" y="136">1522764052197</tspan>
                    <tspan x="0" y="186">No</tspan>
                    <tspan x="0" y="236">3</tspan>
                </text>
            </g>
        </g>
    </g>
</svg>