<?xml version="1.0" encoding="UTF-8"?>
<svg width="81px" height="88px" viewBox="0 0 81 88" version="1.1" xmlns="http://www.w3.org/2000/svg" xmlns:xlink="http://www.w3.org/1999/xlink">
    <!-- Generator: Sketch 52.4 (67378) - http://www.bohemiancoding.com/sketch -->
    <title>Export/Icon/Data2</title>
    <desc>Created with Sketch.</desc>
    <g id="Symbols" stroke="none" stroke-width="1" fill="none" fill-rule="evenodd">
        <g id="Pattern/Icon/Data2" fill="#DD6108" fill-rule="nonzero">
            <path d="M10.9520205,74.6010785 C6.84501279,76.4363511 2.37439804,75.3359033 0.0930921739,74.6010785 L0.0930921739,75.1530918 C0.0930921739,82.2181572 5.84363305,88 12.8704494,88 L56.8601522,88 C61.4234941,88 65.5305018,85.5231161 67.7190805,81.8525709 L17.7039411,66.4353634 C16.2422114,70.4714949 13.9605405,73.2244038 10.9516554,74.6008582 L10.9520205,74.6010785 Z M51.747384,54.1405418 C51.747384,44.2291521 59.6868687,36.153035 69.5444173,35.9704254 L69.5444173,12.8469082 C69.5444173,5.78184281 63.7938764,0 56.7670601,0 L12.7773572,0 C5.75054088,0 0,5.78184281 0,12.8469082 L0,71.4820327 C1.18719902,72.034046 5.83961731,73.7761234 9.76463891,71.9408508 C12.4099169,70.7471895 14.2352537,68.1770738 15.2406491,64.2341741 C15.3333397,63.8685511 15.6042927,63.4993493 15.9714957,63.3165378 C16.3351393,63.1337263 16.7023423,63.0405312 17.0659676,63.2233427 L68.9064438,79.1883791 C69.362778,77.9051564 69.5445998,76.528702 69.5445998,75.0590157 L69.5445998,72.3061068 C59.6868687,72.1232953 51.7475665,64.0473801 51.7475665,54.1396609 L51.747384,54.1405418 Z M13.9027997,14.6933787 L8.35379431,9.12535903 C8.16742236,8.93834844 8.16742236,8.61176301 8.35379431,8.42475243 C8.54016697,8.19212838 8.84290724,8.21493476 9.05200839,8.42475243 L14.5998474,13.9916018 L20.154496,8.39926655 C20.3406196,8.21188011 20.6656562,8.21188011 20.8517798,8.39926655 C21.0379035,8.58665298 21.0379035,8.91389478 20.8517798,9.10128122 L15.298296,14.6924437 L20.8515936,20.2647704 C21.0379655,20.451781 21.0379655,20.7783664 20.8515936,20.965377 C20.6652216,21.1523876 20.3397515,21.1523876 20.1533795,20.965377 L14.6012483,15.3942207 L9.06791581,20.9650951 C8.88179217,21.1524816 8.55675564,21.1524816 8.370632,20.9650951 C8.16181014,20.8005609 8.16180944,20.4733198 8.370632,20.2630805 L13.9027997,14.6933787 Z M13.9027997,30.2931959 L8.35379431,24.7251762 C8.16742236,24.5381656 8.16742236,24.2115802 8.35379431,24.0245696 C8.54016697,23.7919455 8.84290724,23.8147519 9.05200839,24.0245696 L14.5998474,29.5914189 L20.154496,23.9990837 C20.3406196,23.8116973 20.6656562,23.8116973 20.8517798,23.9990837 C21.0379035,24.1864701 21.0379035,24.5137119 20.8517798,24.7010984 L15.298296,30.2922609 L20.8515936,35.8645876 C21.0379655,36.0515981 21.0379655,36.3781836 20.8515936,36.5651942 C20.6652216,36.7522047 20.3397515,36.7522047 20.1533795,36.5651942 L14.6012483,30.9940378 L9.06791581,36.5649123 C8.88179217,36.7522987 8.55675564,36.7522987 8.370632,36.5649123 C8.16181014,36.400378 8.16180944,36.073137 8.370632,35.8628976 L13.9027997,30.2931959 Z M13.9027997,45.893013 L8.35379431,40.3249933 C8.16742236,40.1379827 8.16742236,39.8113973 8.35379431,39.6243867 C8.54016697,39.3917627 8.84290724,39.414569 9.05200839,39.6243867 L14.5998474,45.1912361 L20.154496,39.5989008 C20.3406196,39.4115144 20.6656562,39.4115144 20.8517798,39.5989008 C21.0379035,39.7862873 21.0379035,40.1135291 20.8517798,40.3009155 L15.298296,45.892078 L20.8515936,51.4644047 C21.0379655,51.6514153 21.0379655,51.9780007 20.8515936,52.1650113 C20.6652216,52.3520219 20.3397515,52.3520219 20.1533795,52.1650113 L14.6012483,46.593855 L9.06791581,52.1647294 C8.88179217,52.3521158 8.55675564,52.3521158 8.370632,52.1647294 C8.16181014,52.0001952 8.16180944,51.6729541 8.370632,51.4627147 L13.9027997,45.893013 Z M30.3308303,14.6933787 L24.781825,9.12535903 C24.595453,8.93834844 24.595453,8.61176301 24.781825,8.42475243 C24.9681977,8.19212838 25.2709379,8.21493476 25.4800391,8.42475243 L31.0278781,13.9916018 L36.5825267,8.39926655 C36.7686503,8.21188011 37.0936869,8.21188011 37.2798105,8.39926655 C37.4659342,8.58665298 37.4659342,8.91389478 37.2798105,9.10128122 L31.7263267,14.6924437 L37.2796243,20.2647704 C37.4659962,20.451781 37.4659962,20.7783664 37.2796243,20.965377 C37.0932523,21.1523876 36.7677822,21.1523876 36.5814102,20.965377 L31.029279,15.3942207 L25.4959465,20.9650951 C25.3098229,21.1524816 24.9847863,21.1524816 24.7986627,20.9650951 C24.5898408,20.8005609 24.5898401,20.4733198 24.7986627,20.2630805 L30.3308303,14.6933787 Z M30.3308303,30.2931959 L24.781825,24.7251762 C24.595453,24.5381656 24.595453,24.2115802 24.781825,24.0245696 C24.9681977,23.7919455 25.2709379,23.8147519 25.4800391,24.0245696 L31.0278781,29.5914189 L36.5825267,23.9990837 C36.7686503,23.8116973 37.0936869,23.8116973 37.2798105,23.9990837 C37.4659342,24.1864701 37.4659342,24.5137119 37.2798105,24.7010984 L31.7263267,30.2922609 L37.2796243,35.8645876 C37.4659962,36.0515981 37.4659962,36.3781836 37.2796243,36.5651942 C37.0932523,36.7522047 36.7677822,36.7522047 36.5814102,36.5651942 L31.029279,30.9940378 L25.4959465,36.5649123 C25.3098229,36.7522987 24.9847863,36.7522987 24.7986627,36.5649123 C24.5898408,36.400378 24.5898401,36.073137 24.7986627,35.8628976 L30.3308303,30.2931959 Z M46.758861,14.6933787 L41.2098557,9.12535903 C41.0234837,8.93834844 41.0234837,8.61176301 41.2098557,8.42475243 C41.3962283,8.19212838 41.6989686,8.21493476 41.9080698,8.42475243 L47.4559087,13.9916018 L53.0105574,8.39926655 C53.196681,8.21188011 53.5217176,8.21188011 53.7078412,8.39926655 C53.8939648,8.58665298 53.8939648,8.91389478 53.7078412,9.10128122 L48.1543574,14.6924437 L53.707655,20.2647704 C53.8940269,20.451781 53.8940269,20.7783664 53.707655,20.965377 C53.521283,21.1523876 53.1958128,21.1523876 53.0094409,20.965377 L47.4573097,15.3942207 L41.9239772,20.9650951 C41.7378536,21.1524816 41.412817,21.1524816 41.2266934,20.9650951 C41.0178715,20.8005609 41.0178708,20.4733198 41.2266934,20.2630805 L46.758861,14.6933787 Z M80.5706505,65.6173415 C79.9693797,66.2206379 79.0165319,66.2206379 78.4142584,65.6173415 L74.3532236,61.5169688 C72.6737567,62.7746747 70.5927741,63.5037416 68.3365044,63.5037416 C62.7214012,63.5037416 58.1832907,58.9503432 58.1832907,53.3163239 C58.1832907,47.6823046 62.7214012,43.1289062 68.3109333,43.1289062 C73.9017189,43.1289062 78.464147,47.6823046 78.464147,53.3163239 C78.464147,55.5801945 77.7375279,57.6682378 76.4840447,59.3533122 L80.5450795,63.4280277 C81.147328,64.0578617 81.147328,65.0129384 80.5705402,65.6172157 L80.5706505,65.6173415 Z M68.4683961,46 C64.432061,46 61.1670492,49.2827843 61.1670492,53.3410904 C61.1670492,57.3993966 64.432061,60.6821808 68.4683961,60.6821808 C72.5047312,60.6821808 75.7697429,57.3993966 75.7697429,53.3410904 C75.7707472,49.2827843 72.5057596,46 68.4683961,46 Z" id="Export/Icon/Data2"></path>
        </g>
    </g>
</svg>