<?xml version="1.0" encoding="UTF-8" standalone="no"?>
<svg
   viewBox="0 0 18 18.765841"
   width="18"
   height="18.765841"
   version="1.1"
   id="svg4"
   xmlns="http://www.w3.org/2000/svg"
   xmlns:svg="http://www.w3.org/2000/svg">
  <defs
     id="defs8" />
  <path
     fill-rule="evenodd"
     d="m 8.03,0.35584101 a 1.5,1.5 0 0 1 1.94,0 l 7.5,6.36299999 a 1.5,1.5 0 0 1 0.53,1.144 v 9.403 a 1.5,1.5 0 0 1 -1.5,1.5 h -5.75 a 0.75,0.75 0 0 1 -0.75,-0.75 v -6.25 H 8 v 6.25 a 0.75,0.75 0 0 1 -0.75,0.75 H 1.5 a 1.5,1.5 0 0 1 -1.5,-1.5 v -9.403 c 0,-0.44 0.194,-0.859 0.53,-1.144 z M 9,1.499841 l -7.5,6.363 v 9.403 h 5 v -6.25 a 0.75,0.75 0 0 1 0.75,-0.75 h 3.5 a 0.75,0.75 0 0 1 0.75,0.75 v 6.25 h 5 v -9.403 z"
     id="path2"
     style="fill:#ffffff" />
</svg>
