<?xml version="1.0" encoding="utf-8"?>
<!-- Generator: Adobe Illustrator 16.0.4, SVG Export Plug-In . SVG Version: 6.00 Build 0)  -->
<!DOCTYPE svg PUBLIC "-//W3C//DTD SVG 1.1//EN" "http://www.w3.org/Graphics/SVG/1.1/DTD/svg11.dtd">
<svg version="1.1" xmlns="http://www.w3.org/2000/svg" xmlns:xlink="http://www.w3.org/1999/xlink" x="0px" y="0px" width="425px"
	 height="85px" viewBox="0 0 425 85" enable-background="new 0 0 425 85" xml:space="preserve">
<g id="Bildmarke_HPI">
	<g>
		<rect x="343.999" y="11" fill="#B1063A" width="70" height="70"/>
		<rect x="363.999" y="1" fill="#F6A800" width="60" height="60"/>
		<rect x="363.999" y="11" fill="#DD6108" width="50" height="50"/>
		<path fill="#FFFFFF" d="M384.344,18.767h-2.314c-0.256,0-0.466,0.184-0.466,0.446v6.42h-6.604v-6.42
			c0-0.263-0.217-0.446-0.466-0.446h-2.314c-0.249,0-0.466,0.184-0.466,0.446v16.385c0,0.264,0.217,0.465,0.466,0.465h2.314
			c0.249,0,0.466-0.202,0.466-0.465v-7.117h6.604v7.117c0,0.264,0.21,0.465,0.466,0.465h2.314c0.242,0,0.466-0.202,0.466-0.465
			V19.213C384.81,18.95,384.586,18.767,384.344,18.767L384.344,18.767z M393.648,18.582c-1.713,0-3.361,0.117-4.567,0.3
			c-0.466,0.068-0.745,0.232-0.745,0.697v16.019c0,0.264,0.212,0.465,0.469,0.465h2.332c0.244,0,0.433-0.202,0.433-0.465v-6.07
			c0.531,0.017,1.46,0.084,2.079,0.084c3.589,0,6.707-1.326,6.707-5.441v-0.214C400.355,19.842,397.237,18.582,393.648,18.582
			L393.648,18.582z M397.141,24.171c0,1.859-0.992,2.789-3.492,2.789c-0.393,0-1.713-0.041-2.079-0.069v-5.539
			c0.427-0.049,1.59-0.1,2.079-0.1c2.329,0,3.492,0.748,3.492,2.704V24.171L397.141,24.171z M405.822,18.767h-2.318
			c-0.248,0-0.466,0.184-0.466,0.446v16.385c0,0.264,0.218,0.465,0.466,0.465h2.318c0.246,0,0.466-0.202,0.466-0.465V19.213
			C406.288,18.95,406.068,18.767,405.822,18.767L405.822,18.767z"/>
	</g>
</g>
<g id="by_Hasso-Plattner-Institut_Kopie_Kopie">
	<g>
		<path fill="#FFFFFF" d="M192.14,81.009c-0.729,0-1.487-0.062-2.245-0.207c-0.22-0.038-0.254-0.112-0.254-0.279v-8.549
			c0-0.119,0.084-0.231,0.217-0.231h0.623c0.125,0,0.232,0.097,0.232,0.231v2.271c0.465-0.085,1.037-0.124,1.427-0.124
			c1.773,0,2.664,1.077,2.664,2.993v0.881C194.804,79.823,193.974,81.009,192.14,81.009z M193.729,77.114
			c0-1.307-0.39-2.054-1.59-2.054c-0.377,0-1.024,0.014-1.427,0.087v4.848c0.412,0.035,1.014,0.072,1.427,0.072
			c1.212,0,1.59-0.745,1.59-2.072V77.114z"/>
		<path fill="#FFFFFF" d="M201.462,74.501l-2.017,7.036c-0.38,1.317-0.832,1.803-2.235,1.803c-0.342,0-0.768-0.048-1.024-0.109
			c-0.147-0.038-0.257-0.073-0.257-0.194v-0.452c0-0.135,0.097-0.196,0.231-0.196c0.013,0,0.025,0,0.036,0
			c0.27,0.024,0.818,0.07,1.088,0.07c0.691,0,0.998-0.18,1.208-1.035l0.121-0.498h-0.171c-0.364,0-0.68-0.09-0.902-0.847
			l-1.624-5.577c-0.013-0.023-0.013-0.062-0.013-0.085c0-0.121,0.074-0.209,0.22-0.209h0.675c0.096,0,0.18,0.099,0.204,0.194
			l1.44,5.302c0.062,0.244,0.146,0.269,0.232,0.269h0.197l1.487-5.58c0.023-0.097,0.123-0.185,0.233-0.185h0.681
			c0.125,0,0.199,0.088,0.199,0.209C201.473,74.439,201.473,74.478,201.462,74.501z"/>
		<path fill="#FFFFFF" d="M212.504,80.925h-0.622c-0.134,0-0.244-0.11-0.244-0.245v-4.054h-4.178v4.054
			c0,0.135-0.108,0.245-0.243,0.245h-0.621c-0.134,0-0.244-0.11-0.244-0.245v-8.583c0-0.137,0.11-0.242,0.244-0.242h0.621
			c0.135,0,0.243,0.105,0.243,0.242v3.539h4.178v-3.539c0-0.137,0.11-0.242,0.244-0.242h0.622c0.135,0,0.246,0.105,0.246,0.242
			v8.583C212.75,80.814,212.639,80.925,212.504,80.925z"/>
		<path fill="#FFFFFF" d="M219.066,80.925h-0.562c-0.136,0-0.244-0.11-0.244-0.245v-0.268c-0.588,0.341-1.196,0.597-1.882,0.597
			c-1.038,0-1.987-0.453-1.987-1.979v-0.144c0-1.321,0.767-1.98,2.942-1.98h0.901v-0.486c0-1.027-0.354-1.38-1.307-1.38
			c-0.796,0-1.38,0.047-1.867,0.096c-0.023,0-0.039,0-0.061,0c-0.111,0-0.223-0.033-0.223-0.192v-0.429
			c0-0.134,0.084-0.208,0.26-0.231c0.5-0.088,1.061-0.161,1.891-0.161c1.697,0,2.384,0.857,2.384,2.298v4.261
			C219.312,80.814,219.199,80.925,219.066,80.925z M218.235,77.677h-0.901c-1.479,0-1.871,0.328-1.871,1.195v0.145
			c0,0.88,0.413,1.11,1.124,1.11c0.561,0,1.062-0.167,1.648-0.485V77.677z"/>
		<path fill="#FFFFFF" d="M223.022,81.009c-0.452,0-1.331-0.035-1.929-0.18c-0.157-0.041-0.254-0.114-0.254-0.247v-0.43
			c0-0.107,0.097-0.181,0.214-0.181c0.028,0,0.04,0,0.052,0c0.586,0.073,1.476,0.135,1.917,0.135c0.795,0,1.21-0.21,1.21-0.868
			c0-0.366-0.222-0.596-0.915-1.013l-1.235-0.734c-0.744-0.45-1.242-0.976-1.242-1.744c0-1.27,0.95-1.626,2.207-1.626
			c0.685,0,1.331,0.062,1.905,0.161c0.159,0.023,0.232,0.109,0.232,0.242v0.403c0,0.146-0.082,0.207-0.208,0.207
			c-0.014,0-0.024,0-0.035,0c-0.431-0.033-1.21-0.096-1.895-0.096c-0.682,0-1.135,0.085-1.135,0.708
			c0,0.366,0.281,0.599,0.843,0.928l1.208,0.718c1.014,0.603,1.344,1.126,1.344,1.846C225.307,80.482,224.391,81.009,223.022,81.009
			z"/>
		<path fill="#FFFFFF" d="M228.862,81.009c-0.452,0-1.332-0.035-1.927-0.18c-0.16-0.041-0.259-0.114-0.259-0.247v-0.43
			c0-0.107,0.099-0.181,0.219-0.181c0.024,0,0.04,0,0.05,0c0.585,0.073,1.475,0.135,1.917,0.135c0.792,0,1.209-0.21,1.209-0.868
			c0-0.366-0.221-0.596-0.918-1.013l-1.231-0.734c-0.745-0.45-1.245-0.976-1.245-1.744c0-1.27,0.951-1.626,2.21-1.626
			c0.685,0,1.329,0.062,1.902,0.161c0.159,0.023,0.232,0.109,0.232,0.242v0.403c0,0.146-0.083,0.207-0.206,0.207
			c-0.015,0-0.026,0-0.038,0c-0.428-0.033-1.206-0.096-1.891-0.096c-0.682,0-1.135,0.085-1.135,0.708
			c0,0.366,0.279,0.599,0.84,0.928l1.209,0.718c1.015,0.603,1.345,1.126,1.345,1.846C231.146,80.482,230.232,81.009,228.862,81.009z
			"/>
		<path fill="#FFFFFF" d="M235.238,81.009c-1.796,0-2.712-1.186-2.712-2.979v-0.929c0-1.795,0.916-2.98,2.712-2.98
			s2.723,1.186,2.723,2.98v0.929C237.961,79.823,237.034,81.009,235.238,81.009z M236.886,77.102c0-1.243-0.501-2.041-1.647-2.041
			c-1.135,0-1.64,0.782-1.64,2.041v0.929c0,1.243,0.494,2.037,1.64,2.037c1.137,0,1.647-0.778,1.647-2.037V77.102z"/>
		<path fill="#FFFFFF" d="M242.181,77.797h-2.429c-0.136,0-0.232-0.073-0.232-0.209v-0.474c0-0.124,0.097-0.221,0.232-0.221h2.429
			c0.135,0,0.231,0.087,0.231,0.221v0.474C242.412,77.711,242.315,77.797,242.181,77.797z"/>
		<path fill="#FFFFFF" d="M246.51,77.309c-0.39,0-0.902-0.034-1.22-0.062v3.433c0,0.122-0.086,0.245-0.221,0.245h-0.659
			c-0.123,0-0.22-0.11-0.22-0.245v-8.511c0-0.17,0.114-0.28,0.294-0.305c0.526-0.059,1.317-0.101,2.025-0.101
			c1.979,0,3.421,0.687,3.421,2.652v0.158C249.931,76.613,248.488,77.309,246.51,77.309z M248.817,74.416
			c0-1.233-0.731-1.709-2.308-1.709c-0.379,0-0.931,0.023-1.22,0.047v3.577c0.279,0.015,0.9,0.047,1.22,0.047
			c1.674,0,2.308-0.535,2.308-1.804V74.416z"/>
		<path fill="#FFFFFF" d="M252.398,80.925h-0.634c-0.121,0-0.219-0.11-0.219-0.245v-8.706c0-0.119,0.085-0.231,0.219-0.231h0.634
			c0.123,0,0.221,0.097,0.221,0.231v8.706C252.619,80.802,252.534,80.925,252.398,80.925z"/>
		<path fill="#FFFFFF" d="M258.861,80.925h-0.561c-0.134,0-0.244-0.11-0.244-0.245v-0.268c-0.587,0.341-1.198,0.597-1.883,0.597
			c-1.038,0-1.991-0.453-1.991-1.979v-0.144c0-1.321,0.771-1.98,2.943-1.98h0.904v-0.486c0-1.027-0.356-1.38-1.306-1.38
			c-0.795,0-1.38,0.047-1.868,0.096c-0.025,0-0.036,0-0.062,0c-0.109,0-0.22-0.033-0.22-0.192v-0.429
			c0-0.134,0.085-0.208,0.256-0.231c0.502-0.088,1.063-0.161,1.894-0.161c1.699,0,2.381,0.857,2.381,2.298v4.261
			C259.105,80.814,258.995,80.925,258.861,80.925z M258.03,77.677h-0.904c-1.476,0-1.866,0.328-1.866,1.195v0.145
			c0,0.88,0.413,1.11,1.122,1.11c0.562,0,1.063-0.167,1.648-0.485V77.677z"/>
		<path fill="#FFFFFF" d="M264.198,80.946c-0.243,0.039-0.562,0.062-0.794,0.062c-1.122,0-1.663-0.294-1.663-1.637v-4.261
			l-1.179-0.133c-0.139-0.014-0.235-0.087-0.235-0.222v-0.33c0-0.132,0.097-0.22,0.235-0.22h1.179v-1.193
			c0-0.124,0.093-0.22,0.223-0.245l0.635-0.099c0.012,0,0.023,0,0.039,0c0.096,0,0.182,0.084,0.182,0.207v1.33h1.318
			c0.134,0,0.241,0.111,0.241,0.243v0.418c0,0.133-0.107,0.243-0.241,0.243h-1.318v4.261c0,0.673,0.171,0.77,0.659,0.77h0.684
			c0.17,0,0.257,0.05,0.257,0.172v0.425C264.419,80.851,264.357,80.925,264.198,80.946z"/>
		<path fill="#FFFFFF" d="M269.162,80.946c-0.246,0.039-0.562,0.062-0.795,0.062c-1.124,0-1.66-0.294-1.66-1.637v-4.261
			l-1.186-0.133c-0.133-0.014-0.23-0.087-0.23-0.222v-0.33c0-0.132,0.098-0.22,0.23-0.22h1.186v-1.193
			c0-0.124,0.085-0.22,0.22-0.245l0.635-0.099c0.013,0,0.024,0,0.034,0c0.1,0,0.188,0.084,0.188,0.207v1.33h1.317
			c0.134,0,0.241,0.111,0.241,0.243v0.418c0,0.133-0.107,0.243-0.241,0.243h-1.317v4.261c0,0.673,0.167,0.77,0.659,0.77h0.68
			c0.171,0,0.258,0.05,0.258,0.172v0.425C269.381,80.851,269.317,80.925,269.162,80.946z"/>
		<path fill="#FFFFFF" d="M275.721,80.925h-0.586c-0.131,0-0.243-0.11-0.243-0.245v-4.017c0-1.233-0.416-1.611-1.345-1.611
			c-0.512,0-1.084,0.195-1.646,0.476v5.152c0,0.122-0.112,0.245-0.244,0.245h-0.601c-0.12,0-0.231-0.11-0.231-0.245V74.45
			c0-0.132,0.101-0.243,0.231-0.243h0.612c0.136,0,0.232,0.111,0.232,0.243v0.233c0.671-0.378,1.222-0.562,1.941-0.562
			c1.465,0,2.124,0.918,2.124,2.542v4.017C275.966,80.814,275.856,80.925,275.721,80.925z"/>
		<path fill="#FFFFFF" d="M282.74,77.906h-4.095v0.173c0,1.453,0.574,1.988,1.698,1.988c0.707,0,1.612-0.048,2.173-0.133
			c0.025,0,0.036,0,0.063,0c0.096,0,0.192,0.047,0.192,0.172v0.416c0,0.157-0.05,0.241-0.242,0.279
			c-0.697,0.134-1.367,0.207-2.187,0.207c-1.405,0-2.772-0.657-2.772-2.93V76.98c0-1.747,0.964-2.859,2.71-2.859
			c1.783,0,2.687,1.126,2.687,2.859v0.658C282.968,77.797,282.884,77.906,282.74,77.906z M281.882,76.98
			c0-1.379-0.526-1.92-1.601-1.92c-1.048,0-1.636,0.602-1.636,1.92v0.105h3.236V76.98z"/>
		<path fill="#FFFFFF" d="M287.31,75.052c-0.562,0-1.074,0.146-1.687,0.511v5.117c0,0.122-0.108,0.245-0.243,0.245h-0.598
			c-0.124,0-0.231-0.11-0.231-0.245V74.45c0-0.132,0.098-0.243,0.231-0.243h0.574c0.135,0,0.232,0.111,0.232,0.243v0.257
			c0.61-0.425,1.172-0.586,1.721-0.586c0.175,0,0.257,0.073,0.257,0.221v0.5C287.566,74.979,287.484,75.052,287.31,75.052z"/>
		<path fill="#FFFFFF" d="M290.663,77.797h-2.431c-0.134,0-0.231-0.073-0.231-0.209v-0.474c0-0.124,0.098-0.221,0.231-0.221h2.431
			c0.134,0,0.231,0.087,0.231,0.221v0.474C290.895,77.711,290.797,77.797,290.663,77.797z"/>
		<path fill="#FFFFFF" d="M293.627,80.925h-0.674c-0.124,0-0.221-0.11-0.221-0.245v-8.596c0-0.124,0.087-0.229,0.221-0.229h0.674
			c0.118,0,0.216,0.096,0.216,0.229v8.596C293.843,80.802,293.76,80.925,293.627,80.925z"/>
		<path fill="#FFFFFF" d="M300.821,80.925h-0.585c-0.134,0-0.241-0.11-0.241-0.245v-4.017c0-1.233-0.418-1.611-1.345-1.611
			c-0.514,0-1.087,0.195-1.646,0.476v5.152c0,0.122-0.112,0.245-0.247,0.245h-0.601c-0.117,0-0.229-0.11-0.229-0.245V74.45
			c0-0.132,0.098-0.243,0.229-0.243h0.612c0.136,0,0.235,0.111,0.235,0.243v0.233c0.668-0.378,1.22-0.562,1.937-0.562
			c1.468,0,2.126,0.918,2.126,2.542v4.017C301.066,80.814,300.957,80.925,300.821,80.925z"/>
		<path fill="#FFFFFF" d="M304.778,81.009c-0.451,0-1.326-0.035-1.926-0.18c-0.158-0.041-0.258-0.114-0.258-0.247v-0.43
			c0-0.107,0.1-0.181,0.221-0.181c0.027,0,0.037,0,0.049,0c0.588,0.073,1.477,0.135,1.914,0.135c0.798,0,1.213-0.21,1.213-0.868
			c0-0.366-0.222-0.596-0.918-1.013l-1.233-0.734c-0.74-0.45-1.245-0.976-1.245-1.744c0-1.27,0.954-1.626,2.21-1.626
			c0.683,0,1.335,0.062,1.904,0.161c0.16,0.023,0.235,0.109,0.235,0.242v0.403c0,0.146-0.089,0.207-0.21,0.207
			c-0.011,0-0.025,0-0.034,0c-0.43-0.033-1.213-0.096-1.896-0.096c-0.688,0-1.137,0.085-1.137,0.708
			c0,0.366,0.282,0.599,0.846,0.928l1.206,0.718c1.015,0.603,1.342,1.126,1.342,1.846C307.062,80.482,306.148,81.009,304.778,81.009
			z"/>
		<path fill="#FFFFFF" d="M312.137,80.946c-0.247,0.039-0.562,0.062-0.798,0.062c-1.122,0-1.657-0.294-1.657-1.637v-4.261
			l-1.186-0.133c-0.134-0.014-0.231-0.087-0.231-0.222v-0.33c0-0.132,0.098-0.22,0.231-0.22h1.186v-1.193
			c0-0.124,0.082-0.22,0.22-0.245l0.633-0.099c0.012,0,0.028,0,0.039,0c0.097,0,0.181,0.084,0.181,0.207v1.33h1.318
			c0.135,0,0.244,0.111,0.244,0.243v0.418c0,0.133-0.109,0.243-0.244,0.243h-1.318v4.261c0,0.673,0.172,0.77,0.659,0.77h0.683
			c0.174,0,0.257,0.05,0.257,0.172v0.425C312.353,80.851,312.293,80.925,312.137,80.946z"/>
		<path fill="#FFFFFF" d="M314.646,73.133h-0.62c-0.135,0-0.245-0.108-0.245-0.243v-0.976c0-0.137,0.11-0.246,0.245-0.246h0.62
			c0.136,0,0.245,0.109,0.245,0.246v0.976C314.891,73.024,314.781,73.133,314.646,73.133z M314.62,80.925h-0.583
			c-0.137,0-0.243-0.11-0.243-0.245V74.45c0-0.132,0.106-0.243,0.243-0.243h0.583c0.14,0,0.246,0.111,0.246,0.243v6.229
			C314.866,80.814,314.76,80.925,314.62,80.925z"/>
		<path fill="#FFFFFF" d="M320.178,80.946c-0.247,0.039-0.562,0.062-0.798,0.062c-1.122,0-1.657-0.294-1.657-1.637v-4.261
			l-1.186-0.133c-0.134-0.014-0.231-0.087-0.231-0.222v-0.33c0-0.132,0.098-0.22,0.231-0.22h1.186v-1.193
			c0-0.124,0.082-0.22,0.22-0.245l0.633-0.099c0.012,0,0.028,0,0.039,0c0.097,0,0.181,0.084,0.181,0.207v1.33h1.318
			c0.135,0,0.244,0.111,0.244,0.243v0.418c0,0.133-0.109,0.243-0.244,0.243h-1.318v4.261c0,0.673,0.172,0.77,0.659,0.77h0.683
			c0.174,0,0.257,0.05,0.257,0.172v0.425C320.394,80.851,320.334,80.925,320.178,80.946z"/>
		<path fill="#FFFFFF" d="M326.657,80.925h-0.609c-0.139,0-0.235-0.11-0.235-0.245v-0.232c-0.671,0.382-1.222,0.562-1.939,0.562
			c-1.466,0-2.125-0.915-2.125-2.54V74.45c0-0.132,0.108-0.243,0.244-0.243h0.587c0.131,0,0.243,0.111,0.243,0.243v4.019
			c0,1.234,0.415,1.609,1.345,1.609c0.511,0,1.083-0.192,1.646-0.471V74.45c0-0.119,0.112-0.243,0.244-0.243h0.601
			c0.12,0,0.231,0.111,0.231,0.243v6.229C326.889,80.814,326.789,80.925,326.657,80.925z"/>
		<path fill="#FFFFFF" d="M332.134,80.946c-0.241,0.039-0.56,0.062-0.792,0.062c-1.123,0-1.66-0.294-1.66-1.637v-4.261l-1.185-0.133
			c-0.133-0.014-0.229-0.087-0.229-0.222v-0.33c0-0.132,0.097-0.22,0.229-0.22h1.185v-1.193c0-0.124,0.084-0.22,0.219-0.245
			l0.636-0.099c0.016,0,0.021,0,0.037,0c0.098,0,0.183,0.084,0.183,0.207v1.33h1.319c0.133,0,0.245,0.111,0.245,0.243v0.418
			c0,0.133-0.112,0.243-0.245,0.243h-1.319v4.261c0,0.673,0.172,0.77,0.66,0.77h0.682c0.176,0,0.259,0.05,0.259,0.172v0.425
			C332.356,80.851,332.295,80.925,332.134,80.946z"/>
	</g>
</g>
<g id="Digital_Health_Center">
	<g>
		<path fill="#FFFFFF" d="M168.105,31.976c-1.977,0-4.649-0.194-5.484-0.333c-0.473-0.083-0.724-0.306-0.724-0.863V12.042
			c0-0.557,0.251-0.779,0.724-0.863c0.835-0.139,3.508-0.334,5.484-0.334c5.568,0,8.742,3.006,8.742,8.519v4.093
			C176.847,28.969,173.673,31.976,168.105,31.976z M173.005,19.364c0-4.176-2.116-5.262-4.9-5.262c-1.03,0-1.754,0.056-2.338,0.084
			v14.449c0.584,0.027,1.309,0.083,2.338,0.083c2.784,0,4.9-1.086,4.9-5.262V19.364z"/>
		<path fill="#FFFFFF" d="M183.198,13.963h-2.7c-0.306,0-0.584-0.25-0.584-0.557v-2.45c0-0.306,0.278-0.557,0.584-0.557h2.7
			c0.307,0,0.557,0.251,0.557,0.557v2.45C183.755,13.713,183.504,13.963,183.198,13.963z M183.114,31.754h-2.561
			c-0.306,0-0.557-0.279-0.557-0.585v-14.56c0-0.306,0.25-0.557,0.557-0.557h2.561c0.306,0,0.557,0.25,0.557,0.557v14.56
			C183.671,31.475,183.42,31.754,183.114,31.754z"/>
		<path fill="#FFFFFF" d="M200.225,18.585l-0.919,0.362c0.445,0.64,0.696,1.253,0.696,2.228v0.194c0,3.48-2.394,5.067-6.598,5.067
			c-1.476,0-2.478-0.251-3.035-0.473c-0.334,0.222-0.473,0.473-0.473,0.724c0,0.556,0.306,0.779,0.946,0.917l3.285,0.78
			c3.786,0.891,6.236,1.476,6.236,4.454v0.194c0,2.84-2.088,4.371-6.821,4.371c-4.51,0-6.904-1.698-6.904-4.621v-0.25
			c0-1.141,0.529-2.255,1.42-3.063c-0.779-0.584-1.253-1.558-1.253-2.561v-0.028c0-0.863,0.362-1.726,1.113-2.255
			c-0.835-0.863-1.141-1.865-1.141-3.258v-0.194c0-2.784,1.81-5.123,6.626-5.123h6.515c0.418,0,0.751,0.334,0.751,0.751v1.169
			C200.67,18.39,200.559,18.446,200.225,18.585z M196.689,32.839c0-0.612-0.362-0.974-3.285-1.67l-2.478-0.584
			c-0.418,0.584-0.696,0.946-0.696,1.948v0.25c0,1.141,0.696,1.837,3.312,1.837c2.673,0,3.146-0.584,3.146-1.587V32.839z
			 M196.383,21.23c0-1.337-0.584-2.367-2.979-2.367c-2.367,0-3.007,1.058-3.007,2.367v0.222c0,1.031,0.417,2.2,3.007,2.2
			c2.311,0,2.979-0.808,2.979-2.2V21.23z"/>
		<path fill="#FFFFFF" d="M206.319,13.963h-2.7c-0.306,0-0.585-0.25-0.585-0.557v-2.45c0-0.306,0.279-0.557,0.585-0.557h2.7
			c0.307,0,0.558,0.251,0.558,0.557v2.45C206.877,13.713,206.626,13.963,206.319,13.963z M206.236,31.754h-2.562
			c-0.307,0-0.557-0.279-0.557-0.585v-14.56c0-0.306,0.25-0.557,0.557-0.557h2.562c0.306,0,0.557,0.25,0.557,0.557v14.56
			C206.793,31.475,206.542,31.754,206.236,31.754z"/>
		<path fill="#FFFFFF" d="M218.597,31.781c-0.667,0.111-1.28,0.194-1.893,0.194c-3.146,0-4.427-0.696-4.427-4.426v-8.742
			l-2.617-0.39c-0.306-0.056-0.557-0.25-0.557-0.557v-1.253c0-0.306,0.251-0.557,0.557-0.557h2.617v-2.283
			c0-0.307,0.25-0.501,0.557-0.558l2.59-0.445c0.027,0,0.083,0,0.11,0c0.251,0,0.446,0.139,0.446,0.418v2.868h2.505
			c0.307,0,0.557,0.25,0.557,0.557v1.643c0,0.306-0.25,0.557-0.557,0.557h-2.505v8.742c0,1.391,0.083,1.559,1.086,1.559h1.476
			c0.361,0,0.584,0.14,0.584,0.418v1.753C219.126,31.559,218.959,31.726,218.597,31.781z"/>
		<path fill="#FFFFFF" d="M232.763,31.754h-2.367c-0.306,0-0.557-0.251-0.557-0.557v-0.446c-1.28,0.779-2.589,1.225-3.925,1.225
			c-2.311,0-4.816-0.891-4.816-4.649v-0.111c0-3.175,1.948-4.816,6.792-4.816h1.755v-1.225c0-1.81-0.808-2.255-2.45-2.255
			c-1.782,0-3.619,0.111-4.538,0.223c-0.056,0-0.111,0-0.139,0c-0.278,0-0.502-0.083-0.502-0.473v-1.782
			c0-0.306,0.167-0.501,0.529-0.584c1.114-0.223,2.729-0.445,4.649-0.445c3.954,0,6.124,1.753,6.124,5.317v10.022
			C233.318,31.503,233.068,31.754,232.763,31.754z M229.645,24.849h-1.755c-2.532,0-3.09,0.808-3.09,2.367v0.111
			c0,1.364,0.612,1.726,2.005,1.726c1.002,0,2.032-0.333,2.84-0.779V24.849z"/>
		<path fill="#FFFFFF" d="M239.878,31.754h-2.589c-0.307,0-0.557-0.279-0.557-0.585V11.124c0-0.306,0.25-0.557,0.557-0.557h2.589
			c0.307,0,0.529,0.25,0.529,0.557v20.045C240.407,31.475,240.185,31.754,239.878,31.754z"/>
		<path fill="#FFFFFF" d="M266.493,31.754h-2.757c-0.305,0-0.555-0.251-0.555-0.557v-8.519h-7.908v8.519
			c0,0.306-0.25,0.557-0.556,0.557h-2.756c-0.308,0-0.558-0.251-0.558-0.557v-19.6c0-0.306,0.25-0.529,0.558-0.529h2.756
			c0.306,0,0.556,0.223,0.556,0.529v7.684h7.908v-7.684c0-0.306,0.25-0.529,0.555-0.529h2.757c0.307,0,0.557,0.223,0.557,0.529v19.6
			C267.05,31.503,266.8,31.754,266.493,31.754z"/>
		<path fill="#FFFFFF" d="M282.908,25.183h-9.075v0.083c0,1.615,0.667,3.536,3.34,3.536c2.032,0,3.954-0.167,5.124-0.279
			c0.026,0,0.055,0,0.083,0c0.277,0,0.501,0.139,0.501,0.417v1.838c0,0.446-0.084,0.64-0.584,0.724
			c-1.811,0.334-2.896,0.473-5.402,0.473c-2.784,0-6.736-1.503-6.736-6.987v-2.061c0-4.343,2.422-7.071,6.682-7.071
			c4.287,0,6.625,2.923,6.625,7.071v1.559C283.465,24.932,283.298,25.183,282.908,25.183z M279.763,22.455
			c0-2.171-1.198-3.424-2.923-3.424c-1.728,0-2.98,1.225-2.98,3.424v0.112h5.903V22.455z"/>
		<path fill="#FFFFFF" d="M297.352,31.754h-2.367c-0.305,0-0.557-0.251-0.557-0.557v-0.446c-1.28,0.779-2.589,1.225-3.926,1.225
			c-2.311,0-4.814-0.891-4.814-4.649v-0.111c0-3.175,1.948-4.816,6.791-4.816h1.756v-1.225c0-1.81-0.808-2.255-2.451-2.255
			c-1.781,0-3.618,0.111-4.538,0.223c-0.055,0-0.111,0-0.139,0c-0.278,0-0.502-0.083-0.502-0.473v-1.782
			c0-0.306,0.167-0.501,0.529-0.584c1.114-0.223,2.729-0.445,4.649-0.445c3.954,0,6.125,1.753,6.125,5.317v10.022
			C297.908,31.503,297.657,31.754,297.352,31.754z M294.234,24.849h-1.756c-2.532,0-3.089,0.808-3.089,2.367v0.111
			c0,1.364,0.612,1.726,2.003,1.726c1.003,0,2.034-0.333,2.842-0.779V24.849z"/>
		<path fill="#FFFFFF" d="M304.469,31.754h-2.589c-0.308,0-0.558-0.279-0.558-0.585V11.124c0-0.306,0.25-0.557,0.558-0.557h2.589
			c0.306,0,0.529,0.25,0.529,0.557v20.045C304.998,31.475,304.774,31.754,304.469,31.754z"/>
		<path fill="#FFFFFF" d="M316.829,31.781c-0.669,0.111-1.281,0.194-1.894,0.194c-3.145,0-4.426-0.696-4.426-4.426v-8.742
			l-2.617-0.39c-0.306-0.056-0.556-0.25-0.556-0.557v-1.253c0-0.306,0.25-0.557,0.556-0.557h2.617v-2.283
			c0-0.307,0.25-0.501,0.557-0.558l2.59-0.445c0.026,0,0.083,0,0.11,0c0.252,0,0.445,0.139,0.445,0.418v2.868h2.506
			c0.307,0,0.557,0.25,0.557,0.557v1.643c0,0.306-0.25,0.557-0.557,0.557h-2.506v8.742c0,1.391,0.083,1.559,1.086,1.559h1.477
			c0.362,0,0.584,0.14,0.584,0.418v1.753C317.358,31.559,317.191,31.726,316.829,31.781z"/>
		<path fill="#FFFFFF" d="M332.016,31.754h-2.561c-0.307,0-0.557-0.279-0.557-0.585v-9.159c0-2.422-0.418-3.035-2.284-3.035
			c-0.946,0-2.059,0.334-3.229,0.947v11.247c0,0.307-0.25,0.585-0.558,0.585h-2.561c-0.307,0-0.557-0.279-0.557-0.585V11.124
			c0-0.306,0.25-0.557,0.557-0.557h2.561c0.308,0,0.558,0.25,0.558,0.557v5.763c1.058-0.641,2.228-1.03,4.204-1.03
			c3.841,0,4.983,2.728,4.983,6.152v9.159C332.573,31.475,332.321,31.754,332.016,31.754z"/>
		<path fill="#FFFFFF" d="M269.024,60.57c-1.17,0.224-2.256,0.362-4.622,0.362c-3.425,0-7.349-1.837-7.349-8.602V48.46
			c0-6.821,3.924-8.603,7.349-8.603c1.754,0,3.452,0.25,4.679,0.446c0.25,0.028,0.445,0.111,0.445,0.362v1.42
			c0,0.167-0.057,0.307-0.336,0.307c-0.026,0-0.055,0-0.083,0c-1.003-0.083-3.062-0.251-4.677-0.251
			c-2.729,0-4.845,1.586-4.845,6.319v3.871c0,4.676,2.116,6.319,4.845,6.319c1.587,0,3.591-0.14,4.594-0.224
			c0.028,0,0.083,0,0.111,0c0.306,0,0.445,0.141,0.445,0.445v1.142C269.581,60.349,269.331,60.516,269.024,60.57z"/>
		<path fill="#FFFFFF" d="M283.384,53.861h-9.326v0.39c0,3.313,1.309,4.538,3.871,4.538c1.614,0,3.674-0.111,4.955-0.306
			c0.055,0,0.083,0,0.14,0c0.222,0,0.445,0.11,0.445,0.389v0.948c0,0.361-0.111,0.556-0.557,0.639
			c-1.587,0.307-3.118,0.474-4.983,0.474c-3.202,0-6.32-1.503-6.32-6.682v-2.506c0-3.98,2.199-6.515,6.18-6.515
			c4.065,0,6.126,2.562,6.126,6.515v1.503C283.914,53.61,283.719,53.861,283.384,53.861z M281.436,51.745
			c0-3.145-1.196-4.371-3.647-4.371c-2.394,0-3.73,1.364-3.73,4.371v0.25h7.378V51.745z"/>
		<path fill="#FFFFFF" d="M297.992,60.737h-1.336c-0.307,0-0.557-0.25-0.557-0.556v-9.16c0-2.812-0.946-3.674-3.063-3.674
			c-1.169,0-2.478,0.445-3.757,1.084v11.75c0,0.277-0.252,0.556-0.558,0.556h-1.364c-0.279,0-0.529-0.25-0.529-0.556V45.983
			c0-0.307,0.224-0.557,0.529-0.557h1.392c0.307,0,0.53,0.25,0.53,0.557v0.529c1.529-0.862,2.782-1.281,4.426-1.281
			c3.34,0,4.844,2.089,4.844,5.791v9.16C298.549,60.487,298.298,60.737,297.992,60.737z"/>
		<path fill="#FFFFFF" d="M309.44,60.794c-0.558,0.084-1.281,0.139-1.811,0.139c-2.561,0-3.785-0.667-3.785-3.73v-9.716
			l-2.701-0.307c-0.307-0.027-0.529-0.194-0.529-0.5v-0.751c0-0.307,0.223-0.502,0.529-0.502h2.701v-2.728
			c0-0.279,0.195-0.5,0.5-0.557l1.448-0.223c0.028,0,0.056,0,0.084,0c0.222,0,0.417,0.195,0.417,0.474v3.034h3.006
			c0.308,0,0.558,0.25,0.558,0.557v0.946c0,0.307-0.25,0.558-0.558,0.558h-3.006v9.716c0,1.531,0.39,1.754,1.503,1.754h1.56
			c0.389,0,0.584,0.111,0.584,0.39v0.975C309.94,60.57,309.802,60.737,309.44,60.794z"/>
		<path fill="#FFFFFF" d="M323.31,53.861h-9.326v0.39c0,3.313,1.309,4.538,3.871,4.538c1.614,0,3.674-0.111,4.955-0.306
			c0.055,0,0.083,0,0.14,0c0.222,0,0.445,0.11,0.445,0.389v0.948c0,0.361-0.111,0.556-0.557,0.639
			c-1.587,0.307-3.118,0.474-4.983,0.474c-3.202,0-6.319-1.503-6.319-6.682v-2.506c0-3.98,2.198-6.515,6.179-6.515
			c4.066,0,6.126,2.562,6.126,6.515v1.503C323.84,53.61,323.645,53.861,323.31,53.861z M321.361,51.745
			c0-3.145-1.196-4.371-3.647-4.371c-2.394,0-3.73,1.364-3.73,4.371v0.25h7.378V51.745z"/>
		<path fill="#FFFFFF" d="M333.046,47.348c-1.28,0-2.449,0.333-3.841,1.168v11.666c0,0.277-0.252,0.556-0.558,0.556h-1.364
			c-0.278,0-0.529-0.25-0.529-0.556V45.983c0-0.307,0.224-0.557,0.529-0.557h1.308c0.308,0,0.529,0.25,0.529,0.557v0.584
			c1.393-0.974,2.673-1.336,3.926-1.336c0.39,0,0.585,0.168,0.585,0.502v1.142C333.631,47.179,333.436,47.348,333.046,47.348z"/>
	</g>
</g>
</svg>
