<svg xmlns:rdf="http://www.w3.org/1999/02/22-rdf-syntax-ns#" xmlns="http://www.w3.org/2000/svg" height="173.05" width="305.98" version="1.1" xmlns:cc="http://creativecommons.org/ns#" xmlns:dc="http://purl.org/dc/elements/1.1/">
<defs>
<clipPath id="a" clipPathUnits="userSpaceOnUse">
<path d="m0 0h2466v1785.8h-2466v-1785.8z"/>
</clipPath>
</defs>
<g transform="translate(-222.01 -445.84)">
<g transform="matrix(1.25 0 0 -1.25 220.75 668.18)">
<g transform="scale(.1)">
<g clip-path="url(#a)">
<path style="fill:#4f5358" d="m19.723 516.91h-6.9414c-1.3868 0-2.2657-1.172-2.2657-2.461v-91.519c0-1.43 1.0039-2.602 2.2657-2.602h6.9414c1.3867 0 2.2656 1.293 2.2656 2.602v91.519c0 1.43-1.0156 2.461-2.2656 2.461zm78.859 0h-60.656c-1.3867 0-2.5195-1.031-2.5195-2.34v-5.699c0-1.449 1.1328-2.09 2.5195-2.09h24.59v-83.851c0-1.43 1.0078-2.602 2.2657-2.602h6.9335c1.3868 0 2.2774 1.293 2.2774 2.602v83.851h24.59c1.3868 0 2.391 0.778 2.391 2.09v5.699c0 1.442-1.0042 2.34-2.391 2.34zm76.785-44.98-11.601 7.148c-9.578 6-13.739 9.633-13.739 15.742 0 9.5 5.547 12.352 18.536 12.352 7.312 0 16.14-0.391 21.687-0.781h0.254c1.262 0 2.148 0.781 2.148 2.089v5.579c0 1.293-0.886 1.953-2.148 2.211-4.793 0.781-14.5 1.558-21.941 1.558-19.172 0-30.137-7.277-30.137-23.008 0-10.41 5.801-17.031 17.398-24.308l12.239-7.684c11.476-7.258 15.128-10.918 15.128-17.418 0-9.082-4.035-15.332-19.171-15.332-5.801 0-15 0.25-20.801 0.781h-0.379c-1.133 0-2.141-0.648-2.141-2.07v-5.219c0-1.422 0.254-1.949 2.395-2.34 5.547-0.902 12.097-1.82 20.926-1.82 24.843 0 31.152 13.539 31.152 26 0 10.41-5.176 17.559-19.805 26.52zm80.586 19.898h-7.07c-1.133 0-2.137-0.906-2.391-1.949l-15.383-59.41h-2.019c-0.879 0-1.77 0.25-2.395 2.851l-14.882 56.418c-0.254 1.043-1.133 2.09-2.137 2.09h-6.946c-1.503 0-2.265-0.906-2.265-2.199 0-0.277 0-0.668 0.129-0.918l16.765-59.41c2.278-8.071 5.547-8.973 9.336-8.973h1.77l-1.262-5.328c-2.148-9.102-5.301-11.059-12.488-11.059-2.774 0-8.449 0.528-11.223 0.789h-0.379c-1.386 0-2.394-0.652-2.394-2.082v-4.82c0-1.289 1.133-1.68 2.648-2.066 2.645-0.641 7.059-1.172 10.594-1.172 14.504 0 19.16 5.191 23.078 19.238l20.801 74.883c0.125 0.25 0.125 0.641 0.125 0.918 0 1.293-0.75 2.199-2.012 2.199zm43.223-33.937-12.481 7.679c-5.8 3.508-8.699 5.969-8.699 9.879 0 6.621 4.656 7.539 11.727 7.539 7.062 0 15.129-0.648 19.543-1.039h0.379c1.261 0 2.14 0.653 2.14 2.211v4.301c0 1.418-0.754 2.32-2.394 2.59-5.926 1.039-12.606 1.679-19.668 1.679-12.989 0-22.832-3.769-22.832-17.281 0-8.187 5.175-13.789 12.871-18.597l12.734-7.793c7.188-4.411 9.453-6.887 9.453-10.797 0-7.012-4.285-9.223-12.48-9.223-4.539 0-13.75 0.652-19.805 1.43h-0.496c-1.262 0-2.277-0.778-2.277-1.957v-4.551c0-1.422 1.015-2.199 2.656-2.59 6.172-1.57 15.254-1.961 19.922-1.961 14.121 0 23.574 5.59 23.574 18.852 0 7.679-3.398 13.258-13.867 19.629zm58.508-29.243h-7.063c-5.039 0-6.805 1.043-6.805 8.18v45.383h13.622c1.386 0 2.519 1.168 2.519 2.59v4.437c0 1.422-1.133 2.59-2.519 2.59h-13.622v14.16c0 1.313-0.89 2.211-1.894 2.211h-0.383l-6.551-1.027c-1.386-0.262-2.265-1.293-2.265-2.602v-12.742h-12.239c-1.386 0-2.39-0.906-2.39-2.34v-3.508c0-1.429 1.004-2.21 2.39-2.351l12.239-1.418v-45.383c0-14.289 5.547-17.418 17.148-17.418 2.391 0 5.672 0.281 8.192 0.668 1.64 0.25 2.265 1.031 2.265 2.203v4.547c0 1.293-0.879 1.82-2.644 1.82zm37.148 64.082c-18.027 0-28-11.808-28-30.41v-11.699c0-24.18 14.133-31.211 28.633-31.211 8.449 0 15.383 0.781 22.57 2.211 2.02 0.391 2.528 1.309 2.528 3.008v4.41c0 1.289-1.016 1.82-2.02 1.82h-0.637c-5.801-0.918-15.125-1.429-22.441-1.429-11.602 0-17.527 5.718-17.527 21.191v1.82h42.246c1.511 0 2.39 1.168 2.39 2.848v7.031c0 18.461-9.336 30.41-27.742 30.41zm16.523-31.582h-33.417v1.172c0 14.051 6.054 20.41 16.894 20.41 11.102 0 16.523-5.718 16.523-20.41v-1.172zm86.915 31.723c-6.555 0-13.997-1.949-20.93-5.332-3.152 3.77-7.188 5.332-12.617 5.332-6.934 0-13.36-2.871-18.407-6.109v2.476c0 1.422-1.007 2.59-2.394 2.59h-6.309c-1.386 0-2.39-1.168-2.39-2.59v-66.308c0-1.43 0.886-2.602 2.136-2.602h6.692c1.387 0 2.265 1.293 2.265 2.602v54.859c5.301 2.742 10.848 5.063 15.391 5.063 6.551 0 9.707-2.321 9.707-13.633v-46.289c0-1.43 0.879-2.602 2.137-2.602h6.691c1.387 0 2.266 1.293 2.266 2.602v46.289c0 3.883-0.383 7.261-1.133 10.133 4.922 1.957 10.215 3.5 14.754 3.5 6.555 0 11.476-2.993 11.476-13.911v-46.011c0-1.43 1.133-2.602 2.52-2.602h6.055c1.386 0 2.519 1.172 2.519 2.602v46.011c0 18.071-9.074 23.93-20.429 23.93zm64.589-34.98-12.48 7.679c-5.805 3.508-8.703 5.969-8.703 9.879 0 6.621 4.668 7.539 11.73 7.539 7.059 0 15.125-0.648 19.539-1.039h0.379c1.262 0 2.141 0.653 2.141 2.211v4.301c0 1.418-0.75 2.32-2.391 2.59-5.929 1.039-12.609 1.679-19.668 1.679-12.988 0-22.824-3.769-22.824-17.281 0-8.187 5.168-13.789 12.863-18.597l12.735-7.793c7.187-4.411 9.453-6.887 9.453-10.797 0-7.012-4.289-9.223-12.481-9.223-4.543 0-13.742 0.652-19.797 1.43h-0.507c-1.258 0-2.266-0.778-2.266-1.957v-4.551c0-1.422 1.008-2.199 2.648-2.59 6.18-1.57 15.254-1.961 19.922-1.961 14.121 0 23.582 5.59 23.582 18.852 0 7.679-3.41 13.258-13.875 19.629zm108.19 59.16c-5.293 0.527-17.149 0.777-24.59 0.777-17.656 0-26.856-6.887-26.856-24.18v-50.058c0-17.281 9.2-24.18 26.856-24.18 7.441 0 19.797 0.141 24.59 0.668 0.762 0.113 1.262 1.031 1.262 1.813v6.621c0 0.918-0.5 1.566-1.387 1.566h-24.336c-13.371 0-15.508 3.633-15.508 13.512v21.859h38.711c1.387 0 2.52 1.153 2.52 2.602v4.937c0 1.422-1.133 2.59-2.52 2.59h-38.711v18.07c0 9.883 2.137 13.524 15.508 13.524h24.336c0.887 0 1.387 0.637 1.387 1.558v6.5c0 0.782-0.5 1.68-1.262 1.821zm45.207-24.321c-7.442 0-13.117-1.949-20.051-5.968v2.476c0 1.422-1.016 2.59-2.402 2.59h-6.297c-1.387 0-2.395-1.168-2.395-2.59v-66.308c0-1.43 1.133-2.602 2.395-2.602h6.18c1.386 0 2.519 1.293 2.519 2.602v54.859c5.801 2.992 11.731 5.063 17.023 5.063 9.579 0 13.875-4.024 13.875-17.153v-42.769c0-1.43 1.133-2.602 2.52-2.602h6.055c1.386 0 2.519 1.172 2.519 2.602v42.769c0 17.289-6.816 27.031-21.941 27.031zm90.945-0.902h-27.617c-21.688 0-27.996-11.437-27.996-23v-1.058c0-6.622 1.894-11.309 5.801-15.079-3.528-2.07-5.168-5.839-5.168-9.351v-0.141c0-4.019 1.757-8.32 5.8-10.129l0.879-0.398c-4.16-3.242-7.949-9.211-7.949-16.5v-1.172c0-12.738 9.082-20.672 29.004-20.672 20.684 0 28.75 7.66 28.75 20.141v1.062c0 12.199-11.844 15.86-24.207 19.098l-18.789 4.941c-2.902 0.782-3.906 1.95-3.906 4.16 0 1.95 1.004 3.379 3.152 4.411 3.652-1.563 7.941-2.59 14.629-2.59 19.414 0 27.988 7.929 27.988 22.219v1.058c0 7.012-2.011 10.91-4.285 13.383l4.539 0.91c1.387 0.258 2.266 0.777 2.266 2.457v3.383c0 1.57-1.387 2.867-2.891 2.867zm-39.219-62.398 14.25-3.77c11.348-2.988 15.379-5.082 15.379-10.129v-1.062c0-7.149-3.281-11.309-17.656-11.309-13.992 0-18.152 4.551-18.152 11.84v1.172c0 6.758 2.519 10 6.179 13.258zm28.625 38.34c0-7.79-3.41-13.258-17.023-13.258-14.5 0-17.031 7.539-17.031 13.258v1.058c0 7.262 2.91 13.902 17.031 13.902 13.613 0 17.023-6.109 17.023-13.902v-1.058zm34.383 24.058h-6.054c-1.387 0-2.52-1.168-2.52-2.59v-66.308c0-1.43 1.133-2.602 2.52-2.602h6.054c1.387 0 2.52 1.172 2.52 2.602v66.308c0 1.422-1.133 2.59-2.52 2.59zm0.254 27.043h-6.426c-1.386 0-2.527-1.18-2.527-2.601v-10.391c0-1.449 1.141-2.617 2.527-2.617h6.426c1.387 0 2.52 1.168 2.52 2.617v10.391c0 1.421-1.133 2.601-2.52 2.601zm49.902-26.141c-7.441 0-13.125-1.949-20.058-5.968v2.476c0 1.422-1.004 2.59-2.391 2.59h-6.301c-1.394 0-2.402-1.168-2.402-2.59v-66.308c0-1.43 1.133-2.602 2.402-2.602h6.172c1.387 0 2.52 1.293 2.52 2.602v54.859c5.801 2.992 11.73 5.063 17.031 5.063 9.578 0 13.867-4.024 13.867-17.153v-42.769c0-1.43 1.133-2.602 2.52-2.602h6.055c1.386 0 2.519 1.172 2.519 2.602v42.769c0 17.289-6.805 27.031-21.934 27.031zm63.262 0c-18.035 0-27.996-11.808-27.996-30.41v-11.699c0-24.18 14.121-31.211 28.621-31.211 8.449 0 15.391 0.781 22.578 2.211 2.012 0.391 2.52 1.309 2.52 3.008v4.41c0 1.289-1.016 1.82-2.02 1.82h-0.636c-5.801-0.918-15.125-1.429-22.442-1.429-11.601 0-17.527 5.718-17.527 21.191v1.82h42.246c1.512 0 2.391 1.168 2.391 2.848v7.031c0 18.461-9.325 30.41-27.735 30.41zm16.516-31.582h-33.418v1.172c0 14.051 6.055 20.41 16.902 20.41 11.094 0 16.516-5.718 16.516-20.41v-1.172zm50.734 31.582c-18.039 0-28-11.808-28-30.41v-11.699c0-24.18 14.121-31.211 28.62-31.211 8.46 0 15.39 0.781 22.58 2.211 2.01 0.391 2.52 1.309 2.52 3.008v4.41c0 1.289-1.02 1.82-2.02 1.82h-0.63c-5.8-0.918-15.13-1.429-22.45-1.429-11.6 0-17.518 5.718-17.518 21.191v1.82h42.238c1.51 0 2.39 1.168 2.39 2.848v7.031c0 18.461-9.32 30.41-27.73 30.41zm16.51-31.582h-33.408v1.172c0 14.051 6.048 20.41 16.898 20.41 11.09 0 16.51-5.718 16.51-20.41v-1.172zm53 31.582c-5.68 0-11.48-1.679-17.77-6.23v2.738c0 1.422-1.02 2.59-2.41 2.59h-5.91c-1.4 0-2.41-1.168-2.41-2.59v-66.308c0-1.43 1.14-2.602 2.41-2.602h6.17c1.38 0 2.52 1.293 2.52 2.602v54.468c6.31 3.911 11.6 5.454 17.4 5.454 1.77 0 2.66 0.777 2.66 2.226v5.313c0 1.558-0.89 2.339-2.66 2.339zm22.99-0.902h-6.06c-1.38 0-2.52-1.168-2.52-2.59v-66.308c0-1.43 1.14-2.602 2.52-2.602h6.06c1.38 0 2.52 1.172 2.52 2.602v66.308c0 1.422-1.14 2.59-2.52 2.59zm0.25 27.043h-6.42c-1.39 0-2.53-1.18-2.53-2.601v-10.391c0-1.449 1.14-2.617 2.53-2.617h6.42c1.39 0 2.52 1.168 2.52 2.617v10.391c0 1.421-1.13 2.601-2.52 2.601zm49.88-26.141c-7.44 0-13.11-1.949-20.05-5.968v2.476c0 1.422-1 2.59-2.39 2.59h-6.31c-1.38 0-2.39-1.168-2.39-2.59v-66.308c0-1.43 1.13-2.602 2.39-2.602h6.19c1.38 0 2.51 1.293 2.51 2.602v54.859c5.81 2.992 11.73 5.063 17.03 5.063 9.59 0 13.87-4.024 13.87-17.153v-42.769c0-1.43 1.14-2.602 2.52-2.602h6.06c1.38 0 2.52 1.172 2.52 2.602v42.769c0 17.289-6.81 27.031-21.95 27.031zm90.95-0.902h-27.62c-21.69 0-27.99-11.437-27.99-23v-1.058c0-6.622 1.89-11.309 5.8-15.079-3.53-2.07-5.17-5.839-5.17-9.351v-0.141c0-4.019 1.77-8.32 5.8-10.129l0.88-0.398c-4.16-3.242-7.94-9.211-7.94-16.5v-1.172c0-12.738 9.08-20.672 29-20.672 20.68 0 28.75 7.66 28.75 20.141v1.062c0 12.199-11.85 15.86-24.21 19.098l-18.79 4.941c-2.89 0.782-3.91 1.95-3.91 4.16 0 1.95 1.02 3.379 3.15 4.411 3.67-1.563 7.94-2.59 14.63-2.59 19.43 0 28 7.929 28 22.219v1.058c0 7.012-2.02 10.91-4.29 13.383l4.54 0.91c1.39 0.258 2.27 0.777 2.27 2.457v3.383c0 1.57-1.39 2.867-2.9 2.867zm-39.22-62.398 14.25-3.77c11.35-2.988 15.39-5.082 15.39-10.129v-1.062c0-7.149-3.28-11.309-17.66-11.309-14 0-18.16 4.551-18.16 11.84v1.172c0 6.758 2.52 10 6.18 13.258zm28.63 38.34c0-7.79-3.4-13.258-17.03-13.258-14.5 0-17.02 7.539-17.02 13.258v1.058c0 7.262 2.9 13.902 17.02 13.902 13.63 0 17.03-6.109 17.03-13.902v-1.058zm63.8 49.14h-6.56c-1.26 0-2.39-1.172-2.39-2.461v-116.87c0-1.289 1.13-2.457 2.39-2.457h6.56c1.26 0 2.27 1.168 2.27 2.457v116.87c0 1.289-1.01 2.461-2.27 2.461zm110.72 0h-6.81c-1.39 0-2.4-1.172-2.4-2.461v-59.019c0-16.899-5.04-25.879-20.69-25.879-15.62 0-20.67 9.097-20.67 25.879v59.019c0 1.43-1.13 2.461-2.39 2.461h-6.82c-1.39 0-2.39-1.172-2.39-2.461v-59.019c0-24.828 11.85-36.02 32.27-36.02 20.43 0 32.29 11.192 32.29 36.02v59.019c0 1.43-1.13 2.461-2.39 2.461zm50.61-24.18c-7.44 0-13.12-1.949-20.06-5.968v2.476c0 1.422-1 2.59-2.39 2.59h-6.3c-1.38 0-2.4-1.168-2.4-2.59v-66.308c0-1.43 1.13-2.602 2.4-2.602h6.17c1.39 0 2.52 1.293 2.52 2.602v54.859c5.8 2.992 11.73 5.063 17.03 5.063 9.58 0 13.87-4.024 13.87-17.153v-42.769c0-1.43 1.13-2.602 2.52-2.602h6.06c1.38 0 2.52 1.172 2.52 2.602v42.769c0 17.289-6.81 27.031-21.94 27.031zm47.62 26.141h-6.44c-1.38 0-2.53-1.18-2.53-2.601v-10.391c0-1.449 1.15-2.617 2.53-2.617h6.44c1.39 0 2.52 1.168 2.52 2.617v10.391c0 1.421-1.13 2.601-2.52 2.601zm-0.25-27.043h-6.06c-1.39 0-2.52-1.168-2.52-2.59v-66.308c0-1.43 1.13-2.602 2.52-2.602h6.06c1.38 0 2.51 1.172 2.51 2.602v66.308c0 1.422-1.13 2.59-2.51 2.59zm70.7 0h-6.94c-1.01 0-1.89-0.777-2.4-2.476l-14.5-56.68c-0.75-3.121-1.51-3.774-2.65-3.774-1.27 0-1.89 0.653-2.65 3.774l-14.49 56.68c-0.51 1.699-1.39 2.476-2.41 2.476h-6.93c-1.26 0-2.01-0.906-2.01-2.199 0-0.277 0-0.527 0.12-0.918l17.03-61.883c1.64-5.848 5.91-7.418 11.34-7.418 5.42 0 9.71 1.57 11.35 7.418l17.02 61.883c0.13 0.391 0.13 0.641 0.13 0.918 0 1.293-0.76 2.199-2.01 2.199zm37.52 0.902c-18.03 0-27.99-11.808-27.99-30.41v-11.699c0-24.18 14.12-31.211 28.62-31.211 8.45 0 15.38 0.781 22.57 2.211 2.01 0.391 2.52 1.309 2.52 3.008v4.41c0 1.289-1.01 1.82-2.01 1.82h-0.64c-5.8-0.918-15.12-1.429-22.44-1.429-11.6 0-17.53 5.718-17.53 21.191v1.82h42.25c1.5 0 2.39 1.168 2.39 2.848v7.031c0 18.461-9.32 30.41-27.74 30.41zm16.52-31.582h-33.42v1.172c0 14.051 6.06 20.41 16.9 20.41 11.09 0 16.52-5.718 16.52-20.41v-1.172zm52.36 31.582c-5.67 0-11.47-1.679-17.77-6.23v2.738c0 1.422-1.01 2.59-2.4 2.59h-5.92c-1.39 0-2.4-1.168-2.4-2.59v-66.308c0-1.43 1.13-2.602 2.4-2.602h6.17c1.39 0 2.52 1.293 2.52 2.602v54.468c6.31 3.911 11.6 5.454 17.4 5.454 1.77 0 2.66 0.777 2.66 2.226v5.313c0 1.558-0.89 2.339-2.66 2.339zm41.87-34.839-12.48 7.679c-5.8 3.508-8.7 5.969-8.7 9.879 0 6.621 4.67 7.539 11.73 7.539s15.12-0.648 19.54-1.039h0.38c1.26 0 2.14 0.653 2.14 2.211v4.301c0 1.418-0.75 2.32-2.4 2.59-5.92 1.039-12.6 1.679-19.66 1.679-12.99 0-22.83-3.769-22.83-17.281 0-8.187 5.17-13.789 12.86-18.597l12.74-7.793c7.19-4.411 9.46-6.887 9.46-10.797 0-7.012-4.29-9.223-12.49-9.223-4.54 0-13.74 0.652-19.79 1.43h-0.51c-1.26 0-2.27-0.778-2.27-1.957v-4.551c0-1.422 1.01-2.199 2.65-2.59 6.18-1.57 15.25-1.961 19.92-1.961 14.12 0 23.59 5.59 23.59 18.852 0 7.679-3.41 13.258-13.88 19.629zm35.01 33.937h-6.05c-1.39 0-2.52-1.168-2.52-2.59v-66.308c0-1.43 1.13-2.602 2.52-2.602h6.05c1.39 0 2.52 1.172 2.52 2.602v66.308c0 1.422-1.13 2.59-2.52 2.59zm0.25 27.043h-6.43c-1.39 0-2.53-1.18-2.53-2.601v-10.391c0-1.449 1.14-2.617 2.53-2.617h6.43c1.39 0 2.52 1.168 2.52 2.617v10.391c0 1.421-1.13 2.601-2.52 2.601zm52.93-90.223h-7.05c-5.05 0-6.81 1.043-6.81 8.18v45.383h13.61c1.39 0 2.53 1.168 2.53 2.59v4.437c0 1.422-1.14 2.59-2.53 2.59h-13.61v14.16c0 1.313-0.88 2.211-1.9 2.211h-0.37l-6.56-1.027c-1.39-0.262-2.27-1.293-2.27-2.602v-12.742h-12.23c-1.39 0-2.4-0.906-2.4-2.34v-3.508c0-1.429 1.01-2.21 2.4-2.351l12.23-1.418v-45.383c0-14.289 5.55-17.418 17.15-17.418 2.39 0 5.67 0.281 8.19 0.668 1.64 0.25 2.28 1.031 2.28 2.203v4.547c0 1.293-0.89 1.82-2.66 1.82zm24.03 75h4.92c1.26 0 2.52 1.063 2.52 2.481v10.531c0 1.309-1.26 2.602-2.52 2.602h-4.92c-1.26 0-2.52-1.293-2.52-2.602v-10.531c0-1.418 1.26-2.481 2.52-2.481zm22.07 0h4.92c1.25 0 2.52 1.063 2.52 2.481v10.531c0 1.309-1.27 2.602-2.52 2.602h-4.92c-1.27 0-2.52-1.293-2.52-2.602v-10.531c0-1.418 1.25-2.481 2.52-2.481zm-9.21-10.918c-8.58 0-14.38-0.781-19.54-1.679-1.77-0.27-2.66-1.051-2.66-2.481v-4.55c0-1.68 1.13-2.071 2.28-2.071h0.63c5.04 0.512 11.09 1.039 19.29 1.039 9.83 0 13.49-3.769 13.49-14.687v-5.199h-9.33c-22.44 0-30.38-7.032-30.38-21.071v-1.543c0-16.25 9.82-21.078 20.54-21.078 7.06 0 13.37 2.738 19.42 6.371v-2.851c0-1.43 1.14-2.602 2.53-2.602h5.8c1.39 0 2.52 1.172 2.52 2.602v45.371c0 15.328-7.06 24.429-24.59 24.429zm13.49-58.75c-6.05-3.378-11.22-5.191-17.02-5.191-7.32 0-11.6 2.461-11.6 11.813v1.57c0 9.226 4.03 12.726 19.29 12.726h9.33v-20.918zm59.41-5.332h-7.06c-5.05 0-6.81 1.043-6.81 8.18v45.383h13.61c1.39 0 2.52 1.168 2.52 2.59v4.437c0 1.422-1.13 2.59-2.52 2.59h-13.61v14.16c0 1.313-0.89 2.211-1.89 2.211h-0.38l-6.56-1.027c-1.38-0.262-2.27-1.293-2.27-2.602v-12.742h-12.24c-1.39 0-2.38-0.906-2.38-2.34v-3.508c0-1.429 0.99-2.21 2.38-2.351l12.24-1.418v-45.383c0-14.289 5.55-17.418 17.16-17.418 2.38 0 5.66 0.281 8.18 0.668 1.64 0.25 2.27 1.031 2.27 2.203v4.547c0 1.293-0.88 1.82-2.64 1.82zm68.22 89.18c-7.32 0-15.51-0.387-20.94-1.027-1.89-0.281-3.02-1.449-3.02-3.27v-90.601c0-1.43 1.01-2.602 2.26-2.602h6.82c1.39 0 2.26 1.293 2.26 2.602v36.519c3.29-0.25 8.58-0.64 12.62-0.64 20.43 0 35.3 7.402 35.3 29.121v1.699c0 20.922-14.87 28.199-35.3 28.199zm23.83-29.898c0-13.52-6.56-19.239-23.83-19.239-3.28 0-9.71 0.387-12.62 0.528v38.082c3.03 0.258 8.71 0.508 12.62 0.508 16.27 0 23.83-5.059 23.83-18.18v-1.699zm48.73 4.8c-18.54 0-27.99-12.589-27.99-31.718v-9.883c0-19.098 9.45-31.719 27.99-31.719s28.12 12.621 28.12 31.719v9.883c0 19.129-9.58 31.718-28.12 31.718zm17.03-41.601c0-13.379-5.29-21.699-17.03-21.699-11.85 0-16.89 8.441-16.89 21.699v9.883c0 13.398 5.17 21.718 16.89 21.718 11.86 0 17.03-8.449 17.03-21.718v-9.883zm56.76-22.481h-7.06c-5.05 0-6.81 1.043-6.81 8.18v45.383h13.61c1.39 0 2.52 1.168 2.52 2.59v4.437c0 1.422-1.13 2.59-2.52 2.59h-13.61v14.16c0 1.313-0.89 2.211-1.89 2.211h-0.38l-6.56-1.027c-1.38-0.262-2.27-1.293-2.27-2.602v-12.742h-12.24c-1.38 0-2.38-0.906-2.38-2.34v-3.508c0-1.429 1-2.21 2.38-2.351l12.24-1.418v-45.383c0-14.289 5.55-17.418 17.16-17.418 2.38 0 5.66 0.281 8.18 0.668 1.64 0.25 2.28 1.031 2.28 2.203v4.547c0 1.293-0.89 1.82-2.65 1.82zm44.14 29.243-12.48 7.679c-5.8 3.508-8.7 5.969-8.7 9.879 0 6.621 4.66 7.539 11.73 7.539 7.06 0 15.13-0.648 19.55-1.039h0.37c1.26 0 2.15 0.653 2.15 2.211v4.301c0 1.418-0.77 2.32-2.41 2.59-5.91 1.039-12.6 1.679-19.66 1.679-12.99 0-22.84-3.769-22.84-17.281 0-8.187 5.18-13.789 12.88-18.597l12.73-7.793c7.19-4.411 9.45-6.887 9.45-10.797 0-7.012-4.27-9.223-12.48-9.223-4.54 0-13.75 0.652-19.8 1.43h-0.5c-1.26 0-2.28-0.778-2.28-1.957v-4.551c0-1.422 1.02-2.199 2.66-2.59 6.17-1.57 15.25-1.961 19.92-1.961 14.12 0 23.58 5.59 23.58 18.852 0 7.679-3.4 13.258-13.87 19.629zm75.31 60.187h-6.42c-1.39 0-2.4-1.168-2.4-2.457v-24.18c-4.91 0.899-10.85 1.289-14.75 1.289-18.41 0-27.49-11.421-27.49-31.832v-9.378c0-19.489 8.7-32.11 27.49-32.11 7.69 0 15.39 0.668 23.2 2.211 2.27 0.391 2.65 1.309 2.65 3.008v90.992c0 1.43-1.01 2.457-2.28 2.457zm-8.82-87.867c-4.28-0.391-10.47-0.781-14.75-0.781-12.48 0-16.39 7.929-16.39 22.09v9.378c0 13.903 4.02 21.832 16.39 21.832 4.04 0 10.58-0.128 14.75-0.91v-51.609zm50.35 62.519c-8.58 0-14.38-0.781-19.56-1.679-1.75-0.27-2.64-1.051-2.64-2.481v-4.55c0-1.68 1.13-2.071 2.27-2.071h0.63c5.04 0.512 11.09 1.039 19.3 1.039 9.83 0 13.49-3.769 13.49-14.687v-5.199h-9.33c-22.45 0-30.4-7.032-30.4-21.071v-1.543c0-16.25 9.84-21.078 20.55-21.078 7.07 0 13.38 2.738 19.43 6.371v-2.851c0-1.43 1.14-2.602 2.52-2.602h5.81c1.38 0 2.52 1.172 2.52 2.602v45.371c0 15.328-7.08 24.429-24.59 24.429zm13.49-58.75c-6.05-3.378-11.23-5.191-17.03-5.191-7.31 0-11.6 2.461-11.6 11.813v1.57c0 9.226 4.04 12.726 19.3 12.726h9.33v-20.918zm90.37 58.891c-6.56 0-14-1.949-20.93-5.332-3.16 3.77-7.19 5.332-12.62 5.332-6.94 0-13.36-2.871-18.4-6.109v2.476c0 1.422-1.02 2.59-2.4 2.59h-6.31c-1.39 0-2.39-1.168-2.39-2.59v-66.308c0-1.43 0.88-2.602 2.13-2.602h6.69c1.39 0 2.28 1.293 2.28 2.602v54.859c5.29 2.742 10.84 5.063 15.37 5.063 6.56 0 9.72-2.321 9.72-13.633v-46.289c0-1.43 0.89-2.602 2.14-2.602h6.69c1.38 0 2.27 1.293 2.27 2.602v46.289c0 3.883-0.39 7.261-1.14 10.133 4.91 1.957 10.21 3.5 14.75 3.5 6.57 0 11.48-2.993 11.48-13.911v-46.011c0-1.43 1.13-2.602 2.52-2.602h6.05c1.39 0 2.52 1.172 2.52 2.602v46.011c0 18.071-9.07 23.93-20.42 23.93"/>
<path style="fill:#4f5358" d="m1266 1284.4h32.68c3.62 0 6.6 2.96 6.6 6.6v100.97h93.71v-100.97c0-3.64 2.97-6.6 6.6-6.6h32.68c3.62 0 6.6 2.96 6.6 6.6v232.31c0 3.64-2.98 6.27-6.6 6.27h-32.68c-3.63 0-6.6-2.63-6.6-6.27v-91.08h-93.71v91.08c0 3.64-2.98 6.27-6.6 6.27h-32.68c-3.63 0-6.6-2.63-6.6-6.27v-232.31c0-3.64 2.97-6.6 6.6-6.6zm275.22-2.64c15.84 0 31.35 5.27 46.53 14.51v-5.27c0-3.64 2.97-6.6 6.6-6.6h28.05c3.63 0 6.6 2.96 6.6 6.6v118.8c0 42.23-25.74 63.03-72.6 63.03-22.77 0-41.91-2.64-55.1-5.29-4.3-0.98-6.27-3.29-6.27-6.92v-21.13c0-4.61 2.63-5.6 5.93-5.6h1.66c10.88 1.32 32.66 2.63 53.78 2.63 19.47 0 29.04-5.28 29.04-26.72v-14.53h-20.78c-57.43 0-80.53-19.47-80.53-57.09v-1.31c0-44.55 29.71-55.11 57.09-55.11zm-13.19 56.42c0 18.48 6.59 28.06 36.63 28.06h20.78v-40.59c-9.57-5.29-21.78-9.24-33.65-9.24-16.51 0-23.76 4.29-23.76 20.46v1.31zm164.99 39.61 45.21-27.73c10.56-6.6 14.52-10.55 14.52-16.82 0-8.92-2.97-15.84-23.43-15.84-9.9 0-39.61 1.64-55.44 3.63h-1.32c-3.29 0-5.61-2.65-5.61-5.29v-19.8c0-3.95 2.32-6.59 6.27-7.59 18.48-4.95 46.2-6.59 59.07-6.59 43.23 0 64.68 22.76 64.68 51.48 0 16.82-3.95 33.32-31.68 50.15l-43.23 26.41c-8.25 4.95-13.2 8.25-13.2 13.52 0 10.24 6.93 13.87 22.77 13.87 18.81 0 45.21-2.65 54.45-3.97h1.32c3.3 0 5.28 2.31 5.28 6.27v19.14c0 3.97-1.98 6.61-5.94 7.59-16.83 3.64-32.01 6.61-58.74 6.61-41.91 0-62.7-16.5-62.7-49.51 0-19.14 11.54-35.63 27.72-45.53zm233.64 5.6-43.23 26.41c-8.25 4.95-13.2 8.25-13.2 13.52 0 10.24 6.93 13.87 22.77 13.87 18.8 0 45.21-2.65 54.45-3.97h1.32c3.3 0 5.28 2.31 5.28 6.27v19.14c0 3.97-1.98 6.61-5.94 7.59-16.83 3.64-32.01 6.61-58.75 6.61-41.9 0-62.69-16.5-62.69-49.51 0-19.14 11.55-35.63 27.72-45.53l45.21-27.73c10.56-6.6 14.52-10.55 14.52-16.82 0-8.92-2.97-15.84-23.43-15.84-9.9 0-39.6 1.64-55.44 3.63h-1.32c-3.3 0-5.61-2.65-5.61-5.29v-19.8c0-3.95 2.31-6.59 6.27-7.59 18.48-4.95 46.2-6.59 59.07-6.59 43.23 0 64.68 22.76 64.68 51.48 0 16.82-3.96 33.32-31.68 50.15zm141.24-101.63c51.81 0 78.87 34.97 78.87 82.17v26.73c0 47.19-27.06 82.17-78.87 82.17s-78.87-34.98-78.87-82.17v-26.73c0-47.2 27.06-82.17 78.87-82.17zm-35.31 108.9c0 27.06 12.2 44.55 35.31 44.55 23.1 0 35.31-17.49 35.31-44.55v-26.73c0-27.06-12.21-44.55-35.31-44.55-23.11 0-35.31 17.49-35.31 44.55v26.73zm-602.9-257.63v2.97c0 58.41-44.22 76.23-95.04 76.23-24.1 0-47.52-1.66-64.68-4.3-6.6-0.98-10.57-3.3-10.57-9.9v-227.03c0-3.632 2.97-6.601 6.6-6.601h33.01c3.62 0 6.27 2.969 6.27 6.601v86.133c7.59-0.33 20.78-1.33 29.37-1.33 50.82 0 95.04 18.81 95.04 77.23zm-45.54 0c0-26.41-13.87-39.61-49.5-39.61-5.62 0-24.1 0.66-29.37 1v78.53c5.94 0.66 22.43 1.33 29.37 1.33 32.99 0 49.5-10.57 49.5-38.28v-2.97zm84.47-168.63h30.69c3.64 0 6.27 3.301 6.27 6.933v237.6c0 3.62-2.63 6.6-6.27 6.6h-30.69c-3.63 0-6.6-2.98-6.6-6.6v-237.6c0-3.632 2.97-6.933 6.6-6.933zm175.89 11.875v-5.274c0-3.632 2.97-6.601 6.6-6.601h28.05c3.63 0 6.6 2.969 6.6 6.601v118.79c0 42.24-25.74 63.04-72.6 63.04-22.77 0-41.91-2.65-55.11-5.29-4.29-0.98-6.26-3.3-6.26-6.93v-21.12c0-4.61 2.63-5.6 5.93-5.6h1.65c10.89 1.31 32.67 2.63 53.79 2.63 19.47 0 29.04-5.27 29.04-26.73v-14.52h-20.79c-57.42 0-80.52-19.47-80.52-57.09v-1.32c0-44.554 29.7-55.101 57.09-55.101 15.84 0 31.34 5.274 46.53 14.512zm-59.73 40.589v1.32c0 18.48 6.6 28.06 36.63 28.06h20.79v-40.59c-9.57-5.29-21.78-9.242-33.66-9.242-16.5 0-23.76 4.292-23.76 20.452zm158.39-2.64c0-44.219 15.19-52.461 52.47-52.461 7.27 0 14.52 0.977 22.44 2.305 4.29 0.664 6.27 2.636 6.27 5.937v20.793c0 3.301-2.63 4.949-6.92 4.949h-17.5c-11.88 0-12.86 1.973-12.86 18.477v103.63h20.2c3.64 0 6.61 2.97 6.61 6.58v19.48c0 3.63-2.97 6.6-6.61 6.6h-20.2v34c0 3.3-2.32 4.94-5.28 4.94h-1.32l-30.7-5.28c-3.63-0.65-6.6-2.97-6.6-6.59v-27.07h-31.01c-3.64 0-6.61-2.97-6.61-6.6v-14.85c0-3.63 2.97-5.93 6.61-6.6l31.01-4.61v-103.63zm196.36-18.477h-17.49c-11.89 0-12.87 1.973-12.87 18.477v103.63h29.7c3.63 0 6.6 2.97 6.6 6.58v19.48c0 3.63-2.97 6.6-6.6 6.6h-29.7v34c0 3.3-2.31 4.94-5.29 4.94h-1.31l-30.69-5.28c-3.63-0.65-6.6-2.97-6.6-6.59v-27.07h-21.47c-3.63 0-6.6-2.97-6.6-6.6v-14.85c0-3.63 2.97-5.93 6.6-6.6l21.47-4.61v-103.63c0-44.219 15.18-52.461 52.46-52.461 7.27 0 14.53 0.977 22.44 2.305 4.3 0.664 6.27 2.636 6.27 5.937v20.793c0 3.301-2.63 4.949-6.92 4.949zm195.03-24.414v107.58c0 41.91-9.57 73.92-57.09 73.92-21.78 0-34.32-3.63-53.46-15.84v6.92c0 3.63-2.97 6.6-6.6 6.6h-28.71c-3.63 0-6.6-2.97-6.6-6.6v-172.58c0-3.632 2.97-6.933 6.6-6.933h30.36c3.62 0 6.59 3.301 6.59 6.933v132.66c13.87 7.26 26.08 11.87 37.3 11.87 25.41 0 28.04-8.24 28.04-36.95v-107.58c0-3.632 2.98-6.933 6.61-6.933h30.36c3.63 0 6.6 3.301 6.6 6.933zm186.11 70.941c4.62 0 6.6 2.97 6.6 8.26v18.48c0 49.16-27.71 83.82-78.53 83.82-50.49 0-79.2-32.34-79.2-83.82v-24.42c0-65.018 46.85-82.831 79.85-82.831 29.7 0 42.57 1.641 64.03 5.606 5.93 0.996 6.92 3.3 6.92 8.574v21.777c0 3.304-2.64 4.964-5.94 4.964h-0.98c-13.86-1.33-36.63-3.304-60.73-3.304-31.68 0-39.6 22.774-39.6 41.914v0.98h107.58zm-107.24 32.34c0 26.07 14.84 40.59 35.31 40.59 20.46 0 34.65-14.85 34.65-40.59v-1.32h-69.96v1.32zm237.93 78.22c-13.21 0-31.03-3.31-47.2-15.84v6.92c0 3.63-2.97 6.6-6.59 6.6h-28.71c-3.64 0-6.61-2.97-6.61-6.6v-172.58c0-3.632 2.97-6.933 6.61-6.933h30.35c3.63 0 6.6 3.301 6.6 6.933v132.66c13.87 7.26 27.72 11.87 45.55 11.87 3.62 0 6.6 2.97 6.6 6.6v23.78c0 3.61-2.98 6.59-6.6 6.59zm-1152-263.24h-32.99c-3.67 0-6.66-2.644-6.66-6.269v-232.32c0-3.633 2.99-6.601 6.66-6.601h32.99c3.67 0 6.67 2.968 6.67 6.601v232.32c0 3.625-3 6.269-6.67 6.269zm159.65-56.766c-22 0-34.66-3.625-53.99-15.839v6.933c0 3.621-3 6.59-6.67 6.59h-29c-3.67 0-6.66-2.969-6.66-6.59v-172.58c0-3.641 2.99-6.941 6.66-6.941h30.67c3.67 0 6.66 3.3 6.66 6.941v132.65c14 7.261 26.34 11.871 37.66 11.871 25.67 0 28.34-8.243 28.34-36.95v-107.57c0-3.641 3-6.941 6.66-6.941h30.67c3.66 0 6.67 3.3 6.67 6.941v107.57c0 41.911-9.67 73.914-57.67 73.914zm205.32-89.425-43.67 26.398c-8.34 4.953-13.34 8.25-13.34 13.524 0 10.234 7.01 13.867 23.01 13.867 19 0 45.66-2.637 54.99-3.965h1.34c3.33 0 5.33 2.305 5.33 6.269v19.141c0 3.965-2 6.602-6 7.602-17.01 3.621-32.34 6.589-59.33 6.589-42.32 0-63.33-16.496-63.33-49.503 0-19.141 11.67-35.633 28-45.532l45.66-27.718c10.67-6.614 14.67-10.551 14.67-16.84 0-8.91-3.01-15.84-23.67-15.84-9.99 0-39.99 1.656-55.99 3.629h-1.34c-3.33 0-5.66-2.629-5.66-5.27v-19.801c0-3.968 2.33-6.609 6.33-7.582 18.67-4.957 46.67-6.597 59.67-6.597 43.66 0 65.32 22.769 65.32 51.461 0 16.84-4 33.34-31.99 50.168zm173.31-67.649h-17.66c-12 0-13.01 1.969-13.01 18.481v103.62h30c3.67 0 6.67 2.969 6.67 6.594v19.472c0 3.621-3 6.59-6.67 6.59h-30v34.004c0 3.293-2.32 4.941-5.33 4.941h-1.33l-30.99-5.273c-3.68-0.664-6.67-2.969-6.67-6.602v-27.07h-31.33c-3.66 0-6.67-2.969-6.67-6.59v-14.855c0-3.633 3.01-5.938 6.67-6.602l31.33-4.609v-103.62c0-44.223 15.33-52.461 52.99-52.461 7.34 0 14.67 0.969 22.67 2.301 4.33 0.66 6.33 2.636 6.33 5.937v20.801c0 3.301-2.67 4.941-7 4.941zm85.33 154.76h-30.67c-3.67 0-6.67-2.969-6.67-6.59v-172.58c0-3.641 3-6.941 6.67-6.941h30.67c3.66 0 6.66 3.3 6.66 6.941v172.58c0 3.621-3 6.59-6.66 6.59zm0.99 66.992h-32.33c-3.66 0-7-2.968-7-6.601v-29.032c0-3.632 3.34-6.601 7-6.601h32.33c3.67 0 6.66 2.969 6.66 6.601v29.032c0 3.633-2.99 6.601-6.66 6.601zm157.98-221.75h-17.66c-12 0-13 1.969-13 18.481v103.62h30c3.66 0 6.67 2.969 6.67 6.594v19.472c0 3.621-3.01 6.59-6.67 6.59h-30v34.004c0 3.293-2.34 4.941-5.33 4.941h-1.34l-31-5.273c-3.66-0.664-6.66-2.969-6.66-6.602v-27.07h-31.33c-3.67 0-6.67-2.969-6.67-6.59v-14.855c0-3.633 3-5.938 6.67-6.602l31.33-4.609v-103.62c0-44.223 15.33-52.461 52.99-52.461 7.34 0 14.67 0.969 22.68 2.301 4.32 0.66 6.32 2.636 6.32 5.937v20.801c0 3.301-2.66 4.941-7 4.941zm194.31 154.76h-30.66c-3.67 0-6.66-3.289-6.66-6.922v-132c-9.34-4.941-25.34-13.199-37.66-13.199-10.34 0-16.01 1.988-20.68 5.93-6.32 5.628-7.66 15.199-7.66 31.679v107.59c0 3.633-3 6.922-6.66 6.922h-30.67c-3.67 0-6.67-3.289-6.67-6.922v-107.59c0-27.383 4.34-47.851 16.67-60.051 9.67-9.582 24.33-13.851 41-13.851 21.33 0 34.99 5.269 52.33 16.48v-7.578c0-3.633 2.99-6.601 6.66-6.601h30.66c3.67 0 6.67 2.968 6.67 6.601v172.59c0 3.633-3 6.922-6.67 6.922zm157.99-154.76h-17.67c-12 0-13 1.969-13 18.481v103.62h30c3.67 0 6.66 2.969 6.66 6.594v19.472c0 3.621-2.99 6.59-6.66 6.59h-30v34.004c0 3.293-2.33 4.941-5.33 4.941h-1.33l-30.99-5.273c-3.67-0.664-6.67-2.969-6.67-6.602v-27.07h-31.33c-3.67 0-6.67-2.969-6.67-6.59v-14.855c0-3.633 3-5.938 6.67-6.602l31.33-4.609v-103.62c0-44.223 15.33-52.461 53-52.461 7.32 0 14.65 0.969 22.65 2.301 4.34 0.66 6.34 2.636 6.34 5.937v20.801c0 3.301-2.67 4.941-7 4.941"/>
<path style="fill:#b00c36" d="m10.047 644.88h992.11v992.12h-992.11v-992.12z"/>
<path style="fill:#f89c0e" d="m293.52 928.35h850.39v850.39h-850.39v-850.39z"/>
<path style="fill:#e25617" d="m293.52 928.35h708.64v708.65h-708.64v-708.65z"/>
<path style="fill:#ffffff" d="m581.77 1526.9h-32.668c-3.633 0-6.602-2.64-6.602-6.27v-91.09h-93.719v91.09c0 3.63-2.968 6.27-6.601 6.27h-32.668c-3.633 0-6.602-2.64-6.602-6.27v-232.32c0-3.63 2.969-6.6 6.602-6.6h32.668c3.633 0 6.601 2.97 6.601 6.6v100.98h93.719v-100.98c0-3.63 2.969-6.6 6.602-6.6h32.668c3.632 0 6.601 2.97 6.601 6.6v232.32c0 3.63-2.969 6.27-6.601 6.27zm131.9 2.64c-24.094 0-47.52-1.65-64.688-4.29-6.601-0.99-10.554-3.31-10.554-9.9v-227.04c0-3.63 2.969-6.6 6.601-6.6h32.996c3.633 0 6.27 2.97 6.27 6.6v86.13c7.59-0.33 20.793-1.32 29.375-1.32 50.82 0 95.039 18.81 95.039 77.22v2.97c0 58.41-44.219 76.23-95.039 76.23zm49.492-79.2c0-26.4-13.855-39.61-49.492-39.61-5.613 0-24.094 0.67-29.375 1v78.54c5.937 0.66 22.441 1.32 29.375 1.32 33 0 49.492-10.56 49.492-38.28v-2.97zm123.03 76.56h-32.676c-3.633 0-6.602-2.64-6.602-6.27v-232.32c0-3.63 2.969-6.6 6.602-6.6h32.676c3.625 0 6.601 2.97 6.601 6.6v232.32c0 3.63-2.976 6.27-6.601 6.27"/>
</g>
</g>
</g>
</g>
</svg>
