<?xml version="1.0" encoding="UTF-8" standalone="no"?>
<svg
   xmlns:dc="http://purl.org/dc/elements/1.1/"
   xmlns:cc="http://creativecommons.org/ns#"
   xmlns:rdf="http://www.w3.org/1999/02/22-rdf-syntax-ns#"
   xmlns:svg="http://www.w3.org/2000/svg"
   xmlns="http://www.w3.org/2000/svg"
   xmlns:sodipodi="http://sodipodi.sourceforge.net/DTD/sodipodi-0.dtd"
   xmlns:inkscape="http://www.inkscape.org/namespaces/inkscape"
   width="99"
   height="56"
   viewBox="0 0 99 56"
   version="1.1"
   id="svg33"
   sodipodi:docname="HPIGC.svg"
   inkscape:version="0.92.3 (unknown)"
   inkscape:export-filename="/home/sarah/Documents/HPI/gesundheitscloud/hc-rp-kalinka/public/images/HPIGC.png"
   inkscape:export-xdpi="800.54999"
   inkscape:export-ydpi="800.54999">
  <metadata
     id="metadata39">
    <rdf:RDF>
      <cc:Work
         rdf:about="">
        <dc:format>image/svg+xml</dc:format>
        <dc:type
           rdf:resource="http://purl.org/dc/dcmitype/StillImage" />
        <dc:title>Export/Logo/DHC</dc:title>
      </cc:Work>
    </rdf:RDF>
  </metadata>
  <defs
     id="defs37" />
  <sodipodi:namedview
     pagecolor="#ffffff"
     bordercolor="#666666"
     borderopacity="1"
     objecttolerance="10"
     gridtolerance="10"
     guidetolerance="10"
     inkscape:pageopacity="0"
     inkscape:pageshadow="2"
     inkscape:window-width="2560"
     inkscape:window-height="1387"
     id="namedview35"
     showgrid="false"
     inkscape:zoom="2.8295455"
     inkscape:cx="-231.17269"
     inkscape:cy="19.51807"
     inkscape:window-x="1920"
     inkscape:window-y="0"
     inkscape:window-maximized="1"
     inkscape:current-layer="svg33" />
  <!-- Generator: Sketch 52.4 (67378) - http://www.bohemiancoding.com/sketch -->
  <title
     id="title2">Export/Logo/DHC</title>
  <desc
     id="desc4">Created with Sketch.</desc>
  <text
     style="font-weight:400;font-size:13.5px;font-family:NeoSansW1G-Medium, 'Neo Sans W1G';letter-spacing:0.1;fill:#606468;fill-rule:evenodd;stroke:none;stroke-width:1"
     letter-spacing="0.100000001"
     line-spacing="12"
     font-weight="400"
     font-size="13.5"
     id="Digital">
    <tspan
       id="tspan6"
       y="14"
       x="47"
       style="font-style:normal;font-variant:normal;font-weight:bold;font-stretch:normal;font-size:13.5px;font-family:NeoSansW1G-Medium, 'Neo Sans W1G';-inkscape-font-specification:'NeoSansW1G-Medium, Neo Sans W1G, Bold';font-variant-ligatures:normal;font-variant-caps:normal;font-variant-numeric:normal;font-feature-settings:normal;text-align:start;writing-mode:lr-tb;text-anchor:start">Digital</tspan>
  </text>
  <text
     style="font-weight:400;font-size:13.5px;font-family:NeoSansW1G-Medium, 'Neo Sans W1G';letter-spacing:-0.1;fill:#606468;fill-rule:evenodd;stroke:none;stroke-width:1"
     letter-spacing="-0.100000001"
     font-weight="400"
     font-size="13.5"
     id="Health">
    <tspan
       id="tspan11"
       y="29"
       x="47"
       style="-inkscape-font-specification:'NeoSansW1G-Medium, Neo Sans W1G, Bold';font-family:NeoSansW1G-Medium, 'Neo Sans W1G';font-weight:bold;font-style:normal;font-stretch:normal;font-variant:normal;font-size:13.5px;text-anchor:start;text-align:start;writing-mode:lr;font-variant-ligatures:normal;font-variant-caps:normal;font-variant-numeric:normal;font-feature-settings:normal">Health</tspan>
  </text>
  <text
     style="font-weight:normal;font-size:13px;font-family:NeoSansW1G-Regular, 'Neo Sans W1G';letter-spacing:0.60000002;fill:#606468;fill-rule:evenodd;stroke:none;stroke-width:1"
     letter-spacing="0.600000024"
     font-weight="normal"
     font-size="13"
     id="Center">
    <tspan
       id="tspan16"
       y="42"
       x="47">Center</tspan>
  </text>
  <text
     style="font-weight:normal;font-size:7px;font-family:NeoSansW1G-Regular, 'Neo Sans W1G';fill:#606468;fill-rule:evenodd;stroke:none;stroke-width:1"
     font-weight="normal"
     font-size="7"
     id="Powerd-by-Gesundheit"
     x="0"
     y="0">
    <tspan
       id="tspan21"
       y="54"
       x="0"
       style="font-style:normal;font-variant:normal;font-weight:normal;font-stretch:normal;font-size:5.73333359px;font-family:NeoSansW1G-Regular, 'Neo Sans W1G';-inkscape-font-specification:'NeoSansW1G-Regular, Neo Sans W1G, Normal';font-variant-ligatures:normal;font-variant-caps:normal;font-variant-numeric:normal;font-feature-settings:normal;text-align:start;writing-mode:lr;text-anchor:start">powered by gesundheitscloud</tspan>
  </text>
  <rect
     style="fill:#b1063a;fill-rule:nonzero;stroke:none;stroke-width:1"
     height="37"
     width="37"
     y="5"
     x="0"
     id="Rectangle-Copy" />
  <rect
     style="fill:#f6a800;fill-rule:nonzero;stroke:none;stroke-width:1"
     height="32"
     width="32"
     y="0"
     x="10"
     id="Rectangle-Copy-2" />
  <rect
     style="fill:#dd6108;fill-rule:nonzero;stroke:none;stroke-width:1"
     height="27"
     width="27"
     y="5"
     x="10"
     id="Rectangle" />
  <text
     style="font-weight:400;font-size:13px;font-family:NeoSansW1G-Medium, 'Neo Sans W1G';letter-spacing:0.2166667;fill:#ffffff;fill-rule:evenodd;stroke:none;stroke-width:1"
     letter-spacing="0.2166667"
     line-spacing="11"
     font-weight="400"
     font-size="13"
     id="HPI">
    <tspan
       id="tspan27"
       y="19"
       x="12.6">HP</tspan>
    <tspan
       style="letter-spacing:0.2011905"
       id="tspan29"
       letter-spacing="0.2011905"
       y="19"
       x="30.427334">I</tspan>
  </text>
  <g
     id="g882"
     transform="matrix(0.06492245,0,0,0.09446318,79.006393,33.333674)">
    <path
       id="path863"
       d="m 157.546,152.629 c -21.969,0.31 -39.686,18.248 -39.686,40.306 0,21.349 16.565,38.799 37.515,40.261 v 0 0 c 0.931,0.044 1.86,0.089 2.835,0.089 0.931,0 1.904,-0.044 2.835,-0.089 h 55.675 v -23.873 c 0.044,-1.373 -1.019,-2.524 -2.48,-2.569 h -19.71 c -2.436,0 -4.385,-1.948 -4.385,-4.385 v -27.194 c 0,-2.437 1.949,-4.386 4.385,-4.386 h 19.843 c 1.019,0 2.303,-1.019 2.303,-2.392 v -19.843 c 0,-2.392 1.949,-4.385 4.386,-4.385 h 13.42 c -6.068,-14.527 -20.463,-24.803 -37.205,-24.803 -19.845,0 -36.365,14.351 -39.731,33.263 z"
       inkscape:connector-curvature="0"
       style="fill:#b0063a" />
    <linearGradient
       gradientTransform="matrix(0.4429,0,0,-0.4429,-84.844,-20.2159)"
       y2="-428.92941"
       x2="577.7605"
       y1="-324.84201"
       x1="472.09641"
       gradientUnits="userSpaceOnUse"
       id="SVGID_1_">
      <stop
         id="stop865"
         style="stop-color:#F9A51A"
         offset="0" />
      <stop
         id="stop867"
         style="stop-color:#F9A51A;stop-opacity:0"
         offset="1" />
    </linearGradient>
    <path
       id="path870"
       d="m 226.596,144.169 c -5.581,-10.452 -16.654,-17.628 -29.321,-17.628 -16.078,0 -29.853,11.561 -32.688,27.328 l -1.019,5.802 -5.935,0.089 c -18.071,0.266 -32.644,15.06 -32.644,33.13 0,17.407 13.465,31.891 30.65,33.086 h 0.221 c 0.753,0.089 1.551,0.089 2.304,0.089 0.753,0 1.55,0 2.303,-0.089 h 0.266 55.94 v -16.697 c 0.045,-1.373 -1.019,-2.525 -2.479,-2.569 h -19.71 c -2.437,0 -4.385,-1.949 -4.385,-4.385 V 175.13 c 0,-2.436 1.948,-4.385 4.385,-4.385 h 19.887 c 1.019,0 2.303,-1.019 2.303,-2.392 V 148.51 c 0,-2.392 1.949,-4.385 4.386,-4.385 h 5.536 z"
       inkscape:connector-curvature="0"
       style="fill:url(#SVGID_1_)" />
    <path
       id="path872"
       d="m 296.577,142.574 h 13.199 c 0.886,0 1.595,0.709 1.595,1.595 v 13.199 c 0,0.886 -0.709,1.595 -1.595,1.595 h -13.199 c -0.886,0 -1.55,-0.709 -1.55,-1.595 v -13.199 c 0.044,-0.886 0.709,-1.595 1.55,-1.595 z"
       inkscape:connector-curvature="0"
       style="fill:#f9a51a" />
    <path
       id="path874"
       d="m 281.429,119.809 h 8.548 c 0.576,0 1.02,0.443 1.02,1.019 v 8.593 c 0,0.576 -0.487,0.975 -1.02,0.975 h -8.548 c -0.576,0 -1.019,-0.398 -1.019,-0.975 v -8.593 c 10e-4,-0.576 0.488,-1.019 1.019,-1.019 z"
       inkscape:connector-curvature="0"
       style="fill:#f9a51a" />
    <path
       id="path876"
       d="m 279.835,179.159 h 16.787 c 1.062,0 1.948,0.931 1.948,1.993 v 16.742 c 0,1.063 -0.886,1.993 -1.948,1.993 h -16.787 c -1.062,0 -1.948,-0.93 -1.948,-1.993 v -16.742 c -10e-4,-1.062 0.885,-1.993 1.948,-1.993 z"
       inkscape:connector-curvature="0"
       style="fill:#f9a51a" />
    <path
       id="path878"
       d="m 252.241,144.169 h 21.438 c 1.373,0 2.568,1.196 2.568,2.569 v 21.437 c 0,1.462 -1.195,2.569 -2.568,2.569 h -21.438 c -1.461,0 -2.568,-1.151 -2.568,-2.569 v -21.437 c -0.045,-1.373 1.107,-2.569 2.568,-2.569 z"
       inkscape:connector-curvature="0"
       style="fill:#f9a51a" />
    <path
       id="path880"
       d="m 252.241,206.798 h 21.438 c 1.373,0 2.568,1.151 2.568,2.524 v 21.438 c 0,1.461 -1.195,2.568 -2.568,2.568 h -21.438 c -1.461,0 -2.568,-1.151 -2.568,-2.568 v -21.438 c -0.045,-1.416 1.107,-2.524 2.568,-2.524 z"
       inkscape:connector-curvature="0"
       style="fill:#f9a51a" />
  </g>
</svg>
