<?xml version="1.0" standalone="no"?>
<!DOCTYPE svg PUBLIC "-//W3C//DTD SVG 20010904//EN"
 "http://www.w3.org/TR/2001/REC-SVG-20010904/DTD/svg10.dtd">
<svg version="1.0" xmlns="http://www.w3.org/2000/svg"
 width="4183.000000pt" height="2414.000000pt" viewBox="0 0 4183.000000 2414.000000"
 preserveAspectRatio="xMidYMid meet">

<g transform="translate(0.000000,2414.000000) scale(0.100000,-0.100000)"
fill="#000000" stroke="none">
<path d="M930 16360 l0 -3540 3545 0 3545 0 0 2785 0 2785 -760 0 -760 0 0
755 0 755 -2785 0 -2785 0 0 -3540z"/>
<path d="M27435 19158 c-64 -22 -122 -77 -155 -145 -23 -49 -28 -174 -8 -220
49 -113 140 -173 262 -173 88 0 154 29 209 90 53 58 70 102 70 185 1 117 -52
202 -158 251 -55 26 -163 32 -220 12z"/>
<path d="M28205 19146 c-52 -24 -101 -72 -132 -129 -27 -49 -25 -199 4 -252
90 -168 328 -198 455 -57 52 58 70 104 70 188 0 81 -27 147 -84 201 -78 75
-212 96 -313 49z"/>
<path d="M12800 17210 l0 -1220 220 0 220 0 2 725 3 726 655 -745 655 -745 53
-1 52 0 0 1215 0 1215 -215 0 -215 0 -2 -727 -3 -727 -659 749 -659 750 -53 3
-54 3 0 -1221z"/>
<path d="M22996 18419 c-205 -30 -367 -113 -476 -245 -90 -109 -133 -242 -134
-409 0 -170 44 -292 155 -425 84 -101 191 -172 459 -303 135 -66 273 -138 307
-159 127 -80 191 -185 180 -293 -10 -98 -62 -169 -157 -214 -49 -23 -67 -26
-165 -26 -94 1 -122 5 -190 29 -108 37 -225 104 -357 204 -59 45 -110 82 -113
82 -2 0 -52 -70 -110 -156 l-107 -156 23 -25 c13 -14 71 -61 129 -104 123 -93
323 -197 455 -236 82 -24 106 -27 255 -27 175 0 260 15 376 65 250 109 404
347 404 621 -1 171 -57 311 -178 440 -96 101 -183 157 -477 308 -320 164 -380
206 -421 295 -76 161 31 322 233 354 143 22 333 -41 508 -168 54 -40 72 -48
81 -38 6 6 53 74 105 151 l94 138 -40 35 c-106 93 -284 194 -406 231 -128 39
-295 51 -433 31z"/>
<path d="M27385 17249 c-264 -645 -488 -1192 -497 -1216 l-18 -43 226 0 225 0
18 43 c10 23 49 120 86 215 l67 172 441 0 442 0 85 -213 86 -212 227 -3 c125
-1 227 -1 227 0 0 2 -227 548 -504 1213 l-503 1210 -64 3 -64 2 -480 -1171z
m694 -89 c77 -195 141 -358 141 -362 0 -5 -130 -8 -290 -8 -159 0 -290 3 -290
7 0 21 285 732 290 726 4 -5 71 -168 149 -363z"/>
<path d="M28860 18195 l0 -195 340 0 340 0 0 -1000 0 -1000 215 0 215 0 2 998
3 997 338 3 337 2 0 195 0 195 -895 0 -895 0 0 -195z"/>
<path d="M10400 17593 c0 -638 3 -806 15 -883 60 -393 326 -671 715 -744 106
-20 320 -21 435 -1 180 32 326 107 456 235 125 123 201 264 245 450 16 68 18
156 21 903 l4 827 -220 0 -220 0 -3 -802 -3 -803 -26 -77 c-66 -194 -201 -310
-392 -340 -223 -34 -438 74 -528 265 -59 126 -59 128 -59 980 l0 777 -220 0
-220 0 0 -787z"/>
<path d="M15200 17185 l0 -1195 220 0 220 0 0 1195 0 1195 -220 0 -220 0 0
-1195z"/>
<path d="M16044 18298 c17 -46 230 -590 471 -1211 l440 -1127 63 2 63 3 471
1195 c258 657 472 1201 475 1208 4 10 -42 12 -227 10 l-232 -3 -265 -722
c-146 -397 -269 -721 -272 -718 -4 2 -128 328 -276 724 l-270 721 -237 0 -237
0 33 -82z"/>
<path d="M18410 17185 l0 -1195 725 0 725 0 0 195 0 195 -510 0 -510 0 0 320
0 320 480 0 480 0 0 185 0 185 -477 2 -478 3 -3 298 -2 297 510 0 510 0 0 195
0 195 -725 0 -725 0 0 -1195z"/>
<path d="M20350 17186 l0 -1196 220 0 220 0 2 478 3 478 368 -478 369 -478
259 0 c194 0 258 3 253 12 -5 9 -602 779 -735 949 l-28 36 87 21 c216 53 386
181 471 352 51 105 71 194 71 327 0 284 -120 489 -356 604 -167 81 -177 83
-721 87 l-483 3 0 -1195z m889 805 c167 -58 249 -178 239 -349 -10 -170 -103
-275 -280 -317 -43 -10 -119 -15 -235 -15 l-173 0 0 356 0 357 193 -5 c164 -4
201 -8 256 -27z"/>
<path d="M24330 17185 l0 -1195 220 0 220 0 0 1195 0 1195 -220 0 -220 0 0
-1195z"/>
<path d="M25230 18185 l0 -195 335 0 335 0 0 -1000 0 -1000 220 0 220 0 0
1000 0 1000 335 0 335 0 0 195 0 195 -890 0 -890 0 0 -195z"/>
<path d="M10400 14014 l0 -1196 478 5 c436 4 485 6 567 25 196 45 304 99 416
211 123 123 178 264 179 456 0 153 -46 276 -140 374 -52 54 -152 123 -206 143
-19 7 -34 14 -34 18 0 3 24 21 52 40 97 65 186 195 223 325 22 75 22 237 0
319 -69 260 -310 429 -665 466 -52 5 -269 10 -482 10 l-388 0 0 -1196z m873
806 c80 -25 151 -72 194 -128 115 -151 36 -388 -156 -464 -50 -20 -76 -23
-263 -26 l-208 -3 0 320 0 321 184 0 c156 0 194 -3 249 -20z m99 -990 c166
-51 246 -162 236 -330 -9 -162 -95 -261 -265 -305 -42 -11 -115 -15 -280 -15
l-223 0 0 335 0 335 234 0 c205 0 242 -2 298 -20z"/>
<path d="M12420 14015 l0 -1195 220 0 220 0 0 1195 0 1195 -220 0 -220 0 0
-1195z"/>
<path d="M13360 14015 l0 -1195 725 0 725 0 0 195 0 195 -510 0 -510 0 2 318
3 317 478 3 477 2 0 185 0 185 -477 2 -478 3 0 295 0 295 508 3 507 2 0 195 0
195 -725 0 -725 0 0 -1195z"/>
<path d="M15210 14015 l0 -1195 725 0 725 0 0 205 0 205 -505 0 -505 0 0 990
0 990 -220 0 -220 0 0 -1195z"/>
<path d="M17100 14015 l0 -1195 725 0 725 0 0 195 0 195 -510 0 -510 0 2 318
3 317 478 3 477 2 0 185 0 185 -477 2 -478 3 0 295 0 295 508 3 507 2 0 195 0
195 -725 0 -725 0 0 -1195z"/>
<path d="M19040 14015 l0 -1195 220 0 220 0 0 480 0 480 435 0 435 0 0 180 0
180 -435 0 -435 0 0 335 0 335 470 0 470 0 0 200 0 200 -690 0 -690 0 0 -1195z"/>
<path d="M20880 14015 l0 -1195 720 0 720 0 0 195 0 195 -505 0 -505 0 0 320
0 320 480 0 480 0 0 185 0 185 -480 0 -480 0 2 298 3 297 503 3 502 2 0 195 0
195 -720 0 -720 0 0 -1195z"/>
<path d="M22800 14015 l0 -1195 725 0 725 0 0 205 0 205 -510 0 -510 0 0 990
0 990 -215 0 -215 0 0 -1195z"/>
<path d="M24730 14016 l0 -1196 408 0 c410 0 565 8 702 36 561 116 907 518
946 1099 8 123 -8 279 -41 404 -102 380 -407 678 -809 791 -178 50 -205 52
-718 57 l-488 5 0 -1196z m975 790 c275 -61 477 -220 568 -449 46 -115 60
-214 54 -376 -4 -103 -11 -169 -27 -226 -64 -240 -218 -415 -437 -494 -136
-50 -221 -61 -469 -61 l-224 0 0 816 0 817 233 -6 c153 -4 256 -11 302 -21z"/>
<path d="M19970 10626 c-113 -24 -200 -84 -262 -180 -55 -85 -78 -169 -85
-308 l-6 -118 -109 0 -108 0 0 -85 0 -85 110 0 110 0 0 -460 0 -460 100 0 100
0 0 460 0 460 205 0 205 0 0 85 0 85 -206 0 -207 0 5 114 c4 95 10 123 32 172
52 112 108 149 231 149 72 0 88 -4 150 -35 39 -19 73 -36 77 -38 4 -2 27 27
52 64 43 64 45 69 29 86 -29 32 -155 87 -223 98 -81 12 -130 12 -200 -4z"/>
<path d="M15200 9770 l0 -840 100 0 100 0 0 840 0 840 -100 0 -100 0 0 -840z"/>
<path d="M24180 9770 l0 -840 100 0 99 0 3 348 c3 339 4 348 27 406 62 156
234 229 376 162 58 -27 87 -56 112 -111 16 -36 18 -80 21 -422 l3 -383 95 0
95 0 -3 433 -3 432 -28 57 c-57 117 -171 185 -323 195 -139 9 -259 -42 -335
-143 l-34 -46 -3 376 -2 376 -100 0 -100 0 0 -840z"/>
<path d="M28020 9770 l0 -840 100 0 100 0 0 840 0 840 -100 0 -100 0 0 -840z"/>
<path d="M10420 9685 l0 -755 100 0 100 0 0 325 0 325 300 0 300 0 0 85 0 85
-300 0 -300 0 2 253 3 252 318 3 317 2 0 90 0 90 -420 0 -420 0 0 -755z"/>
<path d="M15828 10233 l-3 -208 -112 -3 -113 -3 0 -84 0 -85 114 0 115 0 3
-332 3 -333 32 -67 c17 -36 49 -84 72 -107 134 -134 371 -146 560 -27 l41 26
-35 70 c-19 39 -40 70 -45 70 -6 0 -32 -11 -58 -24 -69 -35 -141 -48 -202 -36
-64 12 -80 21 -118 64 -55 63 -62 108 -62 418 l0 278 215 0 215 0 0 85 0 85
-215 0 -215 0 0 210 0 210 -95 0 -95 0 -2 -207z"/>
<path d="M20700 10350 l0 -90 230 0 230 0 0 -665 0 -665 100 0 100 0 0 665 0
665 225 0 225 0 0 90 0 90 -555 0 -555 0 0 -90z"/>
<path d="M13173 10035 c-201 -44 -356 -197 -409 -406 -23 -88 -15 -269 16
-356 46 -133 144 -247 264 -308 205 -103 441 -80 633 61 29 22 53 43 53 47 0
20 -92 127 -103 120 -7 -4 -35 -21 -63 -39 -83 -53 -167 -77 -249 -71 -99 6
-174 38 -244 103 -185 171 -159 496 49 628 118 76 266 74 422 -5 l57 -29 46
71 c53 82 57 74 -64 134 -125 62 -270 80 -408 50z"/>
<path d="M18560 10027 c-143 -49 -238 -132 -300 -262 -48 -101 -60 -159 -60
-293 0 -178 45 -304 151 -416 100 -107 220 -156 384 -156 251 0 430 128 511
365 24 70 27 96 28 205 0 103 -4 138 -23 200 -58 190 -185 318 -362 365 -86
23 -250 19 -329 -8z m317 -177 c122 -52 203 -201 203 -370 0 -240 -136 -402
-340 -403 -93 0 -159 25 -225 84 -91 84 -131 199 -122 348 10 179 92 304 230
353 70 25 182 20 254 -12z"/>
<path d="M22163 10035 c-182 -40 -332 -193 -378 -386 -19 -82 -19 -246 0 -327
70 -297 352 -471 660 -407 79 16 211 79 268 128 l38 32 -42 66 -42 66 -65 -43
c-94 -63 -148 -79 -267 -79 -93 0 -105 2 -167 33 -107 53 -175 143 -203 270
l-7 32 403 0 402 0 -6 123 c-7 178 -53 292 -154 388 -111 105 -267 142 -440
104z m230 -165 c93 -35 161 -128 174 -240 l6 -50 -303 0 -303 0 6 35 c10 60
53 142 100 188 81 82 209 108 320 67z"/>
<path d="M23383 10035 c-198 -43 -357 -199 -408 -400 -19 -76 -19 -234 0 -310
41 -159 145 -295 280 -361 207 -102 440 -79 632 62 29 22 53 43 53 47 0 20
-92 127 -103 120 -7 -4 -35 -21 -63 -39 -83 -53 -167 -77 -249 -71 -193 13
-333 142 -364 334 -10 65 -2 151 20 213 34 96 125 187 221 219 110 37 223 24
349 -40 l57 -28 47 71 c37 55 44 73 33 80 -52 35 -182 92 -237 104 -82 17
-186 17 -268 -1z"/>
<path d="M25917 10039 c-76 -18 -163 -78 -208 -143 -13 -20 -27 -36 -31 -36
-5 0 -8 36 -8 80 l0 80 -95 0 -95 0 0 -545 0 -545 94 0 94 0 4 333 c4 307 6
337 26 398 25 77 83 148 146 182 33 17 58 22 127 22 78 0 90 -3 135 -30 37
-23 56 -44 77 -84 l27 -55 0 -383 0 -383 101 0 100 0 -3 428 -3 427 -33 67
c-50 102 -137 166 -254 188 -61 12 -149 11 -201 -1z"/>
<path d="M27066 10039 c-178 -42 -329 -202 -377 -399 -18 -71 -18 -259 0 -330
48 -199 189 -346 378 -395 80 -21 223 -19 305 4 127 35 247 131 311 248 63
117 87 339 52 478 -50 194 -191 343 -370 390 -65 17 -235 19 -299 4z m250
-174 c136 -40 227 -174 240 -355 10 -130 -29 -250 -108 -335 -97 -106 -267
-130 -401 -57 -205 111 -246 475 -74 658 89 94 216 127 343 89z"/>
<path d="M28886 10039 c-178 -42 -329 -202 -377 -399 -18 -71 -18 -259 0 -330
48 -199 189 -346 378 -395 80 -21 223 -19 305 4 183 50 320 201 364 398 24
110 16 293 -18 385 -64 171 -190 290 -355 333 -63 17 -234 19 -297 4z m250
-174 c136 -40 227 -174 240 -355 10 -130 -29 -250 -108 -335 -97 -106 -267
-130 -401 -57 -205 111 -246 474 -74 658 89 94 216 127 343 89z"/>
<path d="M11831 10029 c-179 -35 -335 -199 -377 -398 -18 -88 -18 -224 2 -319
42 -206 179 -355 361 -392 31 -7 98 -10 147 -8 110 5 178 34 261 110 l55 50 0
-71 0 -71 100 0 100 0 0 545 0 545 -100 0 -100 0 0 -61 0 -61 -40 34 c-104 90
-260 126 -409 97z m236 -174 c59 -17 132 -78 168 -139 51 -88 68 -243 40 -364
-27 -113 -80 -190 -166 -237 -49 -27 -63 -30 -145 -30 -81 0 -97 3 -149 30
-118 60 -178 182 -178 360 0 190 79 331 211 380 50 18 157 18 219 0z"/>
<path d="M30143 10026 c-139 -35 -258 -131 -318 -257 -42 -89 -55 -153 -55
-269 0 -220 100 -401 265 -480 85 -41 152 -53 259 -48 112 5 184 36 263 113
l53 51 0 -126 c0 -142 -12 -198 -60 -273 -32 -51 -101 -101 -165 -119 -107
-30 -291 4 -405 76 -30 19 -57 33 -61 30 -4 -2 -26 -36 -50 -75 l-43 -71 25
-20 c46 -37 184 -98 257 -113 91 -19 250 -19 318 -1 78 21 173 75 230 133 65
65 130 191 144 283 6 38 10 294 10 613 l0 547 -100 0 -100 0 0 -66 0 -67 -50
47 c-79 74 -144 99 -265 103 -60 1 -121 -3 -152 -11z m294 -187 c108 -52 167
-149 179 -292 20 -234 -116 -407 -320 -407 -92 0 -155 22 -215 76 -181 163
-147 519 60 625 92 47 197 46 296 -2z"/>
<path d="M13940 9663 c0 -387 5 -435 55 -533 48 -95 120 -158 230 -200 83 -32
262 -33 347 -2 146 53 245 168 277 320 7 33 11 187 11 412 l0 360 -94 0 -94 0
-4 -357 c-5 -403 -9 -431 -76 -505 -50 -56 -110 -81 -192 -81 -82 0 -142 25
-192 81 -67 74 -71 102 -76 505 l-4 357 -94 0 -94 0 0 -357z"/>
<path d="M16619 9913 c22 -60 109 -299 195 -533 l157 -425 -27 -70 c-67 -173
-123 -245 -212 -271 -69 -20 -126 -13 -209 25 -46 22 -64 26 -71 18 -14 -17
-72 -135 -72 -145 0 -5 33 -24 73 -43 70 -33 76 -34 197 -34 109 0 131 3 174
23 114 52 195 153 266 329 68 170 480 1225 480 1229 0 2 -47 4 -104 4 l-104 0
-137 -382 c-76 -211 -141 -386 -144 -390 -4 -4 -70 168 -146 382 l-140 390
-107 0 -107 0 38 -107z"/>
<path d="M31034 10005 c3 -9 91 -249 196 -534 l190 -518 -40 -97 c-48 -118
-69 -154 -119 -199 -45 -40 -121 -62 -185 -53 -23 4 -71 20 -106 37 -34 16
-64 28 -65 27 -1 -2 -20 -38 -43 -81 l-42 -78 78 -37 c76 -37 78 -37 202 -37
118 0 129 2 185 29 79 39 152 115 202 212 22 43 150 358 283 699 133 341 245
626 247 633 4 9 -20 12 -100 12 l-105 0 -11 -27 c-6 -16 -67 -185 -136 -377
-69 -192 -129 -356 -134 -363 -5 -10 -57 124 -147 376 l-139 391 -109 0 c-93
0 -107 -2 -102 -15z"/>
</g>
</svg>
