<?xml version="1.0" encoding="UTF-8"?>
<svg width="84px" height="68px" viewBox="0 0 84 68" version="1.1" xmlns="http://www.w3.org/2000/svg" xmlns:xlink="http://www.w3.org/1999/xlink">
    <!-- Generator: Sketch 52.4 (67378) - http://www.bohemiancoding.com/sketch -->
    <title>Export/Messenger</title>
    <desc>Created with Sketch.</desc>
    <g id="Symbols" stroke="none" stroke-width="1" fill="none" fill-rule="evenodd">
        <g id="Elements/hintStep1" transform="translate(-2.000000, -2.000000)">
            <g id="Stacked-Group-4" transform="translate(1.000000, 2.000000)">
                <g id="Export/Messenger">
                    <g id="messenger" transform="translate(0.488961, 0.000000)">
                        <circle id="Oval" fill="#3B5998" fill-rule="nonzero" cx="32.511039" cy="32" r="32"></circle>
                        <path d="M19.6754553,39.2118702 C19.6641718,39.3092762 19.643217,39.4137686 19.6142015,39.5253475 C19.5867991,39.6599495 19.5513384,39.8175701 19.511039,40 L31.3908195,31.226025 L34.0166352,39.1566973 C34.2503643,38.9317758 34.4599038,38.7334183 34.6372195,38.5598566 C34.7903498,38.4057771 34.9321983,38.2658614 35.0627442,38.1436596 C35.1981429,38.0232305 35.2771283,37.9594705 35.3045323,37.9594705 C35.3190395,37.9594705 35.5140801,37.7717404 35.8977167,37.3927348 C36.2781305,37.0155019 36.7745979,36.5125263 37.3855262,35.889117 C37.9964545,35.2657078 38.6928014,34.5590564 39.4777855,33.7744675 C40.2595509,32.9863422 41.0542322,32.1769984 41.8617883,31.3498816 C43.7606384,29.4070211 45.9238322,27.2021019 48.3527726,24.7367564 C48.3914585,24.6056999 48.4269217,24.4817253 48.4559351,24.3701509 C48.4849497,24.2780541 48.5026801,24.1912756 48.5091298,24.1151199 C48.5155774,24.040737 48.5059058,24 48.4768915,24 C48.4623844,24 48.2754028,24.1310565 47.9159351,24.393174 C47.5532529,24.651746 47.0777605,24.9988558 46.4877948,25.4274439 C45.8994384,25.8560367 45.2304915,26.3465985 44.4825634,26.8938838 C43.733026,27.4411238 42.9625259,27.9990184 42.1694539,28.5710587 C40.3415382,29.9117287 38.2524977,31.4366103 35.9087283,33.142122 L33.0347036,24.8909039 C30.5249664,27.5404159 28.2826264,29.9013007 26.3163492,31.978727 C25.4813932,32.8677766 24.6641399,33.7373758 23.8581932,34.5857111 C23.0554651,35.4340464 22.3381557,36.1902985 21.7175714,36.8561903 C21.092159,37.5203138 20.5876119,38.0551763 20.2071899,38.4607776 C19.8235533,38.8628063 19.6430148,39.0646912 19.6575401,39.0646912 C19.6819029,39.0648725 19.6899624,39.1144642 19.6754553,39.2118702 Z M26.9770317,49.2171476 L20.839164,54 L22.3435029,47.3309634 C16.447032,44.0792452 12.511039,38.212855 12.511039,31.516129 C12.511039,21.2899533 21.6892016,13 33.011039,13 C44.3328764,13 53.511039,21.2899533 53.511039,31.516129 C53.511039,41.7423047 44.3328764,50.0322581 33.011039,50.0322581 C30.910985,50.0322581 28.8846851,49.7470386 26.9770317,49.2171476 Z" id="Combined-Shape" fill="#FFFFFF"></path>
                    </g>
                    <g id="Pattern/Icon/check" transform="translate(53.000000, 38.000000)">
                        <rect id="Rectangle" stroke="#979797" stroke-width="1" fill="#FFFFFF" fill-rule="nonzero" x="0.5" y="0.5" width="31" height="29" rx="2"></rect>
                        <path d="M27.5426851,4.68755439 C27.6676848,4.56255469 27.8343514,4.50005484 28.0426839,4.50005484 C28.2510164,4.50005484 28.438516,4.56255469 28.6051826,4.68755439 L30.3551784,6.50005007 C30.521845,6.62504977 30.6051778,6.79171636 30.6051778,7.00004888 C30.6051778,7.20838139 30.521845,7.39588095 30.3551784,7.56254753 L11.6052231,26.3125028 C11.4802234,26.4375025 11.3135568,26.5000024 11.1052243,26.5000024 C10.8968918,26.5000024 10.7093922,26.4375025 10.5427256,26.3125028 L2.23024547,17.9375228 C2.06357888,17.8125231 1.98024606,17.6458565 1.98024606,17.437524 C1.98024606,17.2291915 2.06357888,17.0416919 2.23024547,16.8750253 L3.98024129,15.1250295 C4.14690788,14.9583629 4.33440743,14.8750301 4.54273995,14.8750301 C4.75107247,14.8750301 4.91773906,14.9583629 5.04273876,15.1250295 L11.1052243,21.1875151 L27.5426851,4.68755439 Z" id="check" fill="#444444" fill-rule="evenodd"></path>
                    </g>
                </g>
            </g>
        </g>
    </g>
</svg>