<?xml version="1.0" encoding="UTF-8"?>
<svg width="89px" height="67px" viewBox="0 0 89 67" version="1.1" xmlns="http://www.w3.org/2000/svg" xmlns:xlink="http://www.w3.org/1999/xlink">
    <!-- Generator: Sketch 52.4 (67378) - http://www.bohemiancoding.com/sketch -->
    <title>Export/Profil</title>
    <desc>Created with Sketch.</desc>
    <g id="Symbols" stroke="none" stroke-width="1" fill="none" fill-rule="evenodd">
        <g id="Elements/hintStep1" transform="translate(-93.000000, -2.000000)">
            <g id="Stacked-Group-4" transform="translate(1.000000, 2.000000)">
                <g id="Export/Profil" transform="translate(92.000000, 0.000000)">
                    <g id="profile" transform="translate(0.176026, 0.000000)">
                        <circle id="Oval" fill="#6BCEBB" fill-rule="nonzero" cx="32.5546976" cy="32.1304348" r="32"></circle>
                        <path d="M49,28.7144882 C48.8029072,28.5890527 48.5691583,28.5170398 48.3191529,28.5170398 L45.0400542,28.5170398 C44.3877623,28.5170398 43.8412132,29.0117227 43.7824672,29.636776 L43.4445682,31.6984982 C42.8099076,31.8969659 42.1957818,32.1546736 41.6111042,32.4656912 L39.9480865,31.266028 C39.7218427,31.0823703 39.4368303,30.9905452 39.1518178,30.9905452 C38.8197935,30.9905452 38.4877766,31.1119979 38.2497911,31.3548956 L35.9286069,33.6920398 C35.8750593,33.7456818 35.8272191,33.8029884 35.7850861,33.8631462 C35.7584109,33.844565 35.7330803,33.8257839 35.709165,33.8068003 C35.6883078,34.6275424 33.9610632,35.2905628 31.8310574,35.2905628 C29.7010182,35.2905628 27.9736401,34.6275424 27.9529498,33.8068003 C23.0853757,37.6658351 19.8239743,33.1745099 19.8239743,42.3044107 C19.8239743,44.8067777 26.3367657,46.009796 31.8063624,46.009796 L31.8298266,46.009796 L31.8532912,46.009796 C32.9901786,46.009796 34.6791315,45.957718 36.3932061,45.8526937 C36.5680836,46.3521214 36.7820269,46.8406225 37.0276172,47.3122749 L35.8405856,48.988846 C35.8375507,48.992552 35.83454,48.9962701 35.8315533,49 L17,49 C15.3431458,49 14,47.6568542 14,46 L14,17 C14,15.3431458 15.3431458,14 17,14 L46,14 C47.6568542,14 49,15.3431458 49,17 L49,28.7144882 Z M55.5136419,40.1171798 C55.9553587,40.1614189 56.3032982,40.5492128 56.3032982,41.0212768 L56.3032982,43.3731808 C56.3032982,43.8452556 55.9553801,44.233022 55.4886801,44.2772778 L54.0594049,44.5217369 C53.9219018,44.9769145 53.7406409,45.4173961 53.5218733,45.8367724 L54.378201,47.0464432 C54.6573889,47.392102 54.6323898,47.9189363 54.3031983,48.2498019 L52.6572677,49.9125463 C52.4885143,50.0832501 52.2530842,50.1717607 52.0176487,50.1717607 C51.815549,50.1717607 51.6113691,50.106427 51.4509417,49.9736611 L50.271711,49.1222733 C49.8549879,49.3456486 49.4195649,49.5268889 48.9716183,49.6680873 L48.7299371,51.1369887 C48.6882808,51.5816784 48.302808,51.933617 47.8381935,51.933617 L45.5130145,51.933617 C45.0504748,51.933617 44.6650308,51.5816892 44.6171106,51.1159481 L44.3816752,49.6681412 C43.9316697,49.5269536 43.4982789,49.3436093 43.0815825,49.1223273 L41.8856572,49.9863933 C41.741871,50.1065188 41.5418567,50.1802794 41.3335112,50.1802794 C41.0918353,50.1802794 40.8647365,50.0833418 40.6959725,49.912638 L39.052122,48.2498936 C38.7250106,47.9169131 38.697926,47.3921829 38.9937818,47.0297025 L39.8354951,45.8369181 C39.6167382,45.4154053 39.4333918,44.9749777 39.2958833,44.5239866 L37.8457533,44.2774181 C37.4040365,44.233179 37.056097,43.8453851 37.056097,43.3733211 L37.056097,41.0214171 C37.056097,40.5514517 37.406106,40.163687 37.8665548,40.115216 L39.2979101,39.872861 C39.4395789,39.4197874 39.6187543,38.9793058 39.8375219,38.5599295 L38.9811942,37.3502587 C38.7020063,37.0045999 38.7270054,36.4777657 39.0561969,36.1469 L40.7021276,34.4841556 C40.8708809,34.3113478 41.106311,34.2249412 41.3417465,34.2249412 C41.5438462,34.2249412 41.745946,34.2902695 41.9063734,34.4209314 L43.0856041,35.2744232 C43.5001937,35.053152 43.9356647,34.8698077 44.3856968,34.7286093 L44.6252979,33.2618119 C44.6669542,32.8171222 45.0545071,32.4651836 45.5170414,32.4651836 L47.8422205,32.4651836 C48.3068456,32.4651836 48.692288,32.8171114 48.7381243,33.2828525 L48.9756399,34.7285553 C49.4256453,34.8697429 49.8611217,35.0530872 50.2757326,35.2743693 L51.4716578,34.4103032 C51.6133586,34.2901778 51.8154583,34.2185266 52.0238038,34.2185266 C52.2654851,34.2185266 52.4904984,34.3112561 52.6592625,34.4840639 L54.3072733,36.1468083 C54.6343793,36.4776848 54.6614638,37.0003109 54.3676936,37.3648954 L53.5239001,38.5597839 C53.742657,38.9791925 53.9218378,39.4175107 54.0614317,39.8727154 L55.5136419,40.1171744 Z M49.8425321,41.1946103 C49.7827206,40.998028 49.7059475,40.8087382 49.6122172,40.6276146 L49.9737554,40.1115963 C50.0996265,39.9541487 50.0880216,39.7284501 49.9478673,39.5855595 L49.2417479,38.8674954 C49.169438,38.7928675 49.073027,38.7528218 48.9694744,38.7528218 C48.8802051,38.7528218 48.7936119,38.7837648 48.7328977,38.8356415 L48.2204824,39.2087925 C48.042835,39.1132308 47.8562475,39.0340527 47.6634347,38.9730802 L47.5616669,38.3487465 C47.5420275,38.147614 47.3768779,37.9956323 47.1778011,37.9956323 L46.181537,37.9956323 C45.983356,37.9956323 45.8173021,38.1476187 45.7994537,38.33966 L45.6967924,38.9731035 C45.5039682,39.0340807 45.3173829,39.1132588 45.1397447,39.2088158 L44.6344824,38.8402313 C44.5657445,38.7838044 44.4791513,38.755592 44.3925581,38.755592 C44.2916816,38.755592 44.1908074,38.7929071 44.118502,38.867535 L43.4132739,39.5855991 C43.272226,39.728485 43.2615147,39.9560009 43.3811377,40.1052753 L43.7480465,40.6276775 C43.6543116,40.8087871 43.5775407,40.9990112 43.5168402,41.1946732 L42.9035507,41.2993353 C42.7062633,41.3202678 42.5562958,41.4877258 42.5562958,41.6906826 L42.5562958,42.7063636 C42.5562958,42.9102267 42.7053766,43.0776973 42.894638,43.0968022 L43.5159718,43.203284 C43.5748897,43.3980467 43.6534478,43.5882474 43.747178,43.7702797 L43.3865311,44.2853894 C43.2597664,44.4419283 43.2713713,44.6685355 43.4115279,44.8123348 L44.1158648,45.5303989 C44.1881747,45.6041181 44.2854792,45.6459811 44.3890295,45.6459811 C44.4782988,45.6459811 44.5639985,45.6141272 44.6256062,45.5622504 L45.1380216,45.1890994 C45.3165625,45.2846611 45.5022565,45.3638392 45.6950693,45.4248118 L45.7959457,46.0500541 C45.816478,46.2511866 45.9816283,46.4031683 46.1798116,46.4031683 L47.1760757,46.4031683 C47.3751479,46.4031683 47.5403106,46.2511819 47.558159,46.0591406 L47.6617116,45.4247885 C47.8536422,45.3638113 48.0402069,45.2855418 48.2187593,45.1890761 L48.7240215,45.556752 C48.7927595,45.6140876 48.880244,45.6423022 48.9668372,45.6423022 C49.0677136,45.6423022 49.1685878,45.6040785 49.2408932,45.5303593 L49.9461213,44.8122951 C50.0871692,44.6694092 50.0978805,44.4418933 49.9782575,44.292619 L49.6113488,43.7702168 C49.7050836,43.5891072 49.7827481,43.3988831 49.8416637,43.2023124 L50.4540619,43.0967416 C50.6540278,43.0776295 50.8030995,42.9101708 50.8030995,42.706303 L50.8030995,41.690622 C50.8030995,41.4867589 50.6540186,41.3192883 50.4647573,41.3001834 L49.8425321,41.1946103 Z M26.2996733,28.8520271 C26.7118158,30.0149554 27.3388758,31.1453489 28.1116591,32.0325138 C28.3127121,32.2627584 28.5250883,32.4708847 28.744992,32.6659937 C28.8053079,32.7193281 28.8631115,32.7765621 28.9246819,32.8259937 C29.6660688,33.432167 30.4979133,33.8068003 31.3787827,33.8068003 C32.2533792,33.8068003 33.0802055,33.4373619 33.819051,32.8376823 C33.8693142,32.7973584 33.9158073,32.7492289 33.9648128,32.7076029 C34.1935113,32.5085778 34.4159113,32.2926425 34.6257784,32.0546088 C35.409885,31.1609503 36.0444725,30.0175362 36.4603787,28.8429193 C36.8096962,28.7362537 37.1741328,28.0520268 37.3236519,27.1778825 C37.485752,26.2282787 37.332448,25.3983578 36.9818618,25.2630902 C36.9655264,24.9547986 36.9378811,24.6425976 36.8964159,24.3304032 C36.7556789,21.6442326 35.9627903,20.4435412 34.7903781,19.9077324 C33.9610426,19.2183073 32.8514876,18.7877287 31.3789114,18.7877287 C29.9099701,18.7877287 28.8041788,19.2078841 27.9787036,19.8817245 C26.6882009,20.4423757 25.8437784,21.7783013 25.7960083,24.9484315 C25.7884686,25.0498955 25.7821858,25.1500575 25.775903,25.2489174 C25.3939023,25.3256656 25.2192275,26.1867993 25.388884,27.178029 C25.5421861,28.0925005 25.9367453,28.7988425 26.2998952,28.8521569 L26.2996733,28.8520271 Z" id="Combined-Shape" fill="#FFFFFF"></path>
                    </g>
                    <g id="Pattern/Icon/check" transform="translate(57.000000, 37.000000)">
                        <rect id="Rectangle" stroke="#979797" stroke-width="1" fill="#FFFFFF" fill-rule="nonzero" x="0.5" y="0.5" width="31" height="29" rx="2"></rect>
                        <path d="M27.5426851,4.68755439 C27.6676848,4.56255469 27.8343514,4.50005484 28.0426839,4.50005484 C28.2510164,4.50005484 28.438516,4.56255469 28.6051826,4.68755439 L30.3551784,6.50005007 C30.521845,6.62504977 30.6051778,6.79171636 30.6051778,7.00004888 C30.6051778,7.20838139 30.521845,7.39588095 30.3551784,7.56254753 L11.6052231,26.3125028 C11.4802234,26.4375025 11.3135568,26.5000024 11.1052243,26.5000024 C10.8968918,26.5000024 10.7093922,26.4375025 10.5427256,26.3125028 L2.23024547,17.9375228 C2.06357888,17.8125231 1.98024606,17.6458565 1.98024606,17.437524 C1.98024606,17.2291915 2.06357888,17.0416919 2.23024547,16.8750253 L3.98024129,15.1250295 C4.14690788,14.9583629 4.33440743,14.8750301 4.54273995,14.8750301 C4.75107247,14.8750301 4.91773906,14.9583629 5.04273876,15.1250295 L11.1052243,21.1875151 L27.5426851,4.68755439 Z" id="check" fill="#444444" fill-rule="evenodd"></path>
                    </g>
                </g>
            </g>
        </g>
    </g>
</svg>