<svg xmlns="http://www.w3.org/2000/svg" viewBox="0 0 713.24 170.14"><title>Element 4</title><path d="M262.07,72.19c0,7.85-4.85,13.13-12.08,13.13S237.82,80,237.82,72.19V36.51H227.33V72.8a22.5,22.5,0,0,0,5.84,15.58C237.27,92.73,243.09,95,250,95c15.6,0,22.58-11.16,22.58-22.23V36.51h-10.5Z" fill="#1d1d1b"/><polygon points="327.15 94.95 329.56 94.95 329.56 36.51 319.16 36.51 319.16 71.65 287.39 35.51 287.27 35.37 284.85 35.37 284.85 93.9 295.43 93.9 295.43 58.93 327.03 94.81 327.15 94.95" fill="#1d1d1b"/><rect x="342.48" y="36.51" width="10.49" height="57.39" fill="#1d1d1b"/><polygon points="399.47 36.51 386.48 71.82 373.23 36.51 361.97 36.51 384.72 94.77 387.54 94.77 410.47 36.51 399.47 36.51" fill="#1d1d1b"/><polygon points="454.31 84.63 429.96 84.63 429.96 69.19 452.92 69.19 452.92 60.26 429.96 60.26 429.96 45.95 454.31 45.95 454.31 36.51 419.46 36.51 419.46 93.9 454.31 93.9 454.31 84.63" fill="#1d1d1b"/><path d="M494.47,93.9h12.45L488.34,70c9.58-1.43,15.28-7.64,15.28-16.72,0-10.48-7.36-16.73-19.69-16.73H466.07V93.9h10.49V70.67l17.79,23.07ZM482.79,62.36h-6.23v-17h6.93c6.05,0,9.81,3.25,9.81,8.5C493.3,59.26,489.47,62.36,482.79,62.36Z" fill="#1d1d1b"/><path d="M533.75,85.59c-5.61,0-10.79-3.61-15.55-7.51l-.34-.28-5.25,7.64.27.24c6.9,6.15,13.74,9.27,20.34,9.27C544.48,95,552,88.22,552,78.21c0-8.91-7.1-13.49-12.44-16.16L533,58.73c-5.58-2.84-7.38-4.77-7.38-7.94,0-4,3.84-6.14,7.63-6.14s7.84,1.73,12.15,5.15l.34.27,5-7.3-.27-.23c-4.16-3.5-9.43-7.08-17.11-7.08-11.17,0-18.39,6.26-18.39,15.94s7.76,14.22,13.59,16.87L534.17,71c4.5,2.29,7.29,4.43,7.29,8C541.46,83.12,538.58,85.59,533.75,85.59Z" fill="#1d1d1b"/><rect x="561.68" y="36.51" width="10.49" height="57.39" fill="#1d1d1b"/><polygon points="599.38 93.9 609.78 93.9 609.78 45.95 625.93 45.95 625.93 36.51 583.14 36.51 583.14 45.95 599.38 45.95 599.38 93.9" fill="#1d1d1b"/><path d="M638.54,30.94a6.69,6.69,0,1,0-6.69-6.69A6.55,6.55,0,0,0,638.54,30.94Z" fill="#1d1d1b"/><path d="M657.57,30.94a6.62,6.62,0,0,0,6.69-6.69,6.7,6.7,0,0,0-6.69-6.69,6.61,6.61,0,0,0-6.69,6.69A6.55,6.55,0,0,0,657.57,30.94Z" fill="#1d1d1b"/><path d="M649.46,35.63h-2.9L622.66,93.9h10.83l4-10.31H658.7l4.19,10.31h10.82l-24.15-58Zm5.77,39.21H640.88L648,56.77Z" fill="#1d1d1b"/><polygon points="670.44 36.35 670.44 45.8 686.68 45.8 686.68 93.74 697.09 93.74 697.09 45.8 713.24 45.8 713.24 36.35 670.44 36.35" fill="#1d1d1b"/><path d="M257.28,140.57a14.44,14.44,0,0,0,7.34-12.45c0-9.64-7.64-15.39-20.43-15.39H227.33V170h18.34c13.18,0,21-6.3,21-16.86C266.71,147.36,263.21,142.72,257.28,140.57ZM237.8,137V121.46h6.74c5.62,0,9.7,3.13,9.7,7.44,0,3.93-2.55,8.14-9.7,8.14Zm8.39,24.47H237.8V145.25H247c5.73,0,9.43,3.05,9.43,7.78C256.41,158.42,252.69,161.51,246.19,161.51Z" fill="#1d1d1b"/><rect x="275.86" y="112.73" width="10.47" height="57.25" fill="#1d1d1b"/><polygon points="298.26 169.99 333.02 169.99 333.02 160.73 308.73 160.73 308.73 145.33 331.63 145.33 331.63 136.43 308.73 136.43 308.73 122.16 333.02 122.16 333.02 112.73 298.26 112.73 298.26 169.99" fill="#1d1d1b"/><polygon points="353.26 112.73 342.79 112.73 342.79 169.99 377.64 169.99 377.64 160.29 353.26 160.29 353.26 112.73" fill="#1d1d1b"/><polygon points="388.03 169.99 422.8 169.99 422.8 160.73 398.5 160.73 398.5 145.33 421.4 145.33 421.4 136.43 398.5 136.43 398.5 122.16 422.8 122.16 422.8 112.73 388.03 112.73 388.03 169.99" fill="#1d1d1b"/><polygon points="434.68 169.99 445.15 169.99 445.15 146.9 466.22 146.9 466.22 138.25 445.15 138.25 445.15 122.34 467.79 122.34 467.79 112.73 434.68 112.73 434.68 169.99" fill="#1d1d1b"/><polygon points="478.72 169.99 513.49 169.99 513.49 160.73 489.19 160.73 489.19 145.33 512.1 145.33 512.1 136.43 489.19 136.43 489.19 122.16 513.49 122.16 513.49 112.73 478.72 112.73 478.72 169.99" fill="#1d1d1b"/><polygon points="535.32 112.73 524.85 112.73 524.85 169.99 559.7 169.99 559.7 160.29 535.32 160.29 535.32 112.73" fill="#1d1d1b"/><path d="M589.67,112.73H571.33V170h17.91c23.17,0,31.4-15.6,31.4-29C620.64,124.36,607.9,112.73,589.67,112.73ZM609.73,141c0,12.7-7.31,20-20.06,20H581.8V121.9h8.13C599.79,121.9,609.73,127.81,609.73,141Z" fill="#1d1d1b"/><polygon points="133.58 36.46 133.58 0 0 0 0 170.14 170.08 170.14 170.08 36.46 133.58 36.46" fill="#1d1d1b"/></svg>