<?xml version="1.0" encoding="utf-8"?>
<!-- Generator: Adobe Illustrator 26.0.2, SVG Export Plug-In . SVG Version: 6.00 Build 0)  -->
<svg version="1.1" id="Layer_1" xmlns="http://www.w3.org/2000/svg" xmlns:xlink="http://www.w3.org/1999/xlink" x="0px" y="0px"
	 viewBox="0 0 713.2 170.1" style="enable-background:new 0 0 713.2 170.1;" xml:space="preserve">
<style type="text/css">
	.st0{fill:#D8F0F7;}
</style>
<path class="st0" d="M262.1,72.2c0,7.8-4.9,13.1-12.1,13.1s-12.2-5.3-12.2-13.1V36.5h-10.5v36.3c-0.1,5.7,2,11.3,5.8,15.6
	c4.1,4.3,9.9,6.6,16.8,6.6c15.6,0,22.6-11.2,22.6-22.2V36.5h-10.5L262.1,72.2z"/>
<polygon class="st0" points="327.1,94.9 329.6,94.9 329.6,36.5 319.2,36.5 319.2,71.7 287.4,35.5 287.3,35.4 284.9,35.4 284.9,93.9 
	295.4,93.9 295.4,58.9 327,94.8 "/>
<rect x="342.5" y="36.5" class="st0" width="10.5" height="57.4"/>
<polygon class="st0" points="399.5,36.5 386.5,71.8 373.2,36.5 362,36.5 384.7,94.8 387.5,94.8 410.5,36.5 "/>
<polygon class="st0" points="454.3,84.6 430,84.6 430,69.2 452.9,69.2 452.9,60.3 430,60.3 430,46 454.3,46 454.3,36.5 419.5,36.5 
	419.5,93.9 454.3,93.9 "/>
<path class="st0" d="M494.5,93.9h12.5L488.3,70c9.6-1.4,15.3-7.6,15.3-16.7c0-10.5-7.4-16.7-19.7-16.7h-17.9v57.4h10.5V70.7
	l17.8,23.1L494.5,93.9z M482.8,62.4h-6.2v-17h6.9c6,0,9.8,3.2,9.8,8.5C493.3,59.3,489.5,62.4,482.8,62.4z"/>
<path class="st0" d="M533.8,85.6c-5.6,0-10.8-3.6-15.5-7.5l-0.3-0.3l-5.2,7.6l0.3,0.2c6.9,6.2,13.7,9.3,20.3,9.3
	C544.5,95,552,88.2,552,78.2c0-8.9-7.1-13.5-12.4-16.2l-6.6-3.3c-5.6-2.8-7.4-4.8-7.4-7.9c0-4,3.8-6.1,7.6-6.1s7.8,1.7,12.2,5.2
	l0.3,0.3l5-7.3l-0.3-0.2c-4.2-3.5-9.4-7.1-17.1-7.1c-11.2,0-18.4,6.3-18.4,15.9s7.8,14.2,13.6,16.9l5.6,2.7c4.5,2.3,7.3,4.4,7.3,8
	C541.5,83.1,538.6,85.6,533.8,85.6z"/>
<rect x="561.7" y="36.5" class="st0" width="10.5" height="57.4"/>
<polygon class="st0" points="599.4,93.9 609.8,93.9 609.8,46 625.9,46 625.9,36.5 583.1,36.5 583.1,46 599.4,46 "/>
<path class="st0" d="M638.5,30.9c3.7,0,6.7-3,6.7-6.7s-3-6.7-6.7-6.7c-3.7,0-6.7,3-6.7,6.7c-0.1,3.6,2.8,6.6,6.4,6.7
	C638.4,30.9,638.4,30.9,638.5,30.9z"/>
<path class="st0" d="M657.6,30.9c3.7,0,6.7-2.9,6.7-6.5c0,0,0-0.1,0-0.1c0-3.7-3-6.7-6.7-6.7c-3.7,0-6.6,2.9-6.7,6.5
	c0,0.1,0,0.1,0,0.2c-0.1,3.6,2.8,6.6,6.4,6.7C657.4,30.9,657.5,30.9,657.6,30.9z"/>
<path class="st0" d="M649.5,35.6h-2.9l-23.9,58.3h10.8l4-10.3h21.2l4.2,10.3h10.8l-24.2-58L649.5,35.6z M655.2,74.8h-14.4l7.1-18.1
	L655.2,74.8z"/>
<polygon class="st0" points="670.4,36.3 670.4,45.8 686.7,45.8 686.7,93.7 697.1,93.7 697.1,45.8 713.2,45.8 713.2,36.3 "/>
<path class="st0" d="M257.3,140.6c4.5-2.5,7.3-7.3,7.3-12.4c0-9.6-7.6-15.4-20.4-15.4h-16.9V170h18.3c13.2,0,21-6.3,21-16.9
	C266.7,147.4,263.2,142.7,257.3,140.6z M237.8,137v-15.5h6.7c5.6,0,9.7,3.1,9.7,7.4c0,3.9-2.6,8.1-9.7,8.1L237.8,137z M246.2,161.5
	h-8.4v-16.2h9.2c5.7,0,9.4,3.1,9.4,7.8C256.4,158.4,252.7,161.5,246.2,161.5L246.2,161.5z"/>
<rect x="275.9" y="112.7" class="st0" width="10.5" height="57.3"/>
<polygon class="st0" points="298.3,170 333,170 333,160.7 308.7,160.7 308.7,145.3 331.6,145.3 331.6,136.4 308.7,136.4 
	308.7,122.2 333,122.2 333,112.7 298.3,112.7 "/>
<polygon class="st0" points="353.3,112.7 342.8,112.7 342.8,170 377.6,170 377.6,160.3 353.3,160.3 "/>
<polygon class="st0" points="388,170 422.8,170 422.8,160.7 398.5,160.7 398.5,145.3 421.4,145.3 421.4,136.4 398.5,136.4 
	398.5,122.2 422.8,122.2 422.8,112.7 388,112.7 "/>
<polygon class="st0" points="434.7,170 445.1,170 445.1,146.9 466.2,146.9 466.2,138.2 445.1,138.2 445.1,122.3 467.8,122.3 
	467.8,112.7 434.7,112.7 "/>
<polygon class="st0" points="478.7,170 513.5,170 513.5,160.7 489.2,160.7 489.2,145.3 512.1,145.3 512.1,136.4 489.2,136.4 
	489.2,122.2 513.5,122.2 513.5,112.7 478.7,112.7 "/>
<polygon class="st0" points="535.3,112.7 524.8,112.7 524.8,170 559.7,170 559.7,160.3 535.3,160.3 "/>
<path class="st0" d="M589.7,112.7h-18.3V170h17.9c23.2,0,31.4-15.6,31.4-29C620.6,124.4,607.9,112.7,589.7,112.7z M609.7,141
	c0,12.7-7.3,20-20.1,20h-7.9v-39.1h8.1C599.8,121.9,609.7,127.8,609.7,141z"/>
<polygon class="st0" points="133.6,36.5 133.6,0 0,0 0,170.1 170.1,170.1 170.1,36.5 "/>
</svg>
