<?xml version="1.0" standalone="no"?>
<!DOCTYPE svg PUBLIC "-//W3C//DTD SVG 20010904//EN"
 "http://www.w3.org/TR/2001/REC-SVG-20010904/DTD/svg10.dtd">
<svg version="1.0" xmlns="http://www.w3.org/2000/svg"
 width="5943.000000pt" height="1417.000000pt" viewBox="0 0 5943.000000 1417.000000"
 preserveAspectRatio="xMidYMid meet">

<g transform="translate(0.000000,1417.000000) scale(0.100000,-0.100000)"
fill="#000000" stroke="none">
<path d="M0 7085 l0 -7085 7085 0 7085 0 0 5565 0 5565 -1517 2 -1518 3 -3
1518 -2 1517 -5565 0 -5565 0 0 -7085z"/>
<path d="M53100 12699 c-94 -16 -216 -83 -292 -160 -116 -117 -165 -255 -156
-432 7 -113 32 -188 94 -279 193 -283 609 -317 854 -69 110 111 160 233 160
391 0 158 -50 280 -160 391 -105 105 -216 155 -362 163 -46 3 -108 1 -138 -5z"/>
<path d="M54680 12699 c-30 -5 -93 -27 -139 -50 -141 -70 -241 -188 -287 -344
-27 -88 -24 -249 5 -335 112 -324 470 -470 781 -318 343 167 415 622 143 894
-128 128 -310 184 -503 153z"/>
<path d="M23730 8785 l0 -2435 445 0 445 0 2 1450 3 1450 1315 -1494 1315
-1494 103 -1 102 -1 0 2435 0 2435 -435 0 -435 0 -2 -1457 -3 -1458 -1319
1500 -1319 1500 -109 3 -108 3 0 -2436z"/>
<path d="M44290 11214 c-880 -64 -1412 -600 -1377 -1388 16 -344 136 -615 383
-862 159 -159 350 -287 644 -431 107 -53 312 -153 455 -223 458 -225 627 -363
696 -567 17 -52 23 -90 23 -158 -1 -261 -149 -446 -413 -517 -104 -28 -320
-30 -441 -5 -309 66 -601 224 -998 540 -62 49 -114 88 -116 86 -1 -2 -92 -134
-201 -294 -109 -159 -207 -302 -217 -317 l-18 -26 112 -94 c421 -352 843 -578
1233 -657 393 -81 841 -33 1175 125 393 186 643 500 736 924 15 68 19 127 19
300 0 189 -3 226 -23 303 -76 300 -257 557 -549 776 -151 113 -270 181 -730
415 -533 270 -621 324 -739 447 -106 112 -144 204 -144 351 0 185 102 338 283
427 110 53 181 71 312 78 299 14 646 -119 984 -377 51 -39 95 -70 97 -68 2 2
95 138 208 303 193 281 204 300 189 317 -29 33 -236 190 -333 254 -259 170
-531 278 -806 319 -102 15 -348 26 -444 19z"/>
<path d="M53842 11128 c-17 -40 -459 -1117 -982 -2393 -524 -1276 -958 -2335
-965 -2352 l-14 -33 453 0 453 0 166 428 165 427 884 0 883 0 174 -427 174
-428 452 0 453 0 -960 2303 c-528 1266 -982 2357 -1010 2425 l-50 122 -123 0
-123 0 -30 -72z m457 -2451 c160 -400 291 -729 291 -732 0 -3 -265 -5 -590 -5
-324 0 -590 4 -590 9 0 4 127 332 283 727 156 395 287 728 291 739 6 17 9 18
16 5 4 -8 139 -342 299 -743z"/>
<path d="M55860 10750 l0 -390 678 -2 677 -3 3 -1997 2 -1998 430 0 430 0 2
1998 3 1997 673 3 672 2 0 390 0 390 -1785 0 -1785 0 0 -390z"/>
<path d="M18940 9561 c0 -1021 4 -1605 10 -1672 24 -233 82 -436 184 -644 178
-362 421 -610 761 -780 307 -153 614 -214 1018 -202 544 16 945 175 1278 507
228 228 375 491 459 825 61 241 60 204 60 1946 l0 1589 -435 0 -434 0 -4
-1572 c-3 -1564 -3 -1574 -24 -1666 -57 -246 -141 -411 -282 -552 -178 -177
-416 -271 -691 -272 -464 -2 -816 247 -959 680 -63 190 -61 122 -61 1829 l0
1553 -440 0 -440 0 0 -1569z"/>
<path d="M28540 8740 l0 -2390 435 0 435 0 0 2390 0 2390 -435 0 -435 0 0
-2390z"/>
<path d="M30162 11121 c1 -4 428 -1096 947 -2425 l945 -2416 120 0 121 0 947
2408 c521 1324 950 2415 954 2425 6 16 -20 17 -453 17 l-459 0 -539 -1465
c-296 -805 -541 -1462 -544 -1460 -2 3 -251 661 -552 1463 l-547 1457 -472 3
c-266 1 -470 -2 -468 -7z"/>
<path d="M34950 8740 l0 -2390 1450 0 1450 0 0 385 0 385 -1010 0 -1010 0 0
645 0 645 955 0 955 0 0 370 0 370 -955 0 -955 0 0 595 0 595 1010 0 1010 0 0
395 0 395 -1450 0 -1450 0 0 -2390z"/>
<path d="M38830 8741 l0 -2391 440 0 440 0 2 962 3 962 739 -958 c406 -527
744 -960 750 -962 6 -2 241 -3 522 -2 l511 3 -769 989 c-423 543 -768 990
-766 992 2 2 55 14 118 27 624 133 1023 523 1121 1099 18 106 21 149 16 318
-6 203 -21 304 -67 440 -144 426 -483 716 -980 839 -254 62 -270 63 -1217 68
l-863 5 0 -2391z m1730 1620 c219 -56 386 -181 469 -351 57 -118 74 -205 68
-360 -3 -101 -9 -140 -31 -203 -74 -220 -243 -363 -511 -434 -98 -26 -107 -27
-472 -31 l-373 -4 0 707 0 706 383 -4 c354 -3 388 -5 467 -26z"/>
<path d="M46800 8740 l0 -2390 440 0 440 0 0 2390 0 2390 -440 0 -440 0 0
-2390z"/>
<path d="M48590 10735 l0 -395 675 0 675 0 0 -1995 0 -1995 435 0 435 0 0
1995 0 1995 670 0 670 0 0 395 0 395 -1780 0 -1780 0 0 -395z"/>
<path d="M18940 2395 l0 -2386 903 4 c966 4 978 5 1227 58 214 47 437 139 605
251 104 69 258 222 325 322 245 367 292 891 112 1251 -117 235 -330 428 -592
536 -30 12 -58 25 -63 29 -4 3 30 32 76 63 94 63 242 211 304 302 192 284 257
637 179 975 -48 212 -138 373 -295 531 -220 221 -512 353 -934 421 -126 21
-172 22 -989 25 l-858 4 0 -2386z m1702 1627 c165 -46 274 -103 364 -190 118
-115 165 -219 172 -380 8 -193 -49 -345 -177 -473 -86 -86 -168 -135 -286
-172 -134 -42 -214 -48 -570 -45 l-330 3 -3 643 -2 643 377 -3 c350 -4 384 -6
455 -26z m213 -1981 c336 -95 510 -309 508 -626 -2 -279 -124 -481 -358 -595
-183 -89 -290 -102 -800 -98 l-390 3 -3 673 -2 673 482 -4 c465 -3 486 -4 563
-26z"/>
<path d="M22990 2395 l0 -2385 435 0 435 0 0 2385 0 2385 -435 0 -435 0 0
-2385z"/>
<path d="M24850 2395 l0 -2385 1450 0 1450 0 0 385 0 385 -1012 2 -1013 3 0
640 0 640 953 3 952 2 0 370 0 370 -955 0 -955 0 2 593 3 592 1013 3 1012 2 0
390 0 390 -1450 0 -1450 0 0 -2385z"/>
<path d="M28560 2395 l0 -2385 1455 0 1455 0 0 405 0 405 -1015 0 -1015 0 0
1980 0 1980 -440 0 -440 0 0 -2385z"/>
<path d="M32330 2395 l0 -2385 1450 0 1450 0 0 385 0 385 -1012 2 -1013 3 0
640 0 640 953 3 952 2 0 370 0 370 -955 0 -955 0 2 593 3 592 1013 3 1012 2 0
390 0 390 -1450 0 -1450 0 0 -2385z"/>
<path d="M36220 2395 l0 -2385 435 0 435 0 2 962 3 963 878 3 877 2 0 360 0
360 -880 0 -880 0 0 660 0 660 945 0 945 0 0 400 0 400 -1380 0 -1380 0 0
-2385z"/>
<path d="M39890 2395 l0 -2385 1450 0 1450 0 0 385 0 385 -1012 2 -1013 3 0
640 0 640 953 3 952 2 0 370 0 370 -955 0 -955 0 2 593 3 592 1013 3 1012 2 0
390 0 390 -1450 0 -1450 0 0 -2385z"/>
<path d="M43730 2395 l0 -2385 1455 0 1455 0 0 405 0 405 -1017 2 -1018 3 -3
1978 -2 1977 -435 0 -435 0 0 -2385z"/>
<path d="M47610 2394 l0 -2385 898 4 c919 5 959 6 1207 48 956 161 1624 727
1889 1600 43 142 81 335 97 493 18 178 7 538 -21 695 -105 595 -397 1074 -867
1425 -315 234 -750 408 -1180 471 -215 31 -341 35 -1175 35 l-848 0 0 -2386z
m1707 1616 c414 -37 767 -185 1029 -433 331 -313 480 -736 453 -1288 -40 -808
-470 -1335 -1213 -1484 -180 -36 -322 -45 -733 -45 l-373 0 0 1630 0 1630 363
0 c199 0 412 -5 474 -10z"/>
</g>
</svg>
